<?xml version="1.0" standalone="no"?>
<!DOCTYPE svg PUBLIC "-//W3C//DTD SVG 1.1//EN" "http://www.w3.org/Graphics/SVG/1.1/DTD/svg11.dtd">
<svg xmlns="http://www.w3.org/2000/svg">
<defs >
<font id="Livvic" horiz-adv-x="554" ><font-face
    font-family="Livvic"
    units-per-em="1000"
    panose-1="0 0 0 0 0 0 0 0 0 0"
    ascent="1005"
    descent="-250"
    alphabetic="0" />
<glyph unicode=" " glyph-name="space" horiz-adv-x="229" />
<glyph unicode="!" glyph-name="exclam" horiz-adv-x="190" d="M56 172L147 740H229L105 172H56ZM58 -8Q36 -8 22 6T7 42Q7 64 21 79T58 94Q81 94 95 79T110 42Q110 21 96 7T58 -8Z" />
<glyph unicode="&quot;" glyph-name="quotedbl" horiz-adv-x="347" d="M122 470L151 710H229L172 470H122ZM251 470L280 710H358L301 470H251Z" />
<glyph unicode="#" glyph-name="numbersign" horiz-adv-x="600" d="M39 0L118 204H13L38 267H142L209 442H106L130 505H233L312 710H381L302 505H451L530 710H599L520 505H625L600 442H496L429 267H533L508 204H405L326 0H257L336 204H187L108 0H39ZM211 267H360L427
442H278L211 267Z" />
<glyph unicode="$" glyph-name="dollar" horiz-adv-x="600" d="M207 -120L227 -5Q138 6 93 61T52 210L126 220Q124 135 160 98T283 60Q331 60 369 76T429 124T452 201Q452 235 435 255T390 287T328 308T260 328T198 359T152 411T135 493Q135 555 164 604T243 683T355
719L375 830H430L410 719Q487 711 529 662T569 531L500 519Q499 588 469 620T378 652Q307 652 260 611T213 498Q213 462 230 440T276 405T338 382T406 361T468 332T513 285T531 207Q531 144 498 96T408 21T282 -8L262 -120H207Z" />
<glyph unicode="%" glyph-name="percent" horiz-adv-x="732" d="M257 420Q189 420 147 459T105 561Q105 607 125 642T183 698T268 719Q335 719 376 681T417 579Q417 534 396 498T339 441T257 420ZM69 0L629 710H699L140 0H69ZM258 471Q303 471 332 501T361 577Q361
619 336 644T268 670Q221 670 191 639T161 561Q161 520 187 496T258 471ZM504 -7Q436 -7 394 32T352 134Q352 180 372 215T430 271T515 292Q582 292 623 254T664 152Q664 107 643 71T586 14T504 -7ZM505 43Q550 43 579 73T608 150Q608 192 583 217T515 242Q468
242 438 212T408 134Q408 93 434 68T505 43Z" />
<glyph unicode="&amp;" glyph-name="ampersand" horiz-adv-x="778" d="M272 -8Q164 -8 106 41T48 168Q48 233 72 277T137 351T221 405L215 413Q190 446 178 476T166 541Q166 598 191 639T258 702T355 724Q417 724 454 691T491 598Q491 541 466 504T402 442T318
394L496 154Q526 190 549 238T588 347H479L489 408H764L754 347H651Q633 272 602 213T530 109Q555 80 578 68T631 56Q646 56 662 61T692 75L708 23Q688 7 666 1T616 -6Q575 -6 542 10T478 62Q431 27 379 10T272 -8ZM280 445L286 437Q324 456 356 477T408 525T428
593Q428 668 350 668Q299 668 268 634T237 550Q237 524 246 501T280 445ZM123 178Q123 119 164 87T278 54Q371 54 444 106L254 361Q218 341 189 317T141 260T123 178Z" />
<glyph unicode="&apos;" glyph-name="quotesingle" horiz-adv-x="218" d="M122 470L151 710H229L172 470H122Z" />
<glyph unicode="(" glyph-name="parenleft" horiz-adv-x="292" d="M199 -210Q129 -138 96 -47T62 149Q62 329 140 485T366 748L394 706Q333 660 286 597T207 458T157 302T140 142Q140 43 165 -39T237 -175L199 -210Z" />
<glyph unicode=")" glyph-name="parenright" horiz-adv-x="292" d="M-67 -210L-95 -167Q-34 -122 13 -59T92 80T142 236T159 397Q159 495 134 577T62 713L100 748Q170 676 203 585T237 390Q237 209 159 53T-67 -210Z" />
<glyph unicode="*" glyph-name="asterisk" horiz-adv-x="466" d="M435 511Q470 490 454 461Q446 447 432 445T401 452Q381 463 362 482T305 528Q309 481 315 456T321 406Q321 387 312 376T288 365Q272 365 263 376T254 406Q254 430 260 455T271 528Q234 501 214
482T174 452Q157 443 143 445T122 461Q105 490 140 511Q160 522 186 530T254 556Q212 575 186 583T140 602Q106 624 122 653Q138 682 174 661Q194 650 214 631T271 586Q266 631 260 657T254 707Q254 725 263 736T288 748Q303 748 312 737T321 707Q321 684 315 658T305
586Q342 612 361 631T401 661Q437 682 454 653Q470 623 435 602Q415 591 389 583T321 556Q363 538 389 531T435 511Z" />
<glyph unicode="+" glyph-name="plus" horiz-adv-x="600" d="M50 215L61 282H272L309 497H378L341 282H550L539 215H329L291 0H222L260 215H50Z" />
<glyph unicode="," glyph-name="comma" horiz-adv-x="178" d="M-27 -114Q-14 -92 -4 -65T7 -16Q7 -2 5 11T2 38Q2 66 16 83T60 100Q80 100 92 89T105 53Q105 34 92 4T58 -57T12 -114H-27Z" />
<glyph unicode="-" glyph-name="hyphen" horiz-adv-x="393" d="M55 221L67 287H340L329 221H55Z" />
<glyph unicode="." glyph-name="period" horiz-adv-x="178" d="M53 -8Q29 -8 15 7T0 46Q0 69 14 84T53 100Q78 100 92 85T107 46Q107 23 93 8T53 -8Z" />
<glyph unicode="/" glyph-name="slash" horiz-adv-x="314" d="M-79 -200L334 740H408L-5 -200H-79Z" />
<glyph unicode="0" glyph-name="zero" horiz-adv-x="600" d="M259 -8Q166 -8 113 50T60 227Q60 298 74 369T114 503T180 615T271 692T386 720Q474 720 525 659T576 479Q576 409 563 340T524 208T460 97T371 20T259 -8ZM266 61Q313 61 351 86T417 155T465 253T493
365T503 475Q503 562 471 607T379 652Q332 652 293 626T225 557T175 458T145 345T134 234Q134 146 168 104T266 61Z" />
<glyph unicode="1" glyph-name="one" horiz-adv-x="600" d="M82 0L93 62H252L347 602L190 507L160 565L400 710H442L327 62H481L470 0H82Z" />
<glyph unicode="2" glyph-name="two" horiz-adv-x="600" d="M55 0L64 50Q145 109 220 171T356 296T450 423T485 545Q485 596 455 624T371 652Q246 652 178 514L120 542Q157 621 224 670T379 720Q459 720 510 679T562 555Q562 489 530 424T442 296T316 174T168
62H497L486 0H55Z" />
<glyph unicode="3" glyph-name="three" horiz-adv-x="600" d="M239 -8Q176 -8 125 6T38 43L72 108Q103 87 146 74T244 61Q330 61 385 101T440 217Q440 271 402 300T301 329H260L272 393H296Q382 393 434 435T487 554Q487 599 457 625T374 652Q307 652 260 618T178
514L120 542Q157 623 224 671T382 720Q467 720 515 677T563 564Q563 495 522 441T415 364Q464 347 490 311T516 223Q516 151 479 100T379 20T239 -8Z" />
<glyph unicode="4" glyph-name="four" horiz-adv-x="600" d="M339 0L376 209H44L52 260L487 712H538L460 271H560L549 209H449L412 0H339ZM140 271H387L442 585L140 271Z" />
<glyph unicode="5" glyph-name="five" horiz-adv-x="600" d="M239 -8Q176 -8 125 6T38 44L73 110Q101 88 144 75T244 61Q334 61 388 106T442 236Q442 296 393 326T236 360L139 363L224 710H571L561 648H282L228 425L258 424Q518 416 518 236Q518 160 483 106T384
22T239 -8Z" />
<glyph unicode="6" glyph-name="six" horiz-adv-x="600" d="M288 -8Q188 -8 135 50T81 224Q81 249 83 277T92 336Q113 455 158 541T271 673T428 720Q504 720 553 680T614 562L548 537Q537 598 505 625T418 652Q329 652 263 575T167 337L166 336Q202 389 256 417T374
446Q455 446 505 399T555 270Q555 194 520 131T424 30T288 -8ZM290 56Q348 56 390 84T456 160T479 262Q479 317 447 349T356 382Q300 382 256 356T186 284T160 182Q160 123 193 90T290 56Z" />
<glyph unicode="7" glyph-name="seven" horiz-adv-x="600" d="M168 0H84L514 648H154L165 710H610L601 656L168 0Z" />
<glyph unicode="8" glyph-name="eight" horiz-adv-x="600" d="M264 -8Q162 -8 104 38T45 162Q45 210 66 250T123 319T206 362Q164 382 143 419T121 501Q121 565 155 614T246 691T374 720Q434 720 480 699T551 640T577 551Q577 482 537 433T431 360Q479 341 506
300T533 210Q533 143 497 94T400 19T264 -8ZM325 389Q376 389 416 408T479 463T502 546Q502 597 466 626T367 656Q290 656 243 612T195 498Q195 445 229 417T325 389ZM265 56Q321 56 364 75T433 129T458 212Q458 265 419 297T313 329Q261 329 217 309T147 253T120
167Q120 116 158 86T265 56Z" />
<glyph unicode="9" glyph-name="nine" horiz-adv-x="600" d="M350 720Q450 720 503 662T557 488Q557 463 555 435T546 376Q525 257 480 171T367 39T210 -8Q134 -8 85 32T24 150L90 175Q101 114 133 87T220 60Q309 60 375 137T471 375L472 376Q436 323 382 295T264
266Q183 266 133 313T83 442Q83 518 118 581T214 682T350 720ZM348 656Q290 656 248 628T182 552T159 450Q159 395 191 363T282 330Q338 330 382 356T452 428T478 530Q478 589 445 622T348 656Z" />
<glyph unicode=":" glyph-name="colon" horiz-adv-x="178" d="M53 -8Q29 -8 15 7T0 46Q0 69 14 84T53 100Q78 100 92 85T107 46Q107 23 93 8T53 -8ZM124 397Q100 397 86 412T71 451Q71 474 85 489T124 505Q149 505 163 490T178 451Q178 428 164 413T124 397Z" />
<glyph unicode=";" glyph-name="semicolon" horiz-adv-x="178" d="M-27 -114Q-14 -92 -4 -65T7 -16Q7 -2 5 11T2 38Q2 66 16 83T60 100Q80 100 92 89T105 53Q105 34 92 4T58 -57T12 -114H-27ZM124 397Q100 397 86 412T71 451Q71 474 85 489T124 505Q149 505 163
490T178 451Q178 428 164 413T124 397Z" />
<glyph unicode="&lt;" glyph-name="less" horiz-adv-x="600" d="M71 277L577 499L564 423L153 245L502 67L490 -1L62 220L71 277Z" />
<glyph unicode="=" glyph-name="equal" horiz-adv-x="600" d="M68 317L79 380H568L556 317H68ZM32 118L43 181H532L521 118H32Z" />
<glyph unicode="&gt;" glyph-name="greater" horiz-adv-x="600" d="M529 220L23 -1L36 74L447 253L98 431L110 499L538 277L529 220Z" />
<glyph unicode="?" glyph-name="question" horiz-adv-x="511" d="M216 169L161 171Q168 218 183 254T226 323T300 391Q347 427 374 454T413 506T425 563Q425 607 395 629T314 652Q186 652 120 514L62 542Q98 625 169 672T325 720Q403 720 452 682T502 574Q502
523 482 484T425 412T340 341Q286 300 257 261T216 169ZM172 -8Q150 -8 136 6T121 42Q121 64 136 79T173 94Q196 94 210 79T224 42Q224 21 210 7T172 -8Z" />
<glyph unicode="@" glyph-name="at" horiz-adv-x="969" d="M426 -212Q310 -212 226 -171T97 -50T51 148Q51 267 89 371T196 555T362 680T575 725Q684 725 763 685T884 571T927 394Q927 333 913 270T871 152T806 65T719 32Q665 32 637 63T609 145Q577 94 527 63T424
32Q351 32 310 76T269 199Q269 263 290 319T349 417T435 482T540 506Q579 506 616 494T671 461L685 497L732 493L677 194Q668 145 681 118T727 91Q760 91 785 121T829 198T856 295T866 387Q866 471 832 533T732 629T574 664Q470 664 386 623T242 509T150 344T117
146Q117 2 198 -74T433 -151Q511 -151 583 -126T704 -59L736 -107Q678 -158 597 -185T426 -212ZM434 95Q479 95 518 119T586 186T625 283L650 404Q611 444 537 444Q483 444 439 412T367 324T340 201Q340 95 434 95Z" />
<glyph unicode="A" glyph-name="A" horiz-adv-x="674" d="M-32 0L390 710H456L613 0H539L499 190H161L51 0H-32ZM199 255H485L409 615L199 255Z" />
<glyph unicode="B" glyph-name="B" horiz-adv-x="611" d="M38 0L163 710H347Q479 710 541 671T604 554Q604 483 564 432T455 359Q502 342 527 306T553 222Q553 153 518 103T424 27T292 0H38ZM338 646H227L182 390H322Q416 390 471 427T527 545Q527 598 482 622T338
646ZM125 64H299Q382 64 429 104T477 220Q477 325 325 325H171L125 64Z" />
<glyph unicode="C" glyph-name="C" horiz-adv-x="648" d="M624 136Q575 65 503 29T347 -8Q212 -8 140 63T68 261Q68 352 97 434T181 581T309 683T472 720Q554 720 615 686T702 586L638 544Q617 596 575 622T467 649Q395 649 336 618T234 532T169 408T146 264Q146
167 197 115T351 63Q418 63 475 92T574 181L624 136Z" />
<glyph unicode="D" glyph-name="D" horiz-adv-x="733" d="M38 0L163 710H343Q516 710 608 640T700 432Q700 301 646 204T493 54T265 0H38ZM128 68H269Q378 68 457 112T579 238T622 429Q622 536 553 589T340 642H228L128 68Z" />
<glyph unicode="E" glyph-name="E" horiz-adv-x="542" d="M126 66H476L457 0H38L163 710H575L563 644H227L183 394H510L498 328H172L126 66Z" />
<glyph unicode="F" glyph-name="F" horiz-adv-x="484" d="M114 0H38L163 710H555L543 644H227L181 383H488L477 317H169L114 0Z" />
<glyph unicode="G" glyph-name="G" horiz-adv-x="727" d="M433 344H680L619 0H560L566 84Q524 39 474 16T347 -8Q212 -8 140 63T68 261Q68 352 97 434T182 581T313 683T481 720Q565 720 627 686T716 586L650 541Q607 649 474 649Q399 649 339 618T235 532T169
408T146 264Q146 167 197 115T350 63Q448 63 511 112T590 247L595 281H421L433 344Z" />
<glyph unicode="H" glyph-name="H" horiz-adv-x="717" d="M38 0L163 710H241L185 395H584L639 710H717L592 0H514L572 327H173L116 0H38Z" />
<glyph unicode="I" glyph-name="I" horiz-adv-x="241" d="M38 0L163 710H241L116 0H38Z" />
<glyph unicode="J" glyph-name="J" horiz-adv-x="448" d="M136 -8Q61 -8 15 29T-38 128L30 156Q37 106 65 84T146 61Q204 61 236 95T282 205L371 710H449L361 208Q342 102 289 47T136 -8Z" />
<glyph unicode="K" glyph-name="K" horiz-adv-x="562" d="M38 0L163 710H241L183 381L566 710H664L249 356Q284 338 305 294L386 130Q407 88 425 75T473 61Q491 61 505 65T531 77L541 19Q522 6 501 0T453 -6Q411 -6 381 14T326 82L227 277Q219 293 206 304T172
319L116 0H38Z" />
<glyph unicode="L" glyph-name="L" horiz-adv-x="484" d="M38 0L163 710H241L128 67H459L440 0H38Z" />
<glyph unicode="M" glyph-name="M" horiz-adv-x="914" d="M31 0L188 710H263L428 93L818 710H893L793 0H721L797 556L444 0H379L228 567L103 0H31Z" />
<glyph unicode="N" glyph-name="N" horiz-adv-x="717" d="M642 710H716L591 0H525L214 586L112 0H38L163 710H229L540 124L642 710Z" />
<glyph unicode="O" glyph-name="O" horiz-adv-x="769" d="M343 -8Q211 -8 140 63T68 261Q68 351 97 434T181 581T309 683T472 720Q555 720 614 686T706 590T738 444Q738 354 710 273T628 129T503 29T343 -8ZM347 63Q419 63 476 94T575 180T637 302T659 444Q659
540 610 594T469 649Q396 649 337 617T235 531T169 408T146 264Q146 167 197 115T347 63Z" />
<glyph unicode="P" glyph-name="P" horiz-adv-x="598" d="M114 0H38L163 710H384Q494 710 557 667T620 537Q620 453 580 398T469 315T302 287H164L114 0ZM374 646H227L176 352H308Q417 352 480 392T544 533Q544 591 501 618T374 646Z" />
<glyph unicode="Q" glyph-name="Q" horiz-adv-x="769" d="M438 -208Q350 -208 309 -154T283 -11L285 -4Q180 11 124 79T68 261Q68 351 97 434T181 581T309 683T472 720Q555 720 614 686T706 590T738 444Q738 356 711 277T633 134T513 34T359 -8L358 -13Q346 -83
367 -114T444 -145Q483 -145 511 -125T550 -70L610 -77Q591 -139 547 -173T438 -208ZM347 63Q419 63 476 94T575 180T637 302T659 444Q659 540 610 594T469 649Q396 649 337 617T235 531T169 408T146 264Q146 167 197 115T347 63Z" />
<glyph unicode="R" glyph-name="R" horiz-adv-x="582" d="M559 77L570 17Q535 -6 484 -6Q441 -6 411 15T357 81L257 278Q247 298 230 310T194 322H170L114 0H38L163 710H350Q461 710 519 668T577 548Q577 477 542 427T446 351T309 324H302Q325 310 347 267L417
130Q438 88 457 75T504 61Q519 61 533 65T559 77ZM342 646H227L181 384H291Q385 384 442 419T500 539Q500 646 342 646Z" />
<glyph unicode="S" glyph-name="S" horiz-adv-x="566" d="M257 -8Q140 -8 79 48T22 210L96 220Q96 135 135 98T264 60Q348 60 394 96T441 201Q441 235 424 255T377 287T314 308T245 328T181 359T135 411T117 493Q117 559 149 610T239 691T371 720Q469 720 521
670T571 531L502 519Q500 588 468 620T370 652Q290 652 243 611T195 498Q195 462 212 440T259 405T322 383T392 362T456 333T502 285T520 207Q520 143 487 95T394 19T257 -8Z" />
<glyph unicode="T" glyph-name="T" horiz-adv-x="546" d="M627 710L608 643H381L267 0H189L303 643H71L83 710H627Z" />
<glyph unicode="U" glyph-name="U" horiz-adv-x="722" d="M646 710H723L659 341Q628 159 549 76T327 -8Q185 -8 124 72T89 303L161 710H240L169 307Q146 184 186 124T330 63Q403 63 453 91T534 180T582 342L646 710Z" />
<glyph unicode="V" glyph-name="V" horiz-adv-x="586" d="M600 710H682L289 0H186L91 710H167L249 62L600 710Z" />
<glyph unicode="W" glyph-name="W" horiz-adv-x="935" d="M920 710H1000L667 0H578L536 602L254 0H164L115 710H187L226 93L514 710H596L638 93L920 710Z" />
<glyph unicode="X" glyph-name="X" horiz-adv-x="578" d="M-45 0L269 366L98 710H181L321 426L562 710H649L353 362L533 0H449L300 301L46 0H-45Z" />
<glyph unicode="Y" glyph-name="Y" horiz-adv-x="548" d="M650 710L325 320L268 0H191L248 322L58 710H141L297 390L565 710H650Z" />
<glyph unicode="Z" glyph-name="Z" horiz-adv-x="597" d="M-4 0L7 56L529 643H125L137 710H645L635 654L112 67H543L524 0H-4Z" />
<glyph unicode="[" glyph-name="bracketleft" horiz-adv-x="262" d="M3 -200L169 740H334L323 684H230L84 -144H178L168 -200H3Z" />
<glyph unicode="\" glyph-name="backslash" horiz-adv-x="314" d="M235 -200H167L80 740H149L235 -200Z" />
<glyph unicode="]" glyph-name="bracketright" horiz-adv-x="262" d="M-63 -200L-53 -144H41L187 684H93L103 740H267L101 -200H-63Z" />
<glyph unicode="^" glyph-name="asciicircum" horiz-adv-x="600" d="M368 587L509 119H443L331 502L85 119H9L311 587H368Z" />
<glyph unicode="_" glyph-name="underscore" horiz-adv-x="465" d="M-25 -62L-13 0H390L379 -62H-25Z" />
<glyph unicode="`" glyph-name="grave" horiz-adv-x="642" d="M309 573L211 728L297 750L379 573H309Z" />
<glyph unicode="a" glyph-name="a" horiz-adv-x="576" d="M212 -8Q134 -8 90 38T45 170Q45 240 67 301T129 408T222 480T338 506Q380 506 419 492T479 456L497 497H551Q539 445 531 404T516 326L488 169Q480 122 475 74T470 0H398Q398 32 402 64T413 129Q376 59
325 26T212 -8ZM223 60Q276 60 320 89T395 172T438 296L456 396Q413 440 338 440Q287 440 247 418T178 358T136 273T121 176Q121 120 147 90T223 60Z" />
<glyph unicode="b" glyph-name="b" horiz-adv-x="576" d="M239 -8Q197 -8 159 6T99 42L82 0H26Q38 54 46 93T61 172L163 747H236L192 498L167 375Q204 442 255 474T366 506Q444 506 488 460T532 329Q532 259 510 198T448 91T355 18T239 -8ZM239 59Q291 59 331
81T399 140T441 225T456 323Q456 379 430 409T354 439Q302 439 258 409T182 326T139 202L121 103Q165 59 239 59Z" />
<glyph unicode="c" glyph-name="c" horiz-adv-x="487" d="M244 -8Q152 -8 100 43T47 182Q47 243 66 300T121 404T211 478T332 506Q395 506 436 482T502 410L442 369Q411 439 330 439Q264 439 217 404T146 311T121 189Q121 128 154 94T255 60Q296 60 333 77T400
131L447 88Q407 39 356 16T244 -8Z" />
<glyph unicode="d" glyph-name="d" horiz-adv-x="576" d="M212 -8Q134 -8 90 38T45 170Q45 240 67 301T129 408T222 480T338 506Q375 506 410 495T468 465L473 497L516 740H589L488 169Q480 122 475 74T470 0H398Q398 32 402 64T413 129Q376 59 325 26T212 -8ZM223
60Q276 60 320 89T395 172T438 296L456 396Q413 440 338 440Q287 440 247 418T178 358T136 273T121 176Q121 120 147 90T223 60Z" />
<glyph unicode="e" glyph-name="e" horiz-adv-x="535" d="M262 -8Q166 -8 108 43T49 193Q49 255 68 311T125 412T214 481T333 506Q416 506 459 467T502 371Q502 331 485 298T428 244T321 219L123 210Q118 136 157 98T270 60Q311 60 352 77T423 130L463 84Q424
35 373 14T262 -8ZM326 447Q271 447 230 422T165 357T132 271L317 280Q385 283 410 307T435 367Q435 401 409 424T326 447Z" />
<glyph unicode="f" glyph-name="f" horiz-adv-x="336" d="M52 0L129 435H29L40 497H140L150 553Q167 649 224 699T363 750Q431 750 466 716T500 620L436 612Q440 687 356 687Q303 687 268 654T221 551L211 497H381L370 435H201L125 0H52Z" />
<glyph unicode="g" glyph-name="g" horiz-adv-x="580" d="M183 -210Q140 -210 96 -202T22 -175L47 -109Q77 -126 114 -134T189 -143Q281 -143 330 -97T401 56L416 133Q379 65 328 33T217 1Q139 1 93 46T46 174Q46 243 68 303T131 409T225 480T342 506Q384 506
423 492T484 456L502 497H556Q544 445 536 404T521 326L476 67Q450 -78 382 -144T183 -210ZM225 68Q278 68 323 97T399 178T443 299L460 397Q417 440 341 440Q272 440 223 403T148 306T122 182Q122 127 148 98T225 68Z" />
<glyph unicode="h" glyph-name="h" horiz-adv-x="571" d="M31 0L161 740H234L191 497L153 318Q192 409 252 457T385 506Q461 506 497 456T511 300L476 132Q469 99 466 66T463 0H389Q389 64 402 126L437 292Q453 369 433 403T360 438Q308 438 260 397T171 259T103 0H31Z" />
<glyph unicode="i" glyph-name="i" horiz-adv-x="222" d="M40 0Q40 32 44 63T53 126L88 324Q96 368 102 411T111 497H185Q182 454 174 405T160 322L126 131Q114 65 114 0H40ZM179 610Q155 610 142 625T129 660Q129 680 142 695T179 710Q202 710 215 695T229 660Q229
640 216 625T179 610Z" />
<glyph unicode="j" glyph-name="j" horiz-adv-x="237" d="M103 324Q111 368 117 411T126 497H200Q197 454 189 405T175 322L118 -5Q100 -102 49 -156T-98 -211Q-128 -211 -154 -206T-197 -191L-171 -129Q-137 -145 -95 -145Q-34 -145 0 -108T46 -2L103 324ZM194
610Q170 610 157 625T144 660Q144 680 157 695T194 710Q217 710 230 695T244 660Q244 640 231 625T194 610Z" />
<glyph unicode="k" glyph-name="k" horiz-adv-x="461" d="M31 0L162 740H235L155 288L403 496H499L213 257Q233 244 247 217L299 117Q317 82 336 70T380 57Q408 57 431 70L445 15Q426 3 408 -1T367 -6Q324 -6 293 12T239 76L188 175Q167 215 145 229L104 0H31Z" />
<glyph unicode="l" glyph-name="l" horiz-adv-x="265" d="M153 -8Q98 -8 70 26T52 116L162 740H235L127 125Q121 92 131 75T174 58Q190 58 204 62T228 72L238 17Q222 4 199 -2T153 -8Z" />
<glyph unicode="m" glyph-name="m" horiz-adv-x="909" d="M31 0L88 324Q96 368 102 411T111 497H182Q180 460 173 415T153 319Q193 410 252 458T381 506Q443 506 478 470T511 359Q552 431 608 468T727 506Q800 506 835 456T849 300L813 132Q807 99 804 66T801
0H727Q727 64 740 126L775 292Q791 369 772 403T702 438Q651 438 604 397T517 259T449 0H377L428 292Q442 369 425 403T356 438Q306 438 259 397T171 259T103 0H31Z" />
<glyph unicode="n" glyph-name="n" horiz-adv-x="571" d="M31 0L88 324Q96 368 102 411T111 497H182Q180 460 173 415T153 319Q193 410 252 458T385 506Q461 506 497 456T511 300L476 132Q469 99 466 66T463 0H389Q389 64 402 126L437 292Q453 369 433 403T360
438Q308 438 260 397T171 259T103 0H31Z" />
<glyph unicode="o" glyph-name="o" horiz-adv-x="567" d="M331 506Q417 506 468 456T519 315Q519 246 498 188T438 85T349 17T239 -8Q151 -8 99 41T47 182Q47 243 66 300T121 404T210 478T331 506ZM245 59Q307 59 352 95T421 189T445 311Q445 374 413 407T324
440Q261 440 216 404T146 311T121 189Q121 126 153 93T245 59Z" />
<glyph unicode="p" glyph-name="p" horiz-adv-x="576" d="M365 506Q443 506 487 460T531 329Q531 259 509 198T447 91T354 18T238 -8Q201 -8 166 3T108 33L103 1L68 -200H-5L87 324Q95 368 101 411T110 497H181Q179 461 175 431T163 369Q200 439 252 472T365 506ZM353
439Q301 439 257 409T181 326T138 202L121 103Q164 59 239 59Q290 59 330 81T398 140T440 225T455 323Q455 379 429 409T353 439Z" />
<glyph unicode="q" glyph-name="q" horiz-adv-x="576" d="M551 498Q539 445 531 406T516 326L422 -205H349L385 0L410 124Q373 57 322 25T212 -8Q134 -8 90 38T45 170Q45 240 67 301T129 408T222 480T338 506Q380 506 419 492T479 456L496 498H551ZM223 60Q276
60 320 89T395 172T438 296L456 396Q413 440 338 440Q287 440 247 418T178 358T136 273T121 176Q121 120 147 90T223 60Z" />
<glyph unicode="r" glyph-name="r" horiz-adv-x="376" d="M387 428Q378 431 368 432T346 433Q259 433 201 331T102 0H30L87 324Q95 367 101 410T110 497H181Q179 462 172 418T155 328Q198 425 253 465T362 506Q378 506 390 505T410 499L387 428Z" />
<glyph unicode="s" glyph-name="s" horiz-adv-x="452" d="M200 -8Q17 -8 13 140L78 155Q79 102 107 77T201 52Q256 52 291 76T326 139Q326 165 308 179T262 201T202 218T142 239T96 277T78 342Q78 392 106 429T179 485T275 505Q343 505 384 472T431 379L368 363Q361
445 273 445Q221 445 187 419T152 350Q152 323 169 308T215 283T275 265T335 243T381 208T399 147Q399 99 371 64T296 11T200 -8Z" />
<glyph unicode="t" glyph-name="t" horiz-adv-x="368" d="M221 -8Q137 -8 101 42T79 168L130 435H41L52 497H142L161 601H234L215 497H387L376 435H203L152 164Q143 115 162 87T232 58Q257 58 278 63T324 86L338 28Q313 9 282 1T221 -8Z" />
<glyph unicode="u" glyph-name="u" horiz-adv-x="561" d="M181 -8Q109 -8 75 42T60 197L83 324Q92 368 97 411T106 497H180Q177 454 170 405T156 322L132 197Q119 127 138 94T209 60Q259 60 305 102T392 239T460 497H530L472 169Q464 122 459 74T454 0H382Q382
34 387 73T406 170Q367 84 310 38T181 -8Z" />
<glyph unicode="v" glyph-name="v" horiz-adv-x="490" d="M457 497H534L252 0H151L77 497H151L212 59L457 497Z" />
<glyph unicode="w" glyph-name="w" horiz-adv-x="836" d="M797 497H874L600 0H515L458 403L236 0H150L81 497H155L208 77L438 497H514L569 75L797 497Z" />
<glyph unicode="x" glyph-name="x" horiz-adv-x="477" d="M-33 0L197 255L63 497H146L247 311L412 497H502L280 251L419 0H335L229 195L57 0H-33Z" />
<glyph unicode="y" glyph-name="y" horiz-adv-x="566" d="M170 -210Q127 -210 84 -202T13 -175L34 -110Q63 -126 100 -134T173 -143Q269 -143 318 -96T388 56L411 172Q366 81 309 41T191 1Q115 1 79 53T60 197L83 324Q91 366 97 410T106 497H180Q177 454 170 405T156
322L134 206Q121 141 139 106T211 70Q263 70 310 110T397 243T464 497H534L459 67Q433 -79 364 -144T170 -210Z" />
<glyph unicode="z" glyph-name="z" horiz-adv-x="453" d="M-5 0L4 51L352 435H84L95 497H457L448 446L100 62H378L367 0H-5Z" />
<glyph unicode="{" glyph-name="braceleft" horiz-adv-x="336" d="M200 -206Q137 -202 97 -170T56 -78Q56 -42 70 -9T102 55T135 115T149 171Q149 203 126 222T50 242L60 300Q124 300 157 330T191 407Q191 442 181 488T170 575Q170 628 195 665T264 723T365 748L369
701Q308 698 277 665T246 574Q246 534 257 497T268 420Q268 358 230 320T131 270Q172 261 197 234T223 167Q223 133 209 104T177 46T144 -14T130 -82Q130 -122 153 -140T214 -161L200 -206Z" />
<glyph unicode="|" glyph-name="bar" horiz-adv-x="256" d="M13 -200L179 740H251L85 -200H13Z" />
<glyph unicode="}" glyph-name="braceright" horiz-adv-x="336" d="M-21 -206L-25 -159Q36 -156 67 -123T98 -32Q98 8 87 45T76 122Q76 184 114 222T213 272Q172 281 147 308T121 375Q121 409 135 438T167 496T200 556T214 624Q214 664 191 682T130 703L144 748Q207
744 247 712T288 620Q288 584 274 551T242 487T209 427T195 371Q195 339 218 320T294 300L284 242Q220 242 187 212T153 135Q153 100 163 54T174 -33Q174 -86 149 -123T80 -181T-21 -206Z" />
<glyph unicode="~" glyph-name="asciitilde" horiz-adv-x="600" d="M401 189Q382 189 354 197T295 215T236 234T187 242Q158 242 136 228T94 187L60 223Q84 262 119 285T199 309Q218 309 246 301T305 283T364 265T413 257Q442 257 464 271T506 311L540 276Q516
236 481 213T401 189Z" />
<glyph unicode="&#xa0;" glyph-name="uni00A0" horiz-adv-x="229" />
<glyph unicode="&#xa1;" glyph-name="exclamdown" horiz-adv-x="190" d="M131 404Q109 404 95 418T80 454Q80 476 94 490T131 505Q153 505 168 491T183 454Q183 433 169 419T131 404ZM-32 -200L85 326H133L50 -200H-32Z" />
<glyph unicode="&#xa2;" glyph-name="cent" horiz-adv-x="600" d="M227 -120L246 -6Q171 4 128 53T85 182Q85 239 101 293T150 393T229 468T337 505L356 617H411L392 505Q446 501 482 477T539 410L479 369Q448 439 367 439Q301 439 255 403T184 310T159 189Q159
128 192 93T293 60Q334 60 371 77T438 131L484 88Q448 43 402 20T301 -7L281 -120H227Z" />
<glyph unicode="&#xa3;" glyph-name="sterling" horiz-adv-x="600" d="M47 -11L23 37Q94 71 131 117T169 238Q169 259 167 281T161 329H35L44 381H155Q154 396 153 411T152 442Q152 572 221 646T410 720Q497 720 549 674T607 542L545 519Q539 654 408 654Q315
654 270 599T224 447Q224 430 225 414T228 381H428L418 329H234Q236 310 237 291T239 254Q239 205 223 161T170 87Q190 94 209 94Q241 94 277 85T348 65T409 55Q466 55 502 110L540 77Q516 36 477 13T394 -10Q368 -10 329 0T247 20T166 30Q102 30 47 -11Z" />
<glyph unicode="&#xa4;" glyph-name="currency" horiz-adv-x="600" d="M113 99L75 138L128 193Q103 225 89 265T75 349Q75 394 89 434T128 506L75 562L113 601L166 545Q197 571 236 585T318 600Q360 600 398 586T468 546L521 601L561 561L507 506Q532 474 546
434T561 349Q561 305 547 265T507 193L561 138L522 100L469 154Q438 128 400 114T318 99Q275 99 236 113T166 154L113 99ZM319 158Q369 158 410 183T475 252T500 349Q500 403 476 446T410 515T319 541Q268 541 227 516T160 447T135 349Q135 296 160 253T226 184T319
158Z" />
<glyph unicode="&#xa5;" glyph-name="yen" horiz-adv-x="600" d="M74 165L83 218H256L274 314H100L109 367H261L94 710H176L326 400L582 710H668L381 367H531L522 314H350L333 218H505L496 165H324L295 0H218L247 165H74Z" />
<glyph unicode="&#xa6;" glyph-name="brokenbar" horiz-adv-x="256" d="M115 380L179 740H251L187 380H115ZM13 -200L77 160H149L85 -200H13Z" />
<glyph unicode="&#xa7;" glyph-name="section" horiz-adv-x="499" d="M205 -10Q133 -10 90 23T46 116L112 132Q113 53 216 53Q265 53 297 76T330 144Q330 171 312 186T265 211T204 229T143 250T96 284T77 341Q77 389 106 421T177 469Q158 484 147 505T135 558Q135
607 161 643T232 700T332 720Q404 720 448 687T491 593L425 578Q424 657 322 657Q272 657 240 634T208 566Q208 539 226 524T273 499T334 481T395 460T442 426T460 369Q460 321 432 289T360 241Q379 226 391 205T403 152Q403 102 377 66T306 10T205 -10ZM150 359Q150
332 173 318T231 295T301 272Q337 277 362 298T387 351Q387 378 364 392T307 415T236 438Q200 433 175 412T150 359Z" />
<glyph unicode="&#xa8;" glyph-name="dieresis" horiz-adv-x="670" d="M441 568Q419 568 406 581T393 614Q393 632 406 645T441 659Q463 659 475 646T488 614Q488 595 476 582T441 568ZM270 568Q248 568 235 581T222 614Q222 632 235 645T270 659Q291 659 303
646T316 614Q316 595 304 582T270 568Z" />
<glyph unicode="&#xa9;" glyph-name="copyright" horiz-adv-x="810" d="M423 -8Q347 -8 282 19T167 95T91 208T63 349Q63 425 90 490T167 603T281 679T423 706Q499 706 564 679T679 604T755 490T783 349Q783 273 756 209T679 96T565 20T423 -8ZM423 29Q491 29
549 53T650 121T718 223T742 350Q742 418 718 476T651 577T549 645T423 669Q355 669 297 645T196 578T128 476T104 350Q104 282 128 224T196 122T297 54T423 29ZM579 230Q556 191 517 170T427 149Q339 149 290 200T240 342Q240 403 264 450T333 523T436 550Q532
550 580 473L532 440Q516 468 492 481T435 495Q377 495 341 453T304 343Q304 277 336 241T428 204Q461 204 488 219T533 265L579 230Z" />
<glyph unicode="&#xaa;" glyph-name="ordfeminine" horiz-adv-x="341" d="M335 470H276L287 521Q269 494 245 480T190 465Q144 465 118 492T92 570Q92 620 112 661T169 726T252 750Q281 750 300 739T327 708L340 745H383L335 470ZM252 700Q220 700 198 682T163
636T151 574Q151 515 202 515Q233 515 256 534T293 583T306 643Q306 670 292 685T252 700Z" />
<glyph unicode="&#xab;" glyph-name="guillemotleft" horiz-adv-x="428" d="M126 70L30 238L36 268L190 436H274L102 248L203 70H126ZM302 70L206 238L212 268L366 436H450L278 248L379 70H302Z" />
<glyph unicode="&#xac;" glyph-name="logicalnot" horiz-adv-x="600" d="M73 282H540L491 0H422L459 215H61L73 282Z" />
<glyph unicode="&#xad;" glyph-name="uni00AD" horiz-adv-x="393" d="M55 221L67 287H340L329 221H55Z" />
<glyph unicode="&#xae;" glyph-name="registered" horiz-adv-x="810" d="M423 -8Q347 -8 282 19T167 95T91 209T63 349Q63 425 90 489T166 602T281 678T423 706Q500 706 565 679T679 603T755 490T783 349Q783 273 756 208T679 95T565 20T423 -8ZM423 29Q491 29
549 53T650 121T718 223T742 350Q742 418 718 476T651 577T549 645T423 669Q355 669 297 645T196 578T128 476T104 350Q104 282 128 224T196 122T297 54T423 29ZM553 152Q518 152 495 169T455 212T426 262T396 305T355 323V156H294V547H413Q476 547 512 517T549
434Q549 391 518 361T436 325Q456 314 470 294T497 254T525 219T562 205Q579 205 595 214L609 167Q588 152 553 152ZM409 501H355V365H394Q487 365 487 434Q487 465 466 483T409 501Z" />
<glyph unicode="&#xaf;" glyph-name="overscore" horiz-adv-x="626" d="M191 653H495L485 600H182L191 653Z" />
<glyph unicode="&#xb0;" glyph-name="degree" horiz-adv-x="365" d="M241 430Q201 430 169 449T118 500T99 574Q99 615 118 647T169 698T241 717Q281 717 313 698T364 647T383 574Q383 533 364 501T313 449T241 430ZM241 477Q282 477 308 504T334 574Q334 616
308 643T241 671Q200 671 175 644T149 574Q149 531 174 504T241 477Z" />
<glyph unicode="&#xb1;" glyph-name="plusminus" horiz-adv-x="600" d="M311 497H377L350 344H511L501 281H339L311 127H246L273 281H111L122 344H284L311 497ZM22 0L34 63H501L490 0H22Z" />
<glyph unicode="&#xb2;" glyph-name="uni00B2" horiz-adv-x="330" d="M65 359Q121 397 171 440T254 527T286 614Q286 664 233 664Q173 664 140 596L98 617Q115 661 154 688T243 715Q289 715 318 691T348 621Q348 561 297 498T147 366H315L306 319H59L65 359Z" />
<glyph unicode="&#xb3;" glyph-name="uni00B3" horiz-adv-x="330" d="M164 314Q134 314 104 321T57 341L78 391Q114 366 169 366Q212 366 238 387T265 445Q265 497 190 497H161L168 541H196Q238 541 263 562T288 616Q288 639 274 651T236 664Q179 664 146 606L106
631Q126 670 164 692T247 715Q294 715 322 691T350 629Q350 593 327 563T269 520Q325 504 325 445Q325 409 305 379T248 332T164 314Z" />
<glyph unicode="&#xb4;" glyph-name="acute" horiz-adv-x="642" d="M304 573L449 750L527 728L376 573H304Z" />
<glyph unicode="&#xb5;" glyph-name="uni00B5" horiz-adv-x="561" d="M460 497H530L442 0H371L405 161Q363 73 310 33T197 -8Q165 -8 141 2T102 38L62 -200H-9L115 497H189L133 197Q107 60 208 60Q246 60 281 81T349 151T409 285T460 497Z" />
<glyph unicode="&#xb6;" glyph-name="paragraph" horiz-adv-x="621" d="M68 464Q68 545 106 600T213 683T373 711H473L348 0H272L324 288H301Q194 288 131 334T68 464ZM545 710H621L496 0H420L545 710Z" />
<glyph unicode="&#xb7;" glyph-name="middot" horiz-adv-x="188" d="M98 215Q74 215 59 230T44 269Q44 292 59 307T98 323Q123 323 137 308T152 269Q152 246 138 231T98 215Z" />
<glyph unicode="&#xb8;" glyph-name="cedilla" horiz-adv-x="618" d="M152 -223Q121 -223 99 -217T58 -200L80 -158Q97 -167 115 -172T156 -177Q183 -177 201 -166T220 -132Q220 -97 168 -97H126L204 18H259L211 -55Q244 -60 262 -78T281 -126Q281 -170 244 -196T152
-223Z" />
<glyph unicode="&#xb9;" glyph-name="uni00B9" horiz-adv-x="330" d="M81 366H169L215 625L139 579L116 624L256 710H290L229 366H313L306 319H74L81 366Z" />
<glyph unicode="&#xba;" glyph-name="ordmasculine" horiz-adv-x="332" d="M203 465Q151 465 122 494T92 574Q92 622 113 662T172 726T255 750Q307 750 337 720T367 641Q367 593 346 553T287 489T203 465ZM210 514Q241 514 263 532T297 578T309 636Q309 668 294
684T250 701Q220 701 198 683T162 638T149 578Q149 547 165 531T210 514Z" />
<glyph unicode="&#xbb;" glyph-name="guillemotright" horiz-adv-x="428" d="M129 436L224 268L219 238L65 70H-20L153 258L52 436H129ZM305 436L400 268L395 238L241 70H156L329 258L228 436H305Z" />
<glyph unicode="&#xbc;" glyph-name="onequarter" horiz-adv-x="797" d="M81 366H169L215 625L139 579L116 624L256 710H290L229 366H313L306 319H74L81 366ZM192 0L542 710H605L255 0H192ZM752 106H700L681 0H629L648 106H468L475 142L710 392H751L707 146H758L752
106ZM530 146H655L684 308L530 146Z" />
<glyph unicode="&#xbd;" glyph-name="onehalf" horiz-adv-x="797" d="M81 366H169L215 625L139 579L116 624L256 710H290L229 366H313L306 319H74L81 366ZM192 0L542 710H605L255 0H192ZM476 40Q532 78 582 121T665 208T697 295Q697 345 644 345Q584 345 551 277L509
298Q526 342 565 369T654 396Q700 396 729 372T759 302Q759 242 708 179T558 47H726L717 0H470L476 40Z" />
<glyph unicode="&#xbe;" glyph-name="threequarters" horiz-adv-x="797" d="M164 314Q134 314 104 321T57 341L78 391Q114 366 169 366Q212 366 238 387T265 445Q265 497 190 497H161L168 541H196Q238 541 263 562T288 616Q288 639 274 651T236 664Q179 664 146
606L106 631Q126 670 164 692T247 715Q294 715 322 691T350 629Q350 593 327 563T269 520Q325 504 325 445Q325 409 305 379T248 332T164 314ZM192 0L542 710H605L255 0H192ZM752 106H700L681 0H629L648 106H468L475 142L710 392H751L707 146H758L752 106ZM530
146H655L684 308L530 146Z" />
<glyph unicode="&#xbf;" glyph-name="questiondown" horiz-adv-x="511" d="M338 404Q315 404 301 418T287 455Q287 476 301 490T339 505Q361 505 375 491T390 455Q390 433 375 419T338 404ZM186 -212Q108 -212 59 -174T9 -69Q9 -20 29 17T85 88T171 158Q225 199
254 238T295 329L350 326Q343 280 328 244T285 176T211 109Q164 73 137 47T98 -4T86 -58Q86 -100 116 -122T197 -144Q325 -144 391 -7L449 -35Q413 -118 342 -165T186 -212Z" />
<glyph unicode="&#xc0;" glyph-name="Agrave" horiz-adv-x="674" d="M-32 0L390 710H456L613 0H539L499 190H161L51 0H-32ZM199 255H485L409 615L199 255ZM397 786L299 941L385 963L467 786H397Z" />
<glyph unicode="&#xc1;" glyph-name="Aacute" horiz-adv-x="674" d="M-32 0L390 710H456L613 0H539L499 190H161L51 0H-32ZM199 255H485L409 615L199 255ZM392 786L537 963L615 941L464 786H392Z" />
<glyph unicode="&#xc2;" glyph-name="Acircumflex" horiz-adv-x="674" d="M-32 0L390 710H456L613 0H539L499 190H161L51 0H-32ZM199 255H485L409 615L199 255ZM591 786H523L457 903L349 786H273L430 953H495L591 786Z" />
<glyph unicode="&#xc3;" glyph-name="Atilde" horiz-adv-x="674" d="M-32 0L390 710H456L613 0H539L499 190H161L51 0H-32ZM199 255H485L409 615L199 255ZM514 781Q495 781 475 790T434 812T395 834T360 843Q340 843 322 828T291 784L257 807Q274 851 303 876T370
901Q389 901 409 892T450 870T489 848T524 838Q544 838 562 854T593 898L627 875Q611 830 581 806T514 781Z" />
<glyph unicode="&#xc4;" glyph-name="Adieresis" horiz-adv-x="674" d="M-32 0L390 710H456L613 0H539L499 190H161L51 0H-32ZM199 255H485L409 615L199 255ZM525 781Q503 781 490 794T477 827Q477 845 490 858T525 872Q547 872 559 859T572 827Q572 808 560 795T525
781ZM354 781Q332 781 319 794T306 827Q306 845 319 858T354 872Q375 872 387 859T400 827Q400 808 388 795T354 781Z" />
<glyph unicode="&#xc5;" glyph-name="Aring" horiz-adv-x="674" d="M-32 0L390 710H456L613 0H539L499 190H161L51 0H-32ZM199 255H485L409 615L199 255ZM448 781Q404 781 375 809T345 880Q345 923 376 952T452 982Q496 982 525 954T554 884Q554 840 524 811T448
781ZM449 818Q477 818 495 836T513 884Q513 911 496 927T451 944Q422 944 404 926T386 880Q386 853 404 836T449 818Z" />
<glyph unicode="&#xc6;" glyph-name="AE" horiz-adv-x="896" d="M-32 0L389 710H929L917 644H592L548 394H864L852 328H536L490 66H830L811 0H402L436 190H161L51 0H-32ZM199 255H447L516 644H425L199 255Z" />
<glyph unicode="&#xc7;" glyph-name="Ccedilla" horiz-adv-x="648" d="M624 136Q575 65 503 29T347 -8Q212 -8 140 63T68 261Q68 352 97 434T181 581T309 683T472 720Q554 720 615 686T702 586L638 544Q617 596 575 622T467 649Q395 649 336 618T234 532T169 408T146
264Q146 167 197 115T351 63Q418 63 475 92T574 181L624 136ZM282 -223Q251 -223 229 -217T188 -200L210 -158Q227 -167 245 -172T286 -177Q313 -177 331 -166T350 -132Q350 -97 298 -97H256L334 18H389L341 -55Q374 -60 392 -78T411 -126Q411 -170 374 -196T282
-223Z" />
<glyph unicode="&#xc8;" glyph-name="Egrave" horiz-adv-x="542" d="M126 66H476L457 0H38L163 710H575L563 644H227L183 394H510L498 328H172L126 66ZM348 786L250 941L336 963L418 786H348Z" />
<glyph unicode="&#xc9;" glyph-name="Eacute" horiz-adv-x="542" d="M126 66H476L457 0H38L163 710H575L563 644H227L183 394H510L498 328H172L126 66ZM342 786L487 963L565 941L414 786H342Z" />
<glyph unicode="&#xca;" glyph-name="Ecircumflex" horiz-adv-x="542" d="M126 66H476L457 0H38L163 710H575L563 644H227L183 394H510L498 328H172L126 66ZM542 786H474L408 903L300 786H224L381 953H446L542 786Z" />
<glyph unicode="&#xcb;" glyph-name="Edieresis" horiz-adv-x="542" d="M126 66H476L457 0H38L163 710H575L563 644H227L183 394H510L498 328H172L126 66ZM476 781Q454 781 441 794T428 827Q428 845 441 858T476 872Q498 872 510 859T523 827Q523 808 511 795T476
781ZM305 781Q283 781 270 794T257 827Q257 845 270 858T305 872Q326 872 338 859T351 827Q351 808 339 795T305 781Z" />
<glyph unicode="&#xcc;" glyph-name="Igrave" horiz-adv-x="241" d="M38 0L163 710H241L116 0H38ZM180 786L82 941L168 963L250 786H180Z" />
<glyph unicode="&#xcd;" glyph-name="Iacute" horiz-adv-x="241" d="M38 0L163 710H241L116 0H38ZM175 786L320 963L398 941L247 786H175Z" />
<glyph unicode="&#xce;" glyph-name="Icircumflex" horiz-adv-x="241" d="M38 0L163 710H241L116 0H38ZM630 786H562L496 903L388 786H312L469 953H534L630 786Z" />
<glyph unicode="&#xcf;" glyph-name="Idieresis" horiz-adv-x="241" d="M38 0L163 710H241L116 0H38ZM308 781Q286 781 273 794T260 827Q260 845 273 858T308 872Q330 872 342 859T355 827Q355 808 343 795T308 781ZM137 781Q115 781 102 794T89 827Q89 845 102
858T137 872Q158 872 170 859T183 827Q183 808 171 795T137 781Z" />
<glyph unicode="&#xd0;" glyph-name="Eth" horiz-adv-x="733" d="M38 0L163 710H343Q516 710 608 640T700 432Q700 301 646 204T493 54T265 0H38ZM128 68H269Q378 68 457 112T579 238T622 429Q622 536 553 589T340 642H228L128 68ZM21 332L31 388H395L384 332H21Z" />
<glyph unicode="&#xd1;" glyph-name="Ntilde" horiz-adv-x="717" d="M642 710H716L591 0H525L214 586L112 0H38L163 710H229L540 124L642 710ZM536 781Q517 781 497 790T456 812T417 834T382 843Q362 843 344 828T313 784L279 807Q296 851 325 876T392 901Q411
901 431 892T472 870T511 848T546 838Q566 838 584 854T615 898L649 875Q633 830 603 806T536 781Z" />
<glyph unicode="&#xd2;" glyph-name="Ograve" horiz-adv-x="769" d="M343 -8Q211 -8 140 63T68 261Q68 351 97 434T181 581T309 683T472 720Q555 720 614 686T706 590T738 444Q738 354 710 273T628 129T503 29T343 -8ZM347 63Q419 63 476 94T575 180T637 302T659
444Q659 540 610 594T469 649Q396 649 337 617T235 531T169 408T146 264Q146 167 197 115T347 63ZM443 786L345 941L431 963L513 786H443Z" />
<glyph unicode="&#xd3;" glyph-name="Oacute" horiz-adv-x="769" d="M343 -8Q211 -8 140 63T68 261Q68 351 97 434T181 581T309 683T472 720Q555 720 614 686T706 590T738 444Q738 354 710 273T628 129T503 29T343 -8ZM347 63Q419 63 476 94T575 180T637 302T659
444Q659 540 610 594T469 649Q396 649 337 617T235 531T169 408T146 264Q146 167 197 115T347 63ZM437 786L582 963L660 941L509 786H437Z" />
<glyph unicode="&#xd4;" glyph-name="Ocircumflex" horiz-adv-x="769" d="M343 -8Q211 -8 140 63T68 261Q68 351 97 434T181 581T309 683T472 720Q555 720 614 686T706 590T738 444Q738 354 710 273T628 129T503 29T343 -8ZM347 63Q419 63 476 94T575 180T637
302T659 444Q659 540 610 594T469 649Q396 649 337 617T235 531T169 408T146 264Q146 167 197 115T347 63ZM637 786H569L503 903L395 786H319L476 953H541L637 786Z" />
<glyph unicode="&#xd5;" glyph-name="Otilde" horiz-adv-x="769" d="M343 -8Q211 -8 140 63T68 261Q68 351 97 434T181 581T309 683T472 720Q555 720 614 686T706 590T738 444Q738 354 710 273T628 129T503 29T343 -8ZM347 63Q419 63 476 94T575 180T637 302T659
444Q659 540 610 594T469 649Q396 649 337 617T235 531T169 408T146 264Q146 167 197 115T347 63ZM560 781Q541 781 521 790T480 812T441 834T406 843Q386 843 368 828T337 784L303 807Q320 851 349 876T416 901Q435 901 455 892T496 870T535 848T570 838Q590 838
608 854T639 898L673 875Q657 830 627 806T560 781Z" />
<glyph unicode="&#xd6;" glyph-name="Odieresis" horiz-adv-x="769" d="M343 -8Q211 -8 140 63T68 261Q68 351 97 434T181 581T309 683T472 720Q555 720 614 686T706 590T738 444Q738 354 710 273T628 129T503 29T343 -8ZM347 63Q419 63 476 94T575 180T637 302T659
444Q659 540 610 594T469 649Q396 649 337 617T235 531T169 408T146 264Q146 167 197 115T347 63ZM571 781Q549 781 536 794T523 827Q523 845 536 858T571 872Q593 872 605 859T618 827Q618 808 606 795T571 781ZM400 781Q378 781 365 794T352 827Q352 845 365
858T400 872Q421 872 433 859T446 827Q446 808 434 795T400 781Z" />
<glyph unicode="&#xd7;" glyph-name="multiply" horiz-adv-x="600" d="M158 59L111 107L252 249L111 390L158 438L300 296L442 438L489 390L348 249L489 107L442 59L300 201L158 59Z" />
<glyph unicode="&#xd8;" glyph-name="Oslash" horiz-adv-x="769" d="M343 -8Q211 -8 140 63T68 261Q68 351 97 434T181 581T309 683T472 720Q555 720 614 686T706 590T738 444Q738 354 710 273T628 129T503 29T343 -8ZM347 63Q419 63 476 94T575 180T637 302T659
444Q659 540 610 594T469 649Q396 649 337 617T235 531T169 408T146 264Q146 167 197 115T347 63ZM116 14L72 55L690 696L734 655L116 14Z" />
<glyph unicode="&#xd9;" glyph-name="Ugrave" horiz-adv-x="722" d="M646 710H723L659 341Q628 159 549 76T327 -8Q185 -8 124 72T89 303L161 710H240L169 307Q146 184 186 124T330 63Q403 63 453 91T534 180T582 342L646 710ZM421 786L323 941L409 963L491 786H421Z" />
<glyph unicode="&#xda;" glyph-name="Uacute" horiz-adv-x="722" d="M646 710H723L659 341Q628 159 549 76T327 -8Q185 -8 124 72T89 303L161 710H240L169 307Q146 184 186 124T330 63Q403 63 453 91T534 180T582 342L646 710ZM416 786L561 963L639 941L488 786H416Z" />
<glyph unicode="&#xdb;" glyph-name="Ucircumflex" horiz-adv-x="722" d="M646 710H723L659 341Q628 159 549 76T327 -8Q185 -8 124 72T89 303L161 710H240L169 307Q146 184 186 124T330 63Q403 63 453 91T534 180T582 342L646 710ZM615 786H547L481 903L373 786H297L454
953H519L615 786Z" />
<glyph unicode="&#xdc;" glyph-name="Udieresis" horiz-adv-x="722" d="M646 710H723L659 341Q628 159 549 76T327 -8Q185 -8 124 72T89 303L161 710H240L169 307Q146 184 186 124T330 63Q403 63 453 91T534 180T582 342L646 710ZM549 781Q527 781 514 794T501
827Q501 845 514 858T549 872Q571 872 583 859T596 827Q596 808 584 795T549 781ZM378 781Q356 781 343 794T330 827Q330 845 343 858T378 872Q399 872 411 859T424 827Q424 808 412 795T378 781Z" />
<glyph unicode="&#xdd;" glyph-name="Yacute" horiz-adv-x="548" d="M650 710L325 320L268 0H191L248 322L58 710H141L297 390L565 710H650ZM330 786L475 963L553 941L402 786H330Z" />
<glyph unicode="&#xde;" glyph-name="Thorn" horiz-adv-x="605" d="M38 0L163 711L239 710L218 592H364Q475 592 537 548T600 418Q600 333 560 278T449 196T283 168H143L114 0H38ZM355 528H207L155 233H289Q397 233 461 273T525 414Q525 472 482 500T355 528Z" />
<glyph unicode="&#xdf;" glyph-name="germandbls" horiz-adv-x="640" d="M410 -8Q323 -8 274 32T230 141L298 155Q296 107 324 81T408 54Q467 54 498 75T530 137Q530 162 514 177T471 204T415 226T359 251T316 288T299 346Q299 391 320 422T372 476T435 522T488
569T509 628Q509 657 484 673T415 690Q334 690 281 638T211 491L124 0H52L128 435H30L40 497H139Q163 616 236 683T417 750Q490 750 532 720T574 635Q574 591 553 560T502 504T441 460T390 416T369 362Q369 337 386 322T429 295T486 272T542 246T586 208T603 149Q603
103 578 68T510 13T410 -8Z" />
<glyph unicode="&#xe0;" glyph-name="agrave" horiz-adv-x="576" d="M212 -8Q134 -8 90 38T45 170Q45 240 67 301T129 408T222 480T338 506Q380 506 419 492T479 456L497 497H551Q539 445 531 404T516 326L488 169Q480 122 475 74T470 0H398Q398 32 402 64T413
129Q376 59 325 26T212 -8ZM223 60Q276 60 320 89T395 172T438 296L456 396Q413 440 338 440Q287 440 247 418T178 358T136 273T121 176Q121 120 147 90T223 60ZM331 573L233 728L319 750L401 573H331Z" />
<glyph unicode="&#xe1;" glyph-name="aacute" horiz-adv-x="576" d="M212 -8Q134 -8 90 38T45 170Q45 240 67 301T129 408T222 480T338 506Q380 506 419 492T479 456L497 497H551Q539 445 531 404T516 326L488 169Q480 122 475 74T470 0H398Q398 32 402 64T413
129Q376 59 325 26T212 -8ZM223 60Q276 60 320 89T395 172T438 296L456 396Q413 440 338 440Q287 440 247 418T178 358T136 273T121 176Q121 120 147 90T223 60ZM326 573L471 750L549 728L398 573H326Z" />
<glyph unicode="&#xe2;" glyph-name="acircumflex" horiz-adv-x="576" d="M212 -8Q134 -8 90 38T45 170Q45 240 67 301T129 408T222 480T338 506Q380 506 419 492T479 456L497 497H551Q539 445 531 404T516 326L488 169Q480 122 475 74T470 0H398Q398 32 402 64T413
129Q376 59 325 26T212 -8ZM223 60Q276 60 320 89T395 172T438 296L456 396Q413 440 338 440Q287 440 247 418T178 358T136 273T121 176Q121 120 147 90T223 60ZM525 573H457L391 690L283 573H207L364 740H429L525 573Z" />
<glyph unicode="&#xe3;" glyph-name="atilde" horiz-adv-x="576" d="M212 -8Q134 -8 90 38T45 170Q45 240 67 301T129 408T222 480T338 506Q380 506 419 492T479 456L497 497H551Q539 445 531 404T516 326L488 169Q480 122 475 74T470 0H398Q398 32 402 64T413
129Q376 59 325 26T212 -8ZM223 60Q276 60 320 89T395 172T438 296L456 396Q413 440 338 440Q287 440 247 418T178 358T136 273T121 176Q121 120 147 90T223 60ZM448 568Q429 568 409 577T368 599T329 621T294 631Q274 631 256 615T225 571L191 594Q208 638 237
663T304 688Q323 688 343 679T384 657T423 635T458 625Q478 625 496 641T527 685L561 662Q545 618 515 593T448 568Z" />
<glyph unicode="&#xe4;" glyph-name="adieresis" horiz-adv-x="576" d="M212 -8Q134 -8 90 38T45 170Q45 240 67 301T129 408T222 480T338 506Q380 506 419 492T479 456L497 497H551Q539 445 531 404T516 326L488 169Q480 122 475 74T470 0H398Q398 32 402 64T413
129Q376 59 325 26T212 -8ZM223 60Q276 60 320 89T395 172T438 296L456 396Q413 440 338 440Q287 440 247 418T178 358T136 273T121 176Q121 120 147 90T223 60ZM459 568Q437 568 424 581T411 614Q411 632 424 645T459 659Q481 659 493 646T506 614Q506 595 494
582T459 568ZM288 568Q266 568 253 581T240 614Q240 632 253 645T288 659Q309 659 321 646T334 614Q334 595 322 582T288 568Z" />
<glyph unicode="&#xe5;" glyph-name="aring" horiz-adv-x="576" d="M212 -8Q134 -8 90 38T45 170Q45 240 67 301T129 408T222 480T338 506Q380 506 419 492T479 456L497 497H551Q539 445 531 404T516 326L488 169Q480 122 475 74T470 0H398Q398 32 402 64T413
129Q376 59 325 26T212 -8ZM223 60Q276 60 320 89T395 172T438 296L456 396Q413 440 338 440Q287 440 247 418T178 358T136 273T121 176Q121 120 147 90T223 60ZM382 568Q338 568 309 596T279 667Q279 710 310 739T386 769Q430 769 459 742T488 671Q488 627 458
598T382 568ZM383 606Q411 606 429 624T447 671Q447 698 430 715T385 732Q356 732 338 714T320 667Q320 640 338 623T383 606Z" />
<glyph unicode="&#xe6;" glyph-name="ae" horiz-adv-x="864" d="M188 -8Q113 -8 69 27T24 120Q24 194 80 238T231 282H390L394 306Q417 443 295 443Q238 443 199 415T140 334L74 346Q100 421 161 463T306 506Q368 506 407 479T459 401Q494 451 548 478T663 506Q745
506 787 467T830 371Q830 331 814 298T761 244T666 223H455Q446 143 485 102T599 60Q639 60 681 77T752 130L791 84Q752 35 702 14T591 -8Q511 -8 464 27T401 114Q369 56 312 24T188 -8ZM656 447Q604 447 565 424T501 364T465 282H662Q712 282 737 305T763 367Q763
401 738 424T656 447ZM198 53Q266 53 315 98T378 218L379 222H228Q167 222 134 197T100 127Q100 92 125 73T198 53Z" />
<glyph unicode="&#xe7;" glyph-name="ccedilla" horiz-adv-x="487" d="M244 -8Q152 -8 100 43T47 182Q47 243 66 300T121 404T211 478T332 506Q395 506 436 482T502 410L442 369Q411 439 330 439Q264 439 217 404T146 311T121 189Q121 128 154 94T255 60Q296 60
333 77T400 131L447 88Q407 39 356 16T244 -8ZM177 -223Q146 -223 124 -217T83 -200L105 -158Q122 -167 140 -172T181 -177Q208 -177 226 -166T245 -132Q245 -97 193 -97H151L229 18H284L236 -55Q269 -60 287 -78T306 -126Q306 -170 269 -196T177 -223Z" />
<glyph unicode="&#xe8;" glyph-name="egrave" horiz-adv-x="535" d="M262 -8Q166 -8 108 43T49 193Q49 255 68 311T125 412T214 481T333 506Q416 506 459 467T502 371Q502 331 485 298T428 244T321 219L123 210Q118 136 157 98T270 60Q311 60 352 77T423 130L463
84Q424 35 373 14T262 -8ZM326 447Q271 447 230 422T165 357T132 271L317 280Q385 283 410 307T435 367Q435 401 409 424T326 447ZM311 573L213 728L299 750L381 573H311Z" />
<glyph unicode="&#xe9;" glyph-name="eacute" horiz-adv-x="535" d="M262 -8Q166 -8 108 43T49 193Q49 255 68 311T125 412T214 481T333 506Q416 506 459 467T502 371Q502 331 485 298T428 244T321 219L123 210Q118 136 157 98T270 60Q311 60 352 77T423 130L463
84Q424 35 373 14T262 -8ZM326 447Q271 447 230 422T165 357T132 271L317 280Q385 283 410 307T435 367Q435 401 409 424T326 447ZM305 573L450 750L528 728L377 573H305Z" />
<glyph unicode="&#xea;" glyph-name="ecircumflex" horiz-adv-x="535" d="M262 -8Q166 -8 108 43T49 193Q49 255 68 311T125 412T214 481T333 506Q416 506 459 467T502 371Q502 331 485 298T428 244T321 219L123 210Q118 136 157 98T270 60Q311 60 352 77T423
130L463 84Q424 35 373 14T262 -8ZM326 447Q271 447 230 422T165 357T132 271L317 280Q385 283 410 307T435 367Q435 401 409 424T326 447ZM505 573H437L371 690L263 573H187L344 740H409L505 573Z" />
<glyph unicode="&#xeb;" glyph-name="edieresis" horiz-adv-x="535" d="M262 -8Q166 -8 108 43T49 193Q49 255 68 311T125 412T214 481T333 506Q416 506 459 467T502 371Q502 331 485 298T428 244T321 219L123 210Q118 136 157 98T270 60Q311 60 352 77T423 130L463
84Q424 35 373 14T262 -8ZM326 447Q271 447 230 422T165 357T132 271L317 280Q385 283 410 307T435 367Q435 401 409 424T326 447ZM695 568Q673 568 660 581T647 614Q647 632 660 645T695 659Q717 659 729 646T742 614Q742 595 730 582T695 568ZM524 568Q502 568
489 581T476 614Q476 632 489 645T524 659Q545 659 557 646T570 614Q570 595 558 582T524 568Z" />
<glyph unicode="&#xec;" glyph-name="igrave" horiz-adv-x="222" d="M40 0Q40 32 44 63T53 126L88 324Q96 368 102 411T111 497H185Q182 454 174 405T160 322L126 131Q114 65 114 0H40ZM126 573L28 728L114 750L196 573H126Z" />
<glyph unicode="&#xed;" glyph-name="iacute" horiz-adv-x="222" d="M40 0Q40 32 44 63T53 126L88 324Q96 368 102 411T111 497H185Q182 454 174 405T160 322L126 131Q114 65 114 0H40ZM121 573L266 750L344 728L193 573H121Z" />
<glyph unicode="&#xee;" glyph-name="icircumflex" horiz-adv-x="222" d="M40 0Q40 32 44 63T53 126L88 324Q96 368 102 411T111 497H185Q182 454 174 405T160 322L126 131Q114 65 114 0H40ZM320 573H252L186 690L78 573H2L159 740H224L320 573Z" />
<glyph unicode="&#xef;" glyph-name="idieresis" horiz-adv-x="222" d="M40 0Q40 32 44 63T53 126L88 324Q96 368 102 411T111 497H185Q182 454 174 405T160 322L126 131Q114 65 114 0H40ZM254 568Q232 568 219 581T206 614Q206 632 219 645T254 659Q276 659 288
646T301 614Q301 595 289 582T254 568ZM83 568Q61 568 48 581T35 614Q35 632 48 645T83 659Q104 659 116 646T129 614Q129 595 117 582T83 568Z" />
<glyph unicode="&#xf0;" glyph-name="eth" horiz-adv-x="553" d="M233 -8Q143 -8 94 42T44 176Q44 235 64 287T120 381T205 446T312 470Q360 470 396 450T449 391Q453 515 388 595L209 528L192 574L351 633Q305 671 238 696L271 752Q365 716 423 659L544 704L561
659L457 620Q520 533 520 400Q520 318 502 245T447 114T357 25T233 -8ZM241 59Q298 59 340 91T406 175T430 286Q430 342 399 373T312 405Q254 405 211 374T144 291T120 182Q120 125 150 92T241 59Z" />
<glyph unicode="&#xf1;" glyph-name="ntilde" horiz-adv-x="571" d="M31 0L88 324Q96 368 102 411T111 497H182Q180 460 173 415T153 319Q193 410 252 458T385 506Q461 506 497 456T511 300L476 132Q469 99 466 66T463 0H389Q389 64 402 126L437 292Q453 369 433
403T360 438Q308 438 260 397T171 259T103 0H31ZM681 568Q662 568 642 577T601 599T562 621T527 631Q507 631 489 615T458 571L424 594Q441 638 470 663T537 688Q556 688 576 679T617 657T656 635T691 625Q711 625 729 641T760 685L794 662Q778 618 748 593T681
568Z" />
<glyph unicode="&#xf2;" glyph-name="ograve" horiz-adv-x="567" d="M331 506Q417 506 468 456T519 315Q519 246 498 188T438 85T349 17T239 -8Q151 -8 99 41T47 182Q47 243 66 300T121 404T210 478T331 506ZM245 59Q307 59 352 95T421 189T445 311Q445 374 413
407T324 440Q261 440 216 404T146 311T121 189Q121 126 153 93T245 59ZM562 573L464 728L550 750L632 573H562Z" />
<glyph unicode="&#xf3;" glyph-name="oacute" horiz-adv-x="567" d="M331 506Q417 506 468 456T519 315Q519 246 498 188T438 85T349 17T239 -8Q151 -8 99 41T47 182Q47 243 66 300T121 404T210 478T331 506ZM245 59Q307 59 352 95T421 189T445 311Q445 374 413
407T324 440Q261 440 216 404T146 311T121 189Q121 126 153 93T245 59ZM557 573L702 750L780 728L629 573H557Z" />
<glyph unicode="&#xf4;" glyph-name="ocircumflex" horiz-adv-x="567" d="M331 506Q417 506 468 456T519 315Q519 246 498 188T438 85T349 17T239 -8Q151 -8 99 41T47 182Q47 243 66 300T121 404T210 478T331 506ZM245 59Q307 59 352 95T421 189T445 311Q445 374
413 407T324 440Q261 440 216 404T146 311T121 189Q121 126 153 93T245 59ZM500 573H432L366 690L258 573H182L339 740H404L500 573Z" />
<glyph unicode="&#xf5;" glyph-name="otilde" horiz-adv-x="567" d="M331 506Q417 506 468 456T519 315Q519 246 498 188T438 85T349 17T239 -8Q151 -8 99 41T47 182Q47 243 66 300T121 404T210 478T331 506ZM245 59Q307 59 352 95T421 189T445 311Q445 374 413
407T324 440Q261 440 216 404T146 311T121 189Q121 126 153 93T245 59ZM679 568Q660 568 640 577T599 599T560 621T525 631Q505 631 487 615T456 571L422 594Q439 638 468 663T535 688Q554 688 574 679T615 657T654 635T689 625Q709 625 727 641T758 685L792 662Q776
618 746 593T679 568Z" />
<glyph unicode="&#xf6;" glyph-name="odieresis" horiz-adv-x="567" d="M331 506Q417 506 468 456T519 315Q519 246 498 188T438 85T349 17T239 -8Q151 -8 99 41T47 182Q47 243 66 300T121 404T210 478T331 506ZM245 59Q307 59 352 95T421 189T445 311Q445 374
413 407T324 440Q261 440 216 404T146 311T121 189Q121 126 153 93T245 59ZM690 568Q668 568 655 581T642 614Q642 632 655 645T690 659Q712 659 724 646T737 614Q737 595 725 582T690 568ZM519 568Q497 568 484 581T471 614Q471 632 484 645T519 659Q540 659 552
646T565 614Q565 595 553 582T519 568Z" />
<glyph unicode="&#xf7;" glyph-name="divide" horiz-adv-x="600" d="M338 426Q319 426 308 438T296 467Q296 484 307 495T338 507Q358 507 369 496T381 467Q381 450 370 438T338 426ZM550 281L539 218H50L61 281H550ZM262 -8Q242 -8 231 4T219 33Q219 50 230 61T262
73Q282 73 293 62T304 33Q304 16 293 4T262 -8Z" />
<glyph unicode="&#xf8;" glyph-name="oslash" horiz-adv-x="567" d="M331 506Q417 506 468 456T519 315Q519 246 498 188T438 85T349 17T239 -8Q151 -8 99 41T47 182Q47 243 66 300T121 404T210 478T331 506ZM245 59Q307 59 352 95T421 189T445 311Q445 374 413
407T324 440Q261 440 216 404T146 311T121 189Q121 126 153 93T245 59ZM336 -3L295 34L352 93L386 125L662 410L687 441L744 500L785 464L728 405L694 372L418 88L393 56L336 -3Z" />
<glyph unicode="&#xf9;" glyph-name="ugrave" horiz-adv-x="561" d="M181 -8Q109 -8 75 42T60 197L83 324Q92 368 97 411T106 497H180Q177 454 170 405T156 322L132 197Q119 127 138 94T209 60Q259 60 305 102T392 239T460 497H530L472 169Q464 122 459 74T454
0H382Q382 34 387 73T406 170Q367 84 310 38T181 -8ZM559 573L461 728L547 750L629 573H559Z" />
<glyph unicode="&#xfa;" glyph-name="uacute" horiz-adv-x="561" d="M181 -8Q109 -8 75 42T60 197L83 324Q92 368 97 411T106 497H180Q177 454 170 405T156 322L132 197Q119 127 138 94T209 60Q259 60 305 102T392 239T460 497H530L472 169Q464 122 459 74T454
0H382Q382 34 387 73T406 170Q367 84 310 38T181 -8ZM553 573L698 750L776 728L625 573H553Z" />
<glyph unicode="&#xfb;" glyph-name="ucircumflex" horiz-adv-x="561" d="M181 -8Q109 -8 75 42T60 197L83 324Q92 368 97 411T106 497H180Q177 454 170 405T156 322L132 197Q119 127 138 94T209 60Q259 60 305 102T392 239T460 497H530L472 169Q464 122 459 74T454
0H382Q382 34 387 73T406 170Q367 84 310 38T181 -8ZM497 573H429L363 690L255 573H179L336 740H401L497 573Z" />
<glyph unicode="&#xfc;" glyph-name="udieresis" horiz-adv-x="561" d="M181 -8Q109 -8 75 42T60 197L83 324Q92 368 97 411T106 497H180Q177 454 170 405T156 322L132 197Q119 127 138 94T209 60Q259 60 305 102T392 239T460 497H530L472 169Q464 122 459 74T454
0H382Q382 34 387 73T406 170Q367 84 310 38T181 -8ZM687 568Q665 568 652 581T639 614Q639 632 652 645T687 659Q709 659 721 646T734 614Q734 595 722 582T687 568ZM516 568Q494 568 481 581T468 614Q468 632 481 645T516 659Q537 659 549 646T562 614Q562 595
550 582T516 568Z" />
<glyph unicode="&#xfd;" glyph-name="yacute" horiz-adv-x="566" d="M170 -210Q127 -210 84 -202T13 -175L34 -110Q63 -126 100 -134T173 -143Q269 -143 318 -96T388 56L411 172Q366 81 309 41T191 1Q115 1 79 53T60 197L83 324Q91 366 97 410T106 497H180Q177
454 170 405T156 322L134 206Q121 141 139 106T211 70Q263 70 310 110T397 243T464 497H534L459 67Q433 -79 364 -144T170 -210ZM555 573L700 750L778 728L627 573H555Z" />
<glyph unicode="&#xfe;" glyph-name="thorn" horiz-adv-x="576" d="M67 -200H-6L160 740H233L190 498L165 375Q202 442 253 474T364 506Q442 506 486 460T530 329Q530 259 508 198T446 91T353 18T237 -8Q200 -8 165 3T107 34L102 0L67 -200ZM352 439Q300 439 256
409T180 326T137 202L120 103Q163 59 238 59Q289 59 329 81T397 140T439 225T454 323Q454 379 428 409T352 439Z" />
<glyph unicode="&#xff;" glyph-name="ydieresis" horiz-adv-x="566" d="M170 -210Q127 -210 84 -202T13 -175L34 -110Q63 -126 100 -134T173 -143Q269 -143 318 -96T388 56L411 172Q366 81 309 41T191 1Q115 1 79 53T60 197L83 324Q91 366 97 410T106 497H180Q177
454 170 405T156 322L134 206Q121 141 139 106T211 70Q263 70 310 110T397 243T464 497H534L459 67Q433 -79 364 -144T170 -210ZM689 568Q667 568 654 581T641 614Q641 632 654 645T689 659Q711 659 723 646T736 614Q736 595 724 582T689 568ZM518 568Q496 568
483 581T470 614Q470 632 483 645T518 659Q539 659 551 646T564 614Q564 595 552 582T518 568Z" />
<glyph unicode="&#x2013;" glyph-name="endash" horiz-adv-x="500" d="M15 226L27 288H487L475 226H15Z" />
<glyph unicode="&#x2014;" glyph-name="emdash" horiz-adv-x="1000" d="M15 226L27 288H987L975 226H15Z" />
<glyph unicode="&#x2018;" glyph-name="quoteleft" horiz-adv-x="188" d="M235 750Q222 728 211 701T200 652Q200 637 203 624T206 597Q206 570 192 553T148 536Q127 536 115 547T102 583Q102 602 115 632T149 693T196 750H235Z" />
<glyph unicode="&#x2019;" glyph-name="quoteright" horiz-adv-x="188" d="M93 536Q106 558 116 585T127 634Q127 648 125 661T122 688Q122 716 136 733T180 750Q200 750 212 739T225 703Q225 683 212 654T178 593T132 536H93Z" />
<glyph unicode="&#x201a;" glyph-name="quotesinglbase" horiz-adv-x="178" d="M-27 -114Q-14 -92 -4 -65T7 -16Q7 -2 5 11T2 38Q2 66 16 83T60 100Q80 100 92 89T105 53Q105 34 92 4T58 -57T12 -114H-27Z" />
<glyph unicode="&#x201c;" glyph-name="quotedblleft" horiz-adv-x="326" d="M375 750Q362 728 351 701T340 652Q340 637 343 624T346 597Q346 570 332 553T288 536Q267 536 255 547T242 583Q242 602 255 632T289 693T336 750H375ZM236 750Q223 728 212 701T201
652Q201 637 204 624T207 597Q207 570 193 553T149 536Q128 536 116 547T103 583Q103 602 116 632T150 693T197 750H236Z" />
<glyph unicode="&#x201d;" glyph-name="quotedblright" horiz-adv-x="326" d="M232 536Q245 558 255 585T266 634Q266 648 264 661T261 688Q261 716 275 733T319 750Q339 750 351 739T364 703Q364 683 351 654T317 593T271 536H232ZM93 536Q106 558 116 585T127
634Q127 648 125 661T122 688Q122 716 136 733T180 750Q200 750 212 739T225 703Q225 683 212 654T178 593T132 536H93Z" />
<glyph unicode="&#x201e;" glyph-name="quotedblbase" horiz-adv-x="321" d="M111 -114Q124 -92 134 -65T145 -16Q145 -2 143 11T140 38Q140 66 154 83T198 100Q218 100 230 89T243 53Q243 34 230 4T196 -57T150 -114H111ZM-22 -114Q-9 -92 1 -65T12 -16Q12 -2
10 11T7 38Q7 66 21 83T65 100Q85 100 97 89T110 53Q110 34 97 4T63 -57T17 -114H-22Z" />
<glyph unicode="&#x2022;" glyph-name="bullet" horiz-adv-x="452" d="M227 85Q179 85 141 107T80 168T57 256Q57 305 79 344T140 405T227 427Q275 427 314 405T375 344T398 256Q398 207 376 169T314 108T227 85Z" />
<glyph unicode="&#x2039;" glyph-name="guilsinglleft" horiz-adv-x="252" d="M126 70L30 238L36 268L190 436H274L102 248L203 70H126Z" />
<glyph unicode="&#x203a;" glyph-name="guilsinglright" horiz-adv-x="252" d="M129 436L224 268L219 238L65 70H-20L153 258L52 436H129Z" />
</font>
</defs>
</svg>
