<?xml version="1.0" standalone="no"?>
<!DOCTYPE svg PUBLIC "-//W3C//DTD SVG 1.1//EN" "http://www.w3.org/Graphics/SVG/1.1/DTD/svg11.dtd">
<svg xmlns="http://www.w3.org/2000/svg">
<defs >
<font id="Livvic" horiz-adv-x="546" ><font-face
    font-family="Livvic Light"
    units-per-em="1000"
    panose-1="0 0 0 0 0 0 0 0 0 0"
    ascent="1005"
    descent="-250"
    alphabetic="0" />
<glyph unicode=" " glyph-name="space" horiz-adv-x="223" />
<glyph unicode="!" glyph-name="exclam" horiz-adv-x="170" d="M50 156L148 740H210L87 156H50ZM47 -8Q30 -8 19 4T7 33Q7 51 18 62T47 74Q65 74 76 63T88 33Q88 16 77 4T47 -8Z" />
<glyph unicode="&quot;" glyph-name="quotedbl" horiz-adv-x="314" d="M127 496L155 710H213L165 496H127ZM236 496L264 710H322L274 496H236Z" />
<glyph unicode="#" glyph-name="numbersign" horiz-adv-x="600" d="M47 0L128 209H18L37 259H147L220 450H111L130 500H240L321 710H374L293 500H458L539 710H592L511 500H621L602 450H492L418 259H528L508 209H399L318 0H265L346 209H181L100 0H47ZM200 259H365L438
450H274L200 259Z" />
<glyph unicode="$" glyph-name="dollar" horiz-adv-x="600" d="M213 -120L234 -5Q146 5 101 59T61 210L116 217Q115 124 154 84T283 44Q334 44 375 62T440 116T464 201Q464 238 447 259T401 293T338 315T271 334T209 363T163 412T145 493Q145 558 174 607T252
685T362 719L381 830H424L404 719Q482 713 523 665T563 532L512 524Q511 599 479 634T379 669Q329 669 290 648T227 587T203 497Q203 458 220 435T266 397T329 374T396 355T458 327T504 281T522 206Q522 140 489 92T400 18T278 -8L276 -7L256 -120H213Z" />
<glyph unicode="%" glyph-name="percent" horiz-adv-x="708" d="M257 429Q191 429 151 466T110 564Q110 632 154 675T268 719Q332 719 371 682T410 584Q410 540 390 505T336 450T257 429ZM74 0L617 710H671L128 0H74ZM258 469Q305 469 335 501T366 581Q366 626
339 652T267 679Q216 679 186 647T155 564Q155 522 182 496T258 469ZM482 -7Q416 -7 376 30T335 129Q335 196 379 239T493 283Q557 283 596 246T635 148Q635 105 615 70T561 14T482 -7ZM483 33Q530 33 560 65T591 146Q591 190 564 216T492 243Q441 243 411 211T380
129Q380 86 407 60T483 33Z" />
<glyph unicode="&amp;" glyph-name="ampersand" horiz-adv-x="765" d="M261 -8Q161 -8 106 38T50 163Q50 230 76 275T143 350T230 405L218 421Q194 455 183 485T172 548Q172 602 195 642T258 704T350 726Q408 726 442 694T477 605Q477 548 452 510T387 446T301
397L487 141Q520 180 545 233T587 355H472L479 400H750L743 355H634Q617 275 586 213T512 106Q539 70 562 56T618 42Q632 42 648 47T678 62L691 23Q673 8 653 2T607 -5Q567 -5 535 13T474 70Q427 31 373 12T261 -8ZM263 449L277 430Q318 450 352 473T408 527T429
602Q429 640 408 661T346 682Q293 682 259 646T225 554Q225 528 233 503T263 449ZM106 169Q106 107 148 73T264 39Q315 39 362 55T449 105L254 372Q215 350 181 324T127 260T106 169Z" />
<glyph unicode="&apos;" glyph-name="quotesingle" horiz-adv-x="205" d="M127 496L155 710H213L165 496H127Z" />
<glyph unicode="(" glyph-name="parenleft" horiz-adv-x="278" d="M193 -208Q128 -136 98 -48T68 140Q68 259 100 370T197 578T357 747L381 715Q320 668 273 603T193 460T144 301T127 137Q127 37 151 -44T223 -181L193 -208Z" />
<glyph unicode=")" glyph-name="parenright" horiz-adv-x="278" d="M-71 -208L-96 -176Q-34 -129 13 -64T92 79T142 238T159 402Q159 502 134 583T62 720L93 747Q157 675 187 587T218 399Q218 280 185 169T88 -39T-71 -208Z" />
<glyph unicode="*" glyph-name="asterisk" horiz-adv-x="458" d="M424 519Q453 500 441 479Q436 468 425 468T399 474Q379 485 359 502T300 546Q302 499 306 473T311 424Q311 389 286 389Q261 389 261 424Q261 447 265 473T272 546Q235 520 214 503T173 474Q143
457 131 479Q118 501 148 519Q168 530 193 539T259 568Q218 587 193 597T148 619Q119 637 131 658Q143 680 173 663Q193 652 214 635T272 592Q270 637 266 663T261 712Q261 728 267 738T286 748Q298 748 304 738T311 712Q311 690 307 664T300 592Q338 617 358 634T399
663Q429 680 441 658Q454 636 424 619Q404 608 379 598T313 568Q354 549 379 540T424 519Z" />
<glyph unicode="+" glyph-name="plus" horiz-adv-x="600" d="M53 222L62 273H279L318 495H369L330 273H546L538 222H321L282 0H231L270 222H53Z" />
<glyph unicode="," glyph-name="comma" horiz-adv-x="155" d="M-24 -100Q-13 -80 -5 -57T4 -14Q4 -3 3 7T1 29Q1 78 45 78Q80 78 80 41Q80 25 70 0T43 -52T6 -100H-24Z" />
<glyph unicode="-" glyph-name="hyphen" horiz-adv-x="383" d="M57 228L66 278H329L320 228H57Z" />
<glyph unicode="." glyph-name="period" horiz-adv-x="155" d="M40 -8Q21 -8 10 5T-2 35Q-2 53 10 65T40 78Q60 78 71 66T82 35Q82 18 71 5T40 -8Z" />
<glyph unicode="/" glyph-name="slash" horiz-adv-x="298" d="M-79 -200L335 740H392L-22 -200H-79Z" />
<glyph unicode="0" glyph-name="zero" horiz-adv-x="600" d="M258 -8Q167 -7 116 50T65 225Q65 295 79 366T119 500T185 613T275 691T388 720Q474 720 523 659T572 481Q572 413 559 343T520 210T456 98T369 21T258 -8ZM262 45Q312 45 353 72T424 144T475 247T506
364T517 479Q517 571 483 620T384 669Q333 669 292 642T218 569T165 466T132 347T121 229Q121 136 158 91T262 45Z" />
<glyph unicode="1" glyph-name="one" horiz-adv-x="600" d="M89 0L98 47H257L359 627L191 526L169 571L399 710H430L313 47H468L459 0H89Z" />
<glyph unicode="2" glyph-name="two" horiz-adv-x="600" d="M63 0L69 37Q155 100 233 165T371 295T467 426T502 553Q502 608 469 638T378 669Q245 669 173 522L128 542Q164 621 229 670T382 720Q462 720 510 679T559 558Q559 491 526 424T434 291T303 165T150
47H491L483 0H63Z" />
<glyph unicode="3" glyph-name="three" horiz-adv-x="600" d="M240 -8Q178 -8 128 6T44 45L71 95Q102 71 144 58T245 44Q306 44 353 65T428 126T455 219Q455 278 414 307T308 337H269L278 387H299Q390 387 446 433T503 561Q503 611 470 640T379 669Q244 669 172
522L128 542Q163 622 228 671T384 720Q467 720 513 677T560 566Q560 495 518 441T407 364Q458 348 484 311T511 221Q511 150 475 99T378 20T240 -8Z" />
<glyph unicode="4" glyph-name="four" horiz-adv-x="600" d="M350 0L389 219H51L57 256L493 712H531L452 266H552L544 219H443L405 0H350ZM126 266H397L458 612L126 266Z" />
<glyph unicode="5" glyph-name="five" horiz-adv-x="600" d="M240 -8Q178 -8 128 6T44 46L71 96Q101 72 145 58T245 44Q340 44 399 94T458 235Q458 300 405 333T239 369L146 372L228 710H568L560 663H271L212 419L256 418Q387 413 450 368T514 236Q514 160 480
106T384 22T240 -8Z" />
<glyph unicode="6" glyph-name="six" horiz-adv-x="600" d="M286 -8Q190 -8 139 49T87 218Q87 267 98 333Q119 450 163 537T273 672T428 720Q503 720 550 680T609 561L559 544Q549 610 514 639T423 669Q329 669 258 588T154 333L151 317Q187 377 245 410T372 444Q454
444 502 397T550 271Q550 195 516 132T421 30T286 -8ZM289 41Q351 41 397 72T468 155T493 266Q493 326 459 360T361 395Q301 395 253 367T176 289T148 178Q148 115 184 78T289 41Z" />
<glyph unicode="7" glyph-name="seven" horiz-adv-x="600" d="M155 0H92L531 663H161L169 710H606L599 673L155 0Z" />
<glyph unicode="8" glyph-name="eight" horiz-adv-x="600" d="M262 -8Q163 -8 107 37T50 159Q50 231 97 285T217 361Q174 379 150 416T126 502Q126 563 158 612T246 691T376 720Q464 720 518 675T572 554Q572 485 530 433T420 359Q469 341 498 300T527 209Q527
143 493 95T399 19T262 -8ZM324 382Q379 382 422 403T490 463T515 551Q515 607 477 639T372 671Q316 671 274 649T207 589T182 500Q182 443 219 413T324 382ZM263 41Q356 41 413 87T471 210Q471 267 429 301T315 336Q257 336 210 314T135 253T107 162Q107 106 148
74T263 41Z" />
<glyph unicode="9" glyph-name="nine" horiz-adv-x="600" d="M352 720Q448 720 499 663T551 494Q551 445 540 379Q519 262 475 175T365 40T210 -8Q135 -8 88 32T29 151L79 168Q89 102 124 73T215 43Q309 43 380 124T484 379L487 395Q451 335 393 302T266 268Q184
268 136 315T88 441Q88 517 122 580T217 682T352 720ZM349 671Q287 671 241 640T170 557T145 446Q145 386 179 352T277 317Q337 317 385 345T462 423T490 534Q490 597 454 634T349 671Z" />
<glyph unicode=":" glyph-name="colon" horiz-adv-x="155" d="M40 -8Q21 -8 10 5T-2 35Q-2 53 10 65T40 78Q60 78 71 66T82 35Q82 18 71 5T40 -8ZM115 416Q96 416 85 429T73 459Q73 477 85 489T115 502Q135 502 146 490T157 459Q157 442 146 429T115 416Z" />
<glyph unicode=";" glyph-name="semicolon" horiz-adv-x="155" d="M-24 -100Q-13 -80 -5 -57T4 -14Q4 -3 3 7T1 29Q1 78 45 78Q80 78 80 41Q80 25 70 0T43 -52T6 -100H-24ZM115 416Q96 416 85 429T73 459Q73 477 85 489T115 502Q135 502 146 490T157 459Q157 442
146 429T115 416Z" />
<glyph unicode="&lt;" glyph-name="less" horiz-adv-x="600" d="M75 269L572 493L562 434L136 244L495 55L486 2L68 225L75 269Z" />
<glyph unicode="=" glyph-name="equal" horiz-adv-x="600" d="M70 319L79 368H563L555 319H70ZM36 128L45 177H529L521 128H36Z" />
<glyph unicode="&gt;" glyph-name="greater" horiz-adv-x="600" d="M525 226L28 2L38 61L464 251L105 440L114 493L532 270L525 226Z" />
<glyph unicode="?" glyph-name="question" horiz-adv-x="511" d="M200 153L159 155Q166 201 182 238T227 308T303 377Q351 413 381 441T425 500T439 568Q439 618 406 643T318 669Q251 669 200 633T112 522L68 542Q103 625 171 672T325 720Q400 720 448 683T496
575Q496 523 475 483T416 408T327 334Q272 293 243 251T200 153ZM165 -8Q147 -8 136 4T124 33Q124 51 136 62T165 74Q183 74 194 63T206 33Q206 16 195 4T165 -8Z" />
<glyph unicode="@" glyph-name="at" horiz-adv-x="960" d="M424 -212Q253 -212 155 -121T57 145Q57 264 94 369T199 554T362 679T570 725Q677 725 754 686T873 575T915 403Q915 344 901 280T860 159T794 68T708 33Q658 33 632 66T610 155Q579 102 527 68T419 33Q348
33 309 75T269 195Q269 259 290 315T349 414T435 480T538 504Q578 504 615 490T669 457L683 495L720 493L663 190Q653 137 666 108T711 79Q741 79 765 100T809 157T841 234T862 319T869 397Q869 483 834 546T731 643T569 677Q465 677 380 635T234 518T140 348T107
145Q107 -7 190 -86T427 -165Q513 -165 587 -138T707 -65L733 -101Q680 -152 599 -182T424 -212ZM421 83Q470 83 512 109T584 179T625 276L655 411Q633 435 604 445T531 456Q475 456 428 421T351 327T322 195Q322 83 421 83Z" />
<glyph unicode="A" glyph-name="A" horiz-adv-x="668" d="M-23 0L395 710H446L600 0H544L503 200H155L39 0H-23ZM184 249H492L411 640L184 249Z" />
<glyph unicode="B" glyph-name="B" horiz-adv-x="602" d="M42 0L167 710H334Q466 710 528 672T591 557Q591 481 548 430T432 358Q483 342 510 306T538 219Q538 151 506 102T416 27T288 0H42ZM324 662H215L165 382H309Q416 382 474 423T533 550Q533 609 484 635T324
662ZM107 48H286Q380 48 431 91T482 218Q482 333 319 333H157L107 48Z" />
<glyph unicode="C" glyph-name="C" horiz-adv-x="641" d="M615 135Q566 63 495 28T342 -8Q213 -8 143 63T73 260Q73 352 102 435T185 582T311 683T471 720Q551 720 609 687T694 588L646 557Q623 611 580 638T468 666Q392 666 330 633T224 544T156 414T132 261Q132
158 186 102T345 46Q417 46 474 76T575 168L615 135Z" />
<glyph unicode="D" glyph-name="D" horiz-adv-x="727" d="M42 0L167 710H333Q508 710 599 642T690 435Q690 303 636 205T483 54T251 0H42ZM109 50H252Q371 50 456 97T586 231T632 434Q632 547 559 603T333 660H216L109 50Z" />
<glyph unicode="E" glyph-name="E" horiz-adv-x="533" d="M107 49H460L445 0H42L167 710H562L553 661H215L166 386H498L489 337H158L107 49Z" />
<glyph unicode="F" glyph-name="F" horiz-adv-x="473" d="M98 0H42L167 710H543L534 661H214L164 375H477L468 326H155L98 0Z" />
<glyph unicode="G" glyph-name="G" horiz-adv-x="718" d="M431 335H665L606 0H563L572 94Q529 45 475 19T342 -8Q213 -8 143 63T73 260Q73 352 102 435T185 582T313 683T476 720Q557 720 616 687T703 587L654 554Q630 610 586 638T472 666Q395 666 332 633T225
544T156 414T132 261Q132 158 186 102T345 46Q449 46 514 99T595 246L603 287H422L431 335Z" />
<glyph unicode="H" glyph-name="H" horiz-adv-x="708" d="M42 0L167 710H224L168 387H590L647 710H704L579 0H522L581 336H159L99 0H42Z" />
<glyph unicode="I" glyph-name="I" horiz-adv-x="228" d="M42 0L167 710H224L99 0H42Z" />
<glyph unicode="J" glyph-name="J" horiz-adv-x="435" d="M132 -8Q56 -8 14 28T-36 124L15 144Q23 91 53 68T138 44Q201 44 236 81T286 203L376 710H433L345 206Q326 98 276 45T132 -8Z" />
<glyph unicode="K" glyph-name="K" horiz-adv-x="536" d="M42 0L167 710H224L166 377L562 710H637L215 357Q231 350 244 335T270 296L361 116Q384 71 403 58T450 44Q481 44 504 60L512 18Q496 6 477 1T436 -5Q396 -5 369 14T317 80L212 286Q204 303 191 313T157
328L99 0H42Z" />
<glyph unicode="L" glyph-name="L" horiz-adv-x="473" d="M42 0L167 710H224L109 50H446L431 0H42Z" />
<glyph unicode="M" glyph-name="M" horiz-adv-x="907" d="M33 0L192 710H252L420 65L822 710H882L784 0H731L812 602L435 0H383L224 611L87 0H33Z" />
<glyph unicode="N" glyph-name="N" horiz-adv-x="709" d="M650 710H705L580 0H532L204 617L96 0H42L167 710H215L542 93L650 710Z" />
<glyph unicode="O" glyph-name="O" horiz-adv-x="767" d="M341 -8Q213 -8 143 63T73 260Q73 351 102 433T185 580T312 682T473 720Q554 720 611 687T699 591T730 445Q730 356 702 275T623 130T500 29T341 -8ZM345 46Q421 46 481 79T583 169T649 298T672 447Q672
550 620 608T470 666Q393 666 331 633T225 542T156 412T132 261Q132 158 186 102T345 46Z" />
<glyph unicode="P" glyph-name="P" horiz-adv-x="589" d="M98 0H42L167 710H379Q489 710 549 668T609 542Q609 459 570 404T462 323T299 296H151L98 0ZM372 662H215L159 345H302Q378 345 434 364T521 425T552 540Q552 603 507 632T372 662Z" />
<glyph unicode="Q" glyph-name="Q" horiz-adv-x="767" d="M434 -208Q349 -208 311 -157T289 -15L291 -4Q186 9 130 78T73 260Q73 351 102 433T185 580T312 682T473 720Q554 720 611 687T699 591T730 445Q730 357 703 276T624 132T503 31T347 -7L345 -15Q332 -91
354 -125T438 -160Q481 -160 512 -137T555 -76L601 -83Q582 -140 540 -174T434 -208ZM345 46Q421 46 481 79T583 169T649 298T672 447Q672 550 620 608T470 666Q393 666 331 633T225 542T156 412T132 261Q132 158 186 102T345 46Z" />
<glyph unicode="R" glyph-name="R" horiz-adv-x="565" d="M542 59L552 16Q520 -5 476 -5Q437 -5 409 13T358 76L250 289Q241 307 223 320T181 334H157L98 0H42L167 710H347Q453 710 508 670T563 554Q563 485 529 436T436 361T302 335H273Q286 327 297 313T319
276L400 115Q423 71 441 58T489 44Q505 44 518 48T542 59ZM343 662H214L165 380H293Q389 380 447 420T505 548Q505 662 343 662Z" />
<glyph unicode="S" glyph-name="S" horiz-adv-x="558" d="M255 -8Q140 -8 82 46T27 210L83 217Q83 124 124 84T259 44Q347 44 398 85T450 201Q450 238 432 259T385 293T321 315T252 334T188 363T141 412T123 493Q123 561 155 612T243 691T370 720Q463 720 512
672T561 532L509 524Q509 599 475 634T369 669Q284 669 233 622T181 497Q181 458 198 435T245 398T309 375T379 355T443 328T490 282T508 206Q508 140 475 92T385 18T255 -8Z" />
<glyph unicode="T" glyph-name="T" horiz-adv-x="535" d="M611 710L598 661H369L252 0H194L311 661H77L86 710H611Z" />
<glyph unicode="U" glyph-name="U" horiz-adv-x="713" d="M654 710H711L647 343Q616 159 538 76T317 -8Q181 -8 124 72T93 304L164 710H223L152 307Q129 175 170 111T319 46Q398 46 451 76T538 171T590 344L654 710Z" />
<glyph unicode="V" glyph-name="V" horiz-adv-x="569" d="M601 710H662L266 0H192L96 710H151L238 48L601 710Z" />
<glyph unicode="W" glyph-name="W" horiz-adv-x="917" d="M917 710H976L644 0H576L531 624L237 0H170L120 710H174L215 66L518 710H575L621 65L917 710Z" />
<glyph unicode="X" glyph-name="X" horiz-adv-x="566" d="M-42 0L274 366L101 710H162L313 410L571 710H636L337 362L520 0H458L299 318L26 0H-42Z" />
<glyph unicode="Y" glyph-name="Y" horiz-adv-x="533" d="M636 710L308 322L251 0H193L251 324L60 710H121L287 374L571 710H636Z" />
<glyph unicode="Z" glyph-name="Z" horiz-adv-x="587" d="M-3 0L5 41L549 661H128L137 710H635L627 669L83 49H530L515 0H-3Z" />
<glyph unicode="[" glyph-name="bracketleft" horiz-adv-x="246" d="M6 -200L172 740H314L306 698H218L67 -158H156L148 -200H6Z" />
<glyph unicode="\" glyph-name="backslash" horiz-adv-x="298" d="M219 -200H167L80 740H132L219 -200Z" />
<glyph unicode="]" glyph-name="bracketright" horiz-adv-x="245" d="M-60 -200L-53 -158H36L187 698H98L106 740H247L81 -200H-60Z" />
<glyph unicode="^" glyph-name="asciicircum" horiz-adv-x="600" d="M361 581L506 124H455L333 519L73 124H14L317 581H361Z" />
<glyph unicode="_" glyph-name="underscore" horiz-adv-x="446" d="M-20 -47L-12 0H371L362 -47H-20Z" />
<glyph unicode="`" glyph-name="grave" horiz-adv-x="642" d="M318 573L227 732L289 750L370 573H318Z" />
<glyph unicode="a" glyph-name="a" horiz-adv-x="567" d="M210 -8Q135 -8 93 38T50 169Q50 238 71 298T131 405T221 478T335 504Q377 504 416 489T479 451L496 495H537Q526 447 519 409T505 342L475 169Q467 123 462 75T457 0H403Q404 34 408 69T419 142Q383 69
328 31T210 -8ZM218 43Q271 43 317 75T397 165T443 298L462 404Q414 454 334 454Q266 454 215 415T136 311T107 172Q107 110 135 77T218 43Z" />
<glyph unicode="b" glyph-name="b" horiz-adv-x="567" d="M233 -8Q191 -8 152 7T89 45L73 0H31Q39 33 43 56T52 102T62 155L166 744H221L177 495L150 357Q186 429 241 466T358 504Q433 504 475 458T517 328Q517 259 496 198T437 91T347 19T233 -8ZM234 43Q302
43 353 82T432 186T461 324Q461 387 433 420T350 453Q296 453 250 421T170 331T124 199L106 93Q153 43 234 43Z" />
<glyph unicode="c" glyph-name="c" horiz-adv-x="485" d="M241 -8Q151 -8 102 42T52 181Q52 244 71 302T127 405T215 477T330 504Q394 504 433 478T493 409L447 379Q432 415 403 434T329 453Q263 453 213 416T135 318T107 183Q107 117 143 80T250 43Q293 44 332
61T403 119L439 87Q365 -8 241 -8Z" />
<glyph unicode="d" glyph-name="d" horiz-adv-x="567" d="M210 -8Q135 -8 93 38T50 169Q50 238 71 298T131 405T221 478T335 504Q374 504 411 491T472 458L478 495L521 740H576L475 169Q467 123 462 75T457 0H403Q404 34 408 69T419 142Q383 69 328 31T210 -8ZM218
43Q271 43 317 75T397 165T443 298L462 404Q414 454 334 454Q266 454 215 415T136 311T107 172Q107 110 135 77T218 43Z" />
<glyph unicode="e" glyph-name="e" horiz-adv-x="533" d="M258 -8Q163 -8 108 42T53 188Q53 251 72 307T128 408T216 478T331 504Q410 504 453 466T496 367Q496 307 455 268T321 224L109 215Q101 130 141 87T262 43Q307 43 350 61T425 119L456 85Q383 -8 258 -8ZM117
264V262L315 271Q388 274 416 299T445 365Q445 405 416 431T326 458Q270 458 227 432T155 361T117 264Z" />
<glyph unicode="f" glyph-name="f" horiz-adv-x="326" d="M54 0L133 448H32L40 495H142L153 559Q169 649 222 699T356 750Q421 750 454 717T486 625L439 620Q441 703 351 703Q294 703 256 665T205 554L194 495H372L364 448H187L108 0H54Z" />
<glyph unicode="g" glyph-name="g" horiz-adv-x="571" d="M182 -210Q140 -210 98 -201T28 -175L47 -125Q76 -142 112 -151T185 -160Q281 -160 332 -111T405 51L423 146Q386 74 331 37T213 0Q138 0 95 44T51 173Q51 241 72 301T132 406T223 478T338 504Q380 504
420 489T484 451L501 495H541Q531 447 523 409T510 342L460 58Q435 -82 371 -146T182 -210ZM218 50Q273 50 320 81T401 169T448 300L466 405Q443 428 410 441T336 454Q268 454 217 415T136 313T107 177Q107 116 136 83T218 50Z" />
<glyph unicode="h" glyph-name="h" horiz-adv-x="559" d="M35 0L165 740H220L176 495L135 291Q175 396 236 450T374 504Q450 504 483 454T496 305L460 132Q447 70 447 0H391Q391 63 405 129L440 299Q457 380 437 416T358 453Q299 453 248 406T157 260T89 0H35Z" />
<glyph unicode="i" glyph-name="i" horiz-adv-x="212" d="M44 0Q44 32 48 64T58 129L92 324Q100 368 105 410T114 495H169Q166 453 160 407T146 322L112 131Q107 99 104 67T100 0H44ZM172 620Q154 620 143 632T132 660Q132 676 143 688T172 700Q191 700 201 688T212
660Q212 644 202 632T172 620Z" />
<glyph unicode="j" glyph-name="j" horiz-adv-x="227" d="M108 324Q116 368 121 410T130 495H185Q182 453 176 407T162 322L102 -14Q85 -111 35 -162T-103 -213Q-130 -213 -154 -208T-195 -192L-175 -146Q-139 -163 -101 -163Q22 -163 49 -10L108 324ZM188 620Q170
620 159 632T148 660Q148 676 159 688T188 700Q207 700 217 688T228 660Q228 644 218 632T188 620Z" />
<glyph unicode="k" glyph-name="k" horiz-adv-x="437" d="M35 0L166 740H221L140 283L394 493H468L181 257Q200 244 214 217L275 102Q293 67 311 55T355 42Q382 42 404 55L415 14Q386 -6 347 -6Q309 -6 282 11T233 68L172 183Q153 219 131 234L90 0H35Z" />
<glyph unicode="l" glyph-name="l" horiz-adv-x="255" d="M147 -8Q95 -8 71 24T54 107L166 740H221L111 116Q105 81 116 61T162 41Q178 41 193 46T218 57L226 15Q211 4 189 -2T147 -8Z" />
<glyph unicode="m" glyph-name="m" horiz-adv-x="896" d="M36 0L93 324Q101 368 106 410T115 495H169Q166 456 159 405T137 295Q177 398 237 451T370 504Q434 504 469 465T495 339Q537 421 593 462T715 504Q788 504 821 454T833 305L797 132Q784 70 784 0H728Q728
63 742 129L777 299Q794 380 774 416T699 453Q642 453 592 406T502 260T435 0H381L433 299Q448 380 429 416T354 453Q297 453 247 406T157 260T90 0H36Z" />
<glyph unicode="n" glyph-name="n" horiz-adv-x="559" d="M35 0L92 324Q100 368 106 410T115 495H168Q166 456 159 405T136 295Q177 398 237 451T374 504Q450 504 483 454T496 305L460 132Q447 70 447 0H391Q391 63 405 129L440 299Q457 380 437 416T358 453Q299
453 248 406T157 260T89 0H35Z" />
<glyph unicode="o" glyph-name="o" horiz-adv-x="561" d="M330 504Q412 504 460 455T509 316Q509 248 488 190T430 87T343 17T236 -8Q150 -8 101 41T52 181Q52 244 71 302T127 405T215 477T330 504ZM239 43Q302 43 350 81T425 181T453 314Q453 382 420 418T325
454Q261 454 212 417T135 318T107 183Q107 115 141 79T239 43Z" />
<glyph unicode="p" glyph-name="p" horiz-adv-x="567" d="M357 504Q433 504 475 458T517 328Q517 259 496 198T436 91T346 19T233 -8Q193 -8 157 5T95 39L89 2L54 -200H-1L92 324Q100 368 105 410T114 495H168Q165 458 161 425T149 355Q185 428 240 466T357 504ZM350
453Q296 453 250 421T170 331T124 199L105 93Q153 43 233 43Q301 43 352 82T432 186T460 324Q460 387 432 420T350 453Z" />
<glyph unicode="q" glyph-name="q" horiz-adv-x="567" d="M536 496Q529 463 524 440T515 395T505 342L405 -223H351L390 1L418 139Q381 68 327 30T210 -8Q135 -8 93 38T50 169Q50 238 71 298T131 405T221 478T335 504Q377 504 416 489T479 451L495 496H536ZM218
43Q271 43 317 75T397 165T443 298L462 404Q414 454 334 454Q266 454 215 415T136 311T107 172Q107 110 135 77T218 43Z" />
<glyph unicode="r" glyph-name="r" horiz-adv-x="366" d="M378 443Q368 446 359 447T338 449Q251 449 191 341T89 0H35L92 324Q99 367 105 410T114 495H168Q165 458 158 410T141 311Q184 418 239 461T350 504Q363 504 375 503T395 497L378 443Z" />
<glyph unicode="s" glyph-name="s" horiz-adv-x="444" d="M195 -8Q19 -8 19 140L69 151Q69 92 99 65T196 38Q254 38 293 64T332 137Q332 164 315 179T269 203T209 220T149 242T103 278T85 342Q85 392 111 428T180 483T274 503Q338 503 376 471T419 378L371 366Q366
457 273 457Q214 457 177 427T140 349Q140 319 158 302T204 274T263 256T323 236T369 201T387 142Q387 96 360 63T290 11T195 -8Z" />
<glyph unicode="t" glyph-name="t" horiz-adv-x="354" d="M213 -8Q134 -8 100 38T80 162L134 448H45L53 495H143L162 599H217L198 495H374L365 448H189L134 157Q124 102 145 72T220 42Q245 42 266 48T311 71L325 28Q303 9 274 1T213 -8Z" />
<glyph unicode="u" glyph-name="u" horiz-adv-x="550" d="M181 -8Q110 -8 78 41T63 186L89 324Q105 413 111 495H166Q163 453 157 407T143 322L118 190Q104 114 124 79T200 44Q284 44 353 151T463 495H515L457 169Q450 123 445 75T439 0H385Q386 35 391 80T412
190Q371 93 313 43T181 -8Z" />
<glyph unicode="v" glyph-name="v" horiz-adv-x="478" d="M458 495H516L233 0H160L84 495H139L204 45L458 495Z" />
<glyph unicode="w" glyph-name="w" horiz-adv-x="825" d="M799 495H858L583 0H522L457 424L219 0H158L89 495H144L200 60L442 495H498L561 59L799 495Z" />
<glyph unicode="x" glyph-name="x" horiz-adv-x="468" d="M-25 0L203 253L69 495H131L240 294L418 495H485L264 250L402 0H341L227 208L42 0H-25Z" />
<glyph unicode="y" glyph-name="y" horiz-adv-x="555" d="M170 -210Q128 -210 87 -202T19 -176L34 -126Q61 -141 97 -150T171 -160Q268 -160 318 -111T390 51L418 193Q372 89 314 45T191 0Q115 0 81 49T63 188L89 324Q105 410 111 495H166Q163 453 157 407T143
322L119 197Q106 126 125 89T202 51Q258 51 307 93T398 232T468 495H520L443 59Q418 -84 353 -147T170 -210Z" />
<glyph unicode="z" glyph-name="z" horiz-adv-x="452" d="M-1 0L5 37L369 448H90L99 495H449L443 457L79 47H368L360 0H-1Z" />
<glyph unicode="{" glyph-name="braceleft" horiz-adv-x="315" d="M184 -206Q129 -203 89 -174T49 -85Q49 -49 64 -15T98 53T132 115T147 171Q147 206 122 226T47 247L55 295Q115 295 151 325T187 403Q187 439 176 486T165 577Q165 656 216 700T349 748L352 712Q288
709 256 675T223 578Q223 536 234 497T245 417Q245 356 209 319T115 270Q150 261 175 236T201 167Q201 134 187 104T153 43T120 -20T105 -90Q105 -130 129 -149T194 -171L184 -206Z" />
<glyph unicode="|" glyph-name="bar" horiz-adv-x="243" d="M16 -200L182 740H235L69 -200H16Z" />
<glyph unicode="}" glyph-name="braceright" horiz-adv-x="315" d="M-26 -206L-29 -170Q35 -167 67 -133T100 -36Q100 6 89 45T78 125Q78 186 114 223T207 272Q173 281 148 306T122 375Q122 408 136 438T170 499T203 562T218 632Q218 672 194 691T129 713L139
748Q194 745 233 716T273 627Q273 591 259 557T225 489T191 427T176 371Q176 336 201 316T276 295L267 247Q208 247 172 217T136 139Q136 103 146 56T157 -35Q157 -114 106 -158T-26 -206Z" />
<glyph unicode="~" glyph-name="asciitilde" horiz-adv-x="600" d="M403 196Q386 196 358 204T298 222T237 240T186 248Q157 248 134 233T91 190L63 218Q86 254 120 276T197 299Q215 299 242 292T302 274T363 256T414 248Q443 248 466 263T509 305L537 277Q514
242 480 219T403 196Z" />
<glyph unicode="&#xa0;" glyph-name="uni00A0" horiz-adv-x="223" />
<glyph unicode="&#xa1;" glyph-name="exclamdown" horiz-adv-x="170" d="M123 420Q105 420 94 431T82 461Q82 478 93 490T123 502Q141 502 152 490T164 461Q164 444 153 432T123 420ZM-31 -200L84 339H120L30 -200H-31Z" />
<glyph unicode="&#xa2;" glyph-name="cent" horiz-adv-x="600" d="M228 -120L248 -6Q172 2 130 51T88 181Q88 260 119 330T206 447T338 503L357 615H401L381 504Q439 500 475 475T530 409L484 379Q468 415 440 434T366 453Q299 453 249 416T172 318T144 183Q144
117 179 80T286 43Q330 44 369 61T440 119L475 87Q406 -2 291 -7L272 -120H228Z" />
<glyph unicode="&#xa3;" glyph-name="sterling" horiz-adv-x="600" d="M46 -11L28 25Q80 51 112 78T159 141T174 232Q174 256 172 282T166 335H39L46 375H162Q161 391 160 407T159 440Q159 569 226 644T412 720Q500 720 550 673T601 542L554 526Q552 671 410 671Q310
671 261 610T212 443Q212 426 213 409T215 375H427L420 335H219Q222 310 224 287T226 240Q226 189 210 145T156 72Q175 78 192 78Q229 78 269 68T347 49T413 39Q441 39 464 52T507 96L536 71Q513 33 477 12T399 -10Q374 -10 334 0T248 20T164 30Q101 30 46 -11Z"
/>
<glyph unicode="&#xa4;" glyph-name="currency" horiz-adv-x="600" d="M110 105L82 134L133 187Q106 220 91 261T75 349Q75 397 90 439T134 514L82 569L110 598L162 542Q193 569 233 584T317 600Q361 600 400 585T472 543L523 595L552 566L501 513Q528 480 544
438T560 349Q560 303 545 262T502 188L555 134L526 106L474 159Q443 131 403 115T317 99Q272 99 232 115T161 158L110 105ZM319 143Q372 143 417 170T488 245T515 349Q515 408 489 455T417 529T319 557Q263 557 218 530T146 455T119 349Q119 292 146 245T218 171T319
143Z" />
<glyph unicode="&#xa5;" glyph-name="yen" horiz-adv-x="600" d="M80 176L87 216H266L284 321H106L113 361H271L99 710H159L322 380L601 710H665L369 361H527L520 321H342L323 216H502L495 176H316L285 0H227L258 176H80Z" />
<glyph unicode="&#xa6;" glyph-name="brokenbar" horiz-adv-x="243" d="M118 380L182 740H235L171 380H118ZM16 -200L80 160H133L69 -200H16Z" />
<glyph unicode="&#xa7;" glyph-name="section" horiz-adv-x="493" d="M204 -10Q131 -10 91 22T51 115L101 126Q101 37 211 37Q263 37 300 64T337 142Q337 172 319 189T271 216T210 234T148 253T101 286T82 343Q82 392 112 424T188 471Q167 485 154 506T140 561Q140
609 165 644T233 700T329 720Q401 720 441 687T481 595L431 583Q432 672 322 672Q269 672 233 645T196 567Q196 537 214 520T262 494T323 476T385 457T432 424T450 368Q450 318 419 285T344 239Q365 224 378 202T392 147Q392 98 367 63T299 9T204 -10ZM136 354Q136
324 159 309T219 285T290 264Q334 267 365 291T396 356Q396 385 372 400T312 424T240 446Q197 442 167 418T136 354Z" />
<glyph unicode="&#xa8;" glyph-name="dieresis" horiz-adv-x="670" d="M436 569Q418 569 408 579T397 606Q397 621 407 631T436 642Q452 642 462 632T472 606Q472 590 462 580T436 569ZM274 569Q257 569 247 579T236 606Q236 621 246 631T274 642Q291 642 301
632T311 606Q311 590 301 580T274 569Z" />
<glyph unicode="&#xa9;" glyph-name="copyright" horiz-adv-x="805" d="M421 -6Q345 -6 280 21T166 96T90 209T63 349Q63 425 90 489T165 602T279 677T421 704Q496 704 561 677T674 602T750 490T778 349Q778 274 751 209T675 96T561 21T421 -6ZM421 26Q489 26
547 50T650 118T718 221T742 350Q742 419 718 477T650 580T548 648T421 672Q352 672 293 648T191 580T123 478T98 350Q98 281 122 222T191 119T293 51T421 26ZM570 229Q549 190 511 170T423 149Q339 149 291 200T243 342Q243 403 267 450T333 523T433 550Q525 550
571 475L534 448Q503 506 432 506Q370 506 331 461T292 343Q292 271 326 232T424 192Q500 192 535 256L570 229Z" />
<glyph unicode="&#xaa;" glyph-name="ordfeminine" horiz-adv-x="332" d="M325 471H279L291 531Q272 501 246 484T188 466Q144 466 119 493T94 568Q94 617 114 658T169 725T250 750Q281 750 301 737T326 706L339 745H373L325 471ZM250 710Q215 710 191 690T153
639T139 572Q139 506 197 506Q230 506 255 528T295 582T310 648Q310 677 294 693T250 710Z" />
<glyph unicode="&#xab;" glyph-name="guillemotleft" horiz-adv-x="397" d="M129 70L31 241L36 265L193 436H257L86 249L187 70H129ZM290 70L192 241L197 265L354 436H418L247 249L348 70H290Z" />
<glyph unicode="&#xac;" glyph-name="logicalnot" horiz-adv-x="600" d="M76 273H534L486 0H435L474 222H67L76 273Z" />
<glyph unicode="&#xad;" glyph-name="uni00AD" horiz-adv-x="383" d="M57 228L66 278H329L320 228H57Z" />
<glyph unicode="&#xae;" glyph-name="registered" horiz-adv-x="805" d="M421 -6Q345 -6 280 21T166 96T90 209T63 349Q63 424 90 489T165 602T279 677T421 704Q497 704 562 677T675 602T751 489T778 349Q778 273 751 209T675 96T561 21T421 -6ZM421 26Q489 26
547 50T650 119T718 222T742 350Q742 419 718 477T650 580T548 648T421 672Q352 672 293 648T191 580T123 478T98 350Q98 281 122 222T191 119T293 51T421 26ZM551 152Q518 152 495 170T456 214T424 267T390 312T344 330V156H298V547H415Q472 547 506 518T540 438Q540
393 506 362T417 331H415Q436 320 452 298T484 251T516 210T557 193Q572 193 590 201L600 166Q581 152 551 152ZM411 510H344V363H392Q492 363 492 437Q492 471 470 490T411 510Z" />
<glyph unicode="&#xaf;" glyph-name="overscore" horiz-adv-x="626" d="M195 642H489L482 602H188L195 642Z" />
<glyph unicode="&#xb0;" glyph-name="degree" horiz-adv-x="358" d="M239 438Q200 438 169 456T120 506T101 578Q101 617 119 648T169 698T239 717Q277 717 308 699T357 649T375 578Q375 538 357 506T308 456T239 438ZM239 475Q282 475 309 503T336 577Q336 622
309 651T239 680Q194 680 167 651T140 577Q140 532 167 504T239 475Z" />
<glyph unicode="&#xb1;" glyph-name="plusminus" horiz-adv-x="600" d="M319 495H368L339 332H508L500 282H331L302 118H252L281 282H113L121 332H290L319 495ZM28 0L36 49H494L485 0H28Z" />
<glyph unicode="&#xb2;" glyph-name="uni00B2" horiz-adv-x="330" d="M70 350Q129 392 181 437T266 529T299 619Q299 645 284 660T238 675Q205 675 180 656T139 603L104 619Q121 661 158 688T244 715Q289 715 317 692T346 623Q346 558 288 491T136 356H311L305
319H65L70 350Z" />
<glyph unicode="&#xb3;" glyph-name="uni00B3" horiz-adv-x="330" d="M167 314Q136 314 107 322T61 341L78 381Q95 369 120 362T171 355Q217 355 246 379T276 444Q276 503 192 503H162L169 539H199Q245 539 273 562T301 624Q301 648 286 661T243 675Q181 675 145
611L112 631Q132 670 169 692T250 715Q295 715 321 692T348 631Q348 593 324 563T265 520Q293 512 307 492T322 443Q322 405 301 376T246 331T167 314Z" />
<glyph unicode="&#xb4;" glyph-name="acute" horiz-adv-x="642" d="M317 573L461 750L518 732L371 573H317Z" />
<glyph unicode="&#xb5;" glyph-name="uni00B5" horiz-adv-x="550" d="M463 495H515L427 0H374L411 182Q367 80 311 36T192 -8Q157 -8 131 4T91 48L48 -200H-4L119 495H175L118 190Q91 44 202 44Q242 44 279 66T349 139T411 277T463 495Z" />
<glyph unicode="&#xb6;" glyph-name="paragraph" horiz-adv-x="584" d="M72 470Q72 549 110 603T215 684T372 711H451L326 0H270L323 297H298Q190 297 131 343T72 470ZM524 710H580L455 0H399L524 710Z" />
<glyph unicode="&#xb7;" glyph-name="middot" horiz-adv-x="165" d="M87 227Q69 227 57 239T45 269Q45 288 57 300T87 313Q107 313 118 301T129 269Q129 252 118 240T87 227Z" />
<glyph unicode="&#xb8;" glyph-name="cedilla" horiz-adv-x="618" d="M151 -223Q121 -223 101 -217T63 -200L81 -166Q98 -176 115 -181T153 -186Q183 -186 202 -172T222 -132Q222 -95 166 -95H130L207 18H253L200 -60Q232 -65 250 -82T269 -128Q269 -172 234 -197T151
-223Z" />
<glyph unicode="&#xb9;" glyph-name="uni00B9" horiz-adv-x="330" d="M85 356H173L224 643L143 595L125 630L256 710H281L219 356H304L298 319H79L85 356Z" />
<glyph unicode="&#xba;" glyph-name="ordmasculine" horiz-adv-x="326" d="M202 466Q151 466 123 495T95 574Q95 621 115 661T171 725T252 750Q303 750 330 721T358 642Q358 596 338 556T282 491T202 466ZM205 506Q239 506 263 526T301 576T314 640Q314 674 297
692T249 710Q216 710 192 691T153 641T139 576Q139 542 156 524T205 506Z" />
<glyph unicode="&#xbb;" glyph-name="guillemotright" horiz-adv-x="397" d="M110 436L207 265L203 241L46 70H-19L152 257L51 436H110ZM271 436L368 265L364 241L207 70H142L313 257L212 436H271Z" />
<glyph unicode="&#xbc;" glyph-name="onequarter" horiz-adv-x="790" d="M85 356H173L224 643L143 595L125 630L256 710H281L219 356H304L298 319H79L85 356ZM196 0L546 710H594L244 0H196ZM744 112H691L671 0H629L649 112H466L471 140L708 392H741L697 146H749L744
112ZM520 146H655L686 320L520 146Z" />
<glyph unicode="&#xbd;" glyph-name="onehalf" horiz-adv-x="790" d="M85 356H173L224 643L143 595L125 630L256 710H281L219 356H304L298 319H79L85 356ZM196 0L546 710H594L244 0H196ZM474 31Q533 73 585 118T670 210T703 300Q703 326 688 341T642 356Q609 356
584 337T543 284L508 300Q525 342 562 369T648 396Q693 396 721 373T750 304Q750 239 692 172T540 37H715L709 0H469L474 31Z" />
<glyph unicode="&#xbe;" glyph-name="threequarters" horiz-adv-x="790" d="M167 314Q136 314 107 322T61 341L78 381Q95 369 120 362T171 355Q217 355 246 379T276 444Q276 503 192 503H162L169 539H199Q245 539 273 562T301 624Q301 648 286 661T243 675Q181
675 145 611L112 631Q132 670 169 692T250 715Q295 715 321 692T348 631Q348 593 324 563T265 520Q293 512 307 492T322 443Q322 405 301 376T246 331T167 314ZM196 0L546 710H594L244 0H196ZM744 112H691L671 0H629L649 112H466L471 140L708 392H741L697 146H749L744
112ZM520 146H655L686 320L520 146Z" />
<glyph unicode="&#xbf;" glyph-name="questiondown" horiz-adv-x="511" d="M346 420Q328 420 317 431T305 461Q305 478 316 490T346 502Q364 502 375 490T387 461Q387 443 375 432T346 420ZM186 -212Q111 -212 63 -176T15 -71Q15 -22 35 16T92 90T184 164Q239
204 268 245T311 341L352 339Q341 272 310 223T208 122Q160 86 130 58T86 0T72 -65Q72 -112 105 -136T193 -161Q260 -161 311 -126T399 -17L443 -36Q408 -119 340 -165T186 -212Z" />
<glyph unicode="&#xc0;" glyph-name="Agrave" horiz-adv-x="668" d="M-23 0L395 710H446L600 0H544L503 200H155L39 0H-23ZM184 249H492L411 640L184 249ZM405 788L314 947L376 965L457 788H405Z" />
<glyph unicode="&#xc1;" glyph-name="Aacute" horiz-adv-x="668" d="M-23 0L395 710H446L600 0H544L503 200H155L39 0H-23ZM184 249H492L411 640L184 249ZM401 788L545 965L602 947L455 788H401Z" />
<glyph unicode="&#xc2;" glyph-name="Acircumflex" horiz-adv-x="668" d="M-23 0L395 710H446L600 0H544L503 200H155L39 0H-23ZM184 249H492L411 640L184 249ZM579 788H528L457 916L339 788H282L437 955H484L579 788Z" />
<glyph unicode="&#xc3;" glyph-name="Atilde" horiz-adv-x="668" d="M-23 0L395 710H446L600 0H544L503 200H155L39 0H-23ZM184 249H492L411 640L184 249ZM514 785Q495 785 475 794T434 817T394 839T358 849Q337 849 319 832T290 786L262 803Q277 845 304 868T365
892Q384 892 404 883T445 860T485 838T521 828Q542 828 560 845T590 891L618 874Q603 832 576 809T514 785Z" />
<glyph unicode="&#xc4;" glyph-name="Adieresis" horiz-adv-x="668" d="M-23 0L395 710H446L600 0H544L503 200H155L39 0H-23ZM184 249H492L411 640L184 249ZM518 784Q500 784 490 794T479 821Q479 837 489 847T518 857Q534 857 544 847T554 821Q554 805 544 795T518
784ZM356 784Q339 784 329 794T318 821Q318 837 328 847T356 857Q373 857 383 847T393 821Q393 805 383 795T356 784Z" />
<glyph unicode="&#xc5;" glyph-name="Aring" horiz-adv-x="668" d="M-23 0L395 710H446L600 0H544L503 200H155L39 0H-23ZM184 249H492L411 640L184 249ZM446 783Q404 783 376 810T347 880Q347 922 377 950T450 979Q493 979 520 952T548 884Q548 841 519 812T446
783ZM447 816Q476 816 494 834T512 884Q512 912 495 929T449 946Q419 946 401 927T383 880Q383 851 401 834T447 816Z" />
<glyph unicode="&#xc6;" glyph-name="AE" horiz-adv-x="883" d="M-23 0L395 710H912L903 661H576L527 386H848L840 337H519L468 49H811L796 0H403L438 201H155L39 0H-23ZM183 249H447L519 661H422L183 249Z" />
<glyph unicode="&#xc7;" glyph-name="Ccedilla" horiz-adv-x="641" d="M615 135Q566 63 495 28T342 -8Q213 -8 143 63T73 260Q73 352 102 435T185 582T311 683T471 720Q551 720 609 687T694 588L646 557Q623 611 580 638T468 666Q392 666 330 633T224 544T156
414T132 261Q132 158 186 102T345 46Q417 46 474 76T575 168L615 135ZM280 -223Q250 -223 230 -217T192 -200L210 -166Q227 -176 244 -181T282 -186Q312 -186 331 -172T351 -132Q351 -95 295 -95H259L336 18H382L329 -60Q361 -65 379 -82T398 -128Q398 -172 363
-197T280 -223Z" />
<glyph unicode="&#xc8;" glyph-name="Egrave" horiz-adv-x="533" d="M107 49H460L445 0H42L167 710H562L553 661H215L166 386H498L489 337H158L107 49ZM352 788L261 947L323 965L404 788H352Z" />
<glyph unicode="&#xc9;" glyph-name="Eacute" horiz-adv-x="533" d="M107 49H460L445 0H42L167 710H562L553 661H215L166 386H498L489 337H158L107 49ZM349 788L493 965L550 947L403 788H349Z" />
<glyph unicode="&#xca;" glyph-name="Ecircumflex" horiz-adv-x="533" d="M107 49H460L445 0H42L167 710H562L553 661H215L166 386H498L489 337H158L107 49ZM527 788H476L405 916L287 788H230L385 955H432L527 788Z" />
<glyph unicode="&#xcb;" glyph-name="Edieresis" horiz-adv-x="533" d="M107 49H460L445 0H42L167 710H562L553 661H215L166 386H498L489 337H158L107 49ZM466 784Q448 784 438 794T427 821Q427 837 437 847T466 857Q482 857 492 847T502 821Q502 805 492 795T466
784ZM304 784Q287 784 277 794T266 821Q266 837 276 847T304 857Q321 857 331 847T341 821Q341 805 331 795T304 784Z" />
<glyph unicode="&#xcc;" glyph-name="Igrave" horiz-adv-x="228" d="M42 0L167 710H224L99 0H42ZM184 788L93 947L155 965L236 788H184Z" />
<glyph unicode="&#xcd;" glyph-name="Iacute" horiz-adv-x="228" d="M42 0L167 710H224L99 0H42ZM180 788L324 965L381 947L234 788H180Z" />
<glyph unicode="&#xce;" glyph-name="Icircumflex" horiz-adv-x="228" d="M42 0L167 710H224L99 0H42ZM614 788H563L492 916L374 788H317L472 955H519L614 788Z" />
<glyph unicode="&#xcf;" glyph-name="Idieresis" horiz-adv-x="228" d="M42 0L167 710H224L99 0H42ZM297 784Q279 784 269 794T258 821Q258 837 268 847T297 857Q313 857 323 847T333 821Q333 805 323 795T297 784ZM135 784Q118 784 108 794T97 821Q97 837 107
847T135 857Q152 857 162 847T172 821Q172 805 162 795T135 784Z" />
<glyph unicode="&#xd0;" glyph-name="Eth" horiz-adv-x="727" d="M42 0L167 710H333Q508 710 599 642T690 435Q690 303 636 205T483 54T251 0H42ZM109 50H252Q371 50 456 97T586 231T632 434Q632 547 559 603T333 660H216L109 50ZM21 338L29 382H388L379 338H21Z" />
<glyph unicode="&#xd1;" glyph-name="Ntilde" horiz-adv-x="709" d="M650 710H705L580 0H532L204 617L96 0H42L167 710H215L542 93L650 710ZM534 785Q515 785 495 794T454 817T414 839T378 849Q357 849 339 832T310 786L282 803Q297 845 324 868T385 892Q404 892
424 883T465 860T505 838T541 828Q562 828 580 845T610 891L638 874Q623 832 596 809T534 785Z" />
<glyph unicode="&#xd2;" glyph-name="Ograve" horiz-adv-x="767" d="M341 -8Q213 -8 143 63T73 260Q73 351 102 433T185 580T312 682T473 720Q554 720 611 687T699 591T730 445Q730 356 702 275T623 130T500 29T341 -8ZM345 46Q421 46 481 79T583 169T649 298T672
447Q672 550 620 608T470 666Q393 666 331 633T225 542T156 412T132 261Q132 158 186 102T345 46ZM452 788L361 947L423 965L504 788H452Z" />
<glyph unicode="&#xd3;" glyph-name="Oacute" horiz-adv-x="767" d="M341 -8Q213 -8 143 63T73 260Q73 351 102 433T185 580T312 682T473 720Q554 720 611 687T699 591T730 445Q730 356 702 275T623 130T500 29T341 -8ZM345 46Q421 46 481 79T583 169T649 298T672
447Q672 550 620 608T470 666Q393 666 331 633T225 542T156 412T132 261Q132 158 186 102T345 46ZM448 788L592 965L649 947L502 788H448Z" />
<glyph unicode="&#xd4;" glyph-name="Ocircumflex" horiz-adv-x="767" d="M341 -8Q213 -8 143 63T73 260Q73 351 102 433T185 580T312 682T473 720Q554 720 611 687T699 591T730 445Q730 356 702 275T623 130T500 29T341 -8ZM345 46Q421 46 481 79T583 169T649
298T672 447Q672 550 620 608T470 666Q393 666 331 633T225 542T156 412T132 261Q132 158 186 102T345 46ZM626 788H575L504 916L386 788H329L484 955H531L626 788Z" />
<glyph unicode="&#xd5;" glyph-name="Otilde" horiz-adv-x="767" d="M341 -8Q213 -8 143 63T73 260Q73 351 102 433T185 580T312 682T473 720Q554 720 611 687T699 591T730 445Q730 356 702 275T623 130T500 29T341 -8ZM345 46Q421 46 481 79T583 169T649 298T672
447Q672 550 620 608T470 666Q393 666 331 633T225 542T156 412T132 261Q132 158 186 102T345 46ZM561 785Q542 785 522 794T481 817T441 839T405 849Q384 849 366 832T337 786L309 803Q324 845 351 868T412 892Q431 892 451 883T492 860T532 838T568 828Q589 828
607 845T637 891L665 874Q650 832 623 809T561 785Z" />
<glyph unicode="&#xd6;" glyph-name="Odieresis" horiz-adv-x="767" d="M341 -8Q213 -8 143 63T73 260Q73 351 102 433T185 580T312 682T473 720Q554 720 611 687T699 591T730 445Q730 356 702 275T623 130T500 29T341 -8ZM345 46Q421 46 481 79T583 169T649 298T672
447Q672 550 620 608T470 666Q393 666 331 633T225 542T156 412T132 261Q132 158 186 102T345 46ZM565 784Q547 784 537 794T526 821Q526 837 536 847T565 857Q581 857 591 847T601 821Q601 805 591 795T565 784ZM403 784Q386 784 376 794T365 821Q365 837 375
847T403 857Q420 857 430 847T440 821Q440 805 430 795T403 784Z" />
<glyph unicode="&#xd7;" glyph-name="multiply" horiz-adv-x="600" d="M156 67L120 103L264 247L120 391L156 427L300 283L444 427L480 391L336 247L480 103L444 67L300 211L156 67Z" />
<glyph unicode="&#xd8;" glyph-name="Oslash" horiz-adv-x="767" d="M341 -8Q213 -8 143 63T73 260Q73 351 102 433T185 580T312 682T473 720Q554 720 611 687T699 591T730 445Q730 356 702 275T623 130T500 29T341 -8ZM345 46Q421 46 481 79T583 169T649 298T672
447Q672 550 620 608T470 666Q393 666 331 633T225 542T156 412T132 261Q132 158 186 102T345 46ZM113 21L79 53L691 689L725 657L113 21Z" />
<glyph unicode="&#xd9;" glyph-name="Ugrave" horiz-adv-x="713" d="M654 710H711L647 343Q616 159 538 76T317 -8Q181 -8 124 72T93 304L164 710H223L152 307Q129 175 170 111T319 46Q398 46 451 76T538 171T590 344L654 710ZM427 788L336 947L398 965L479 788H427Z" />
<glyph unicode="&#xda;" glyph-name="Uacute" horiz-adv-x="713" d="M654 710H711L647 343Q616 159 538 76T317 -8Q181 -8 124 72T93 304L164 710H223L152 307Q129 175 170 111T319 46Q398 46 451 76T538 171T590 344L654 710ZM423 788L567 965L624 947L477 788H423Z" />
<glyph unicode="&#xdb;" glyph-name="Ucircumflex" horiz-adv-x="713" d="M654 710H711L647 343Q616 159 538 76T317 -8Q181 -8 124 72T93 304L164 710H223L152 307Q129 175 170 111T319 46Q398 46 451 76T538 171T590 344L654 710ZM601 788H550L479 916L361 788H304L459
955H506L601 788Z" />
<glyph unicode="&#xdc;" glyph-name="Udieresis" horiz-adv-x="713" d="M654 710H711L647 343Q616 159 538 76T317 -8Q181 -8 124 72T93 304L164 710H223L152 307Q129 175 170 111T319 46Q398 46 451 76T538 171T590 344L654 710ZM540 784Q522 784 512 794T501
821Q501 837 511 847T540 857Q556 857 566 847T576 821Q576 805 566 795T540 784ZM378 784Q361 784 351 794T340 821Q340 837 350 847T378 857Q395 857 405 847T415 821Q415 805 405 795T378 784Z" />
<glyph unicode="&#xdd;" glyph-name="Yacute" horiz-adv-x="533" d="M636 710L308 322L251 0H193L251 324L60 710H121L287 374L571 710H636ZM334 788L478 965L535 947L388 788H334Z" />
<glyph unicode="&#xde;" glyph-name="Thorn" horiz-adv-x="596" d="M42 0L167 711L223 710L201 588H358Q468 588 528 545T588 418Q588 335 549 281T441 199T278 172H129L98 0H42ZM351 540H193L137 221H281Q357 221 413 240T500 302T531 416Q531 480 486 510T351 540Z" />
<glyph unicode="&#xdf;" glyph-name="germandbls" horiz-adv-x="624" d="M394 -8Q309 -8 263 32T223 142L274 153Q269 99 300 69T393 39Q455 39 490 64T526 133Q526 161 509 178T466 206T409 229T353 255T309 292T292 351Q292 395 313 425T367 479T431 524T485
572T507 637Q507 668 481 686T407 704Q322 704 268 650T195 494L108 0H54L133 448H32L40 494H141Q164 616 233 683T408 750Q476 750 515 721T555 640Q555 595 534 564T481 510T419 465T366 419T344 361Q344 333 361 316T405 287T462 264T519 238T563 200T580 141Q580
75 529 34T394 -8Z" />
<glyph unicode="&#xe0;" glyph-name="agrave" horiz-adv-x="567" d="M210 -8Q135 -8 93 38T50 169Q50 238 71 298T131 405T221 478T335 504Q377 504 416 489T479 451L496 495H537Q526 447 519 409T505 342L475 169Q467 123 462 75T457 0H403Q404 34 408 69T419
142Q383 69 328 31T210 -8ZM218 43Q271 43 317 75T397 165T443 298L462 404Q414 454 334 454Q266 454 215 415T136 311T107 172Q107 110 135 77T218 43ZM338 573L247 732L309 750L390 573H338Z" />
<glyph unicode="&#xe1;" glyph-name="aacute" horiz-adv-x="567" d="M210 -8Q135 -8 93 38T50 169Q50 238 71 298T131 405T221 478T335 504Q377 504 416 489T479 451L496 495H537Q526 447 519 409T505 342L475 169Q467 123 462 75T457 0H403Q404 34 408 69T419
142Q383 69 328 31T210 -8ZM218 43Q271 43 317 75T397 165T443 298L462 404Q414 454 334 454Q266 454 215 415T136 311T107 172Q107 110 135 77T218 43ZM335 573L479 750L536 732L389 573H335Z" />
<glyph unicode="&#xe2;" glyph-name="acircumflex" horiz-adv-x="567" d="M210 -8Q135 -8 93 38T50 169Q50 238 71 298T131 405T221 478T335 504Q377 504 416 489T479 451L496 495H537Q526 447 519 409T505 342L475 169Q467 123 462 75T457 0H403Q404 34 408 69T419
142Q383 69 328 31T210 -8ZM218 43Q271 43 317 75T397 165T443 298L462 404Q414 454 334 454Q266 454 215 415T136 311T107 172Q107 110 135 77T218 43ZM513 573H462L391 701L273 573H216L371 740H418L513 573Z" />
<glyph unicode="&#xe3;" glyph-name="atilde" horiz-adv-x="567" d="M210 -8Q135 -8 93 38T50 169Q50 238 71 298T131 405T221 478T335 504Q377 504 416 489T479 451L496 495H537Q526 447 519 409T505 342L475 169Q467 123 462 75T457 0H403Q404 34 408 69T419
142Q383 69 328 31T210 -8ZM218 43Q271 43 317 75T397 165T443 298L462 404Q414 454 334 454Q266 454 215 415T136 311T107 172Q107 110 135 77T218 43ZM448 569Q429 569 409 579T368 601T328 623T292 633Q271 633 253 616T224 571L196 588Q211 629 238 653T299
677Q318 677 338 667T379 645T419 622T455 612Q476 612 494 629T524 676L552 658Q537 616 510 593T448 569Z" />
<glyph unicode="&#xe4;" glyph-name="adieresis" horiz-adv-x="567" d="M210 -8Q135 -8 93 38T50 169Q50 238 71 298T131 405T221 478T335 504Q377 504 416 489T479 451L496 495H537Q526 447 519 409T505 342L475 169Q467 123 462 75T457 0H403Q404 34 408 69T419
142Q383 69 328 31T210 -8ZM218 43Q271 43 317 75T397 165T443 298L462 404Q414 454 334 454Q266 454 215 415T136 311T107 172Q107 110 135 77T218 43ZM452 569Q434 569 424 579T413 606Q413 621 423 631T452 642Q468 642 478 632T488 606Q488 590 478 580T452
569ZM290 569Q273 569 263 579T252 606Q252 621 262 631T290 642Q307 642 317 632T327 606Q327 590 317 580T290 569Z" />
<glyph unicode="&#xe5;" glyph-name="aring" horiz-adv-x="567" d="M210 -8Q135 -8 93 38T50 169Q50 238 71 298T131 405T221 478T335 504Q377 504 416 489T479 451L496 495H537Q526 447 519 409T505 342L475 169Q467 123 462 75T457 0H403Q404 34 408 69T419
142Q383 69 328 31T210 -8ZM218 43Q271 43 317 75T397 165T443 298L462 404Q414 454 334 454Q266 454 215 415T136 311T107 172Q107 110 135 77T218 43ZM380 568Q338 568 310 595T281 664Q281 706 311 734T384 763Q427 763 454 736T482 668Q482 625 453 597T380
568ZM381 601Q410 601 428 619T446 668Q446 697 429 714T383 731Q353 731 335 712T317 664Q317 636 335 619T381 601Z" />
<glyph unicode="&#xe6;" glyph-name="ae" horiz-adv-x="866" d="M186 -8Q113 -8 71 25T29 116Q29 190 85 231T230 273H399L405 306Q417 379 392 417T298 455Q235 455 192 424T130 334L80 343Q103 417 163 460T305 504Q372 504 411 473T457 387Q493 442 548 473T667
504Q746 504 788 466T830 367Q830 307 790 268T665 228H448Q435 136 476 90T598 43Q641 43 684 61T758 119L790 85Q753 38 703 15T593 -8Q512 -8 465 29T404 125Q371 64 313 28T186 -8ZM661 458Q608 458 566 433T496 366T457 273H661Q721 273 750 298T779 365Q779
405 750 431T661 458ZM192 40Q242 40 283 62T352 125T389 217L391 227H228Q163 227 125 200T86 121Q86 82 114 61T192 40Z" />
<glyph unicode="&#xe7;" glyph-name="ccedilla" horiz-adv-x="485" d="M241 -8Q151 -8 102 42T52 181Q52 244 71 302T127 405T215 477T330 504Q394 504 433 478T493 409L447 379Q432 415 403 434T329 453Q263 453 213 416T135 318T107 183Q107 117 143 80T250
43Q293 44 332 61T403 119L439 87Q365 -8 241 -8ZM176 -223Q146 -223 126 -217T88 -200L106 -166Q123 -176 140 -181T178 -186Q208 -186 227 -172T247 -132Q247 -95 191 -95H155L232 18H278L225 -60Q257 -65 275 -82T294 -128Q294 -172 259 -197T176 -223Z" />
<glyph unicode="&#xe8;" glyph-name="egrave" horiz-adv-x="533" d="M258 -8Q163 -8 108 42T53 188Q53 251 72 307T128 408T216 478T331 504Q410 504 453 466T496 367Q496 307 455 268T321 224L109 215Q101 130 141 87T262 43Q307 43 350 61T425 119L456 85Q383
-8 258 -8ZM117 264V262L315 271Q388 274 416 299T445 365Q445 405 416 431T326 458Q270 458 227 432T155 361T117 264ZM320 573L229 732L291 750L372 573H320Z" />
<glyph unicode="&#xe9;" glyph-name="eacute" horiz-adv-x="533" d="M258 -8Q163 -8 108 42T53 188Q53 251 72 307T128 408T216 478T331 504Q410 504 453 466T496 367Q496 307 455 268T321 224L109 215Q101 130 141 87T262 43Q307 43 350 61T425 119L456 85Q383
-8 258 -8ZM117 264V262L315 271Q388 274 416 299T445 365Q445 405 416 431T326 458Q270 458 227 432T155 361T117 264ZM572 573L716 750L773 732L626 573H572Z" />
<glyph unicode="&#xea;" glyph-name="ecircumflex" horiz-adv-x="533" d="M258 -8Q163 -8 108 42T53 188Q53 251 72 307T128 408T216 478T331 504Q410 504 453 466T496 367Q496 307 455 268T321 224L109 215Q101 130 141 87T262 43Q307 43 350 61T425 119L456
85Q383 -8 258 -8ZM117 264V262L315 271Q388 274 416 299T445 365Q445 405 416 431T326 458Q270 458 227 432T155 361T117 264ZM494 573H443L372 701L254 573H197L352 740H399L494 573Z" />
<glyph unicode="&#xeb;" glyph-name="edieresis" horiz-adv-x="533" d="M258 -8Q163 -8 108 42T53 188Q53 251 72 307T128 408T216 478T331 504Q410 504 453 466T496 367Q496 307 455 268T321 224L109 215Q101 130 141 87T262 43Q307 43 350 61T425 119L456 85Q383
-8 258 -8ZM117 264V262L315 271Q388 274 416 299T445 365Q445 405 416 431T326 458Q270 458 227 432T155 361T117 264ZM689 569Q671 569 661 579T650 606Q650 621 660 631T689 642Q705 642 715 632T725 606Q725 590 715 580T689 569ZM527 569Q510 569 500 579T489
606Q489 621 499 631T527 642Q544 642 554 632T564 606Q564 590 554 580T527 569Z" />
<glyph unicode="&#xec;" glyph-name="igrave" horiz-adv-x="212" d="M44 0Q44 32 48 64T58 129L92 324Q100 368 105 410T114 495H169Q166 453 160 407T146 322L112 131Q107 99 104 67T100 0H44ZM130 573L39 732L101 750L182 573H130Z" />
<glyph unicode="&#xed;" glyph-name="iacute" horiz-adv-x="212" d="M44 0Q44 32 48 64T58 129L92 324Q100 368 105 410T114 495H169Q166 453 160 407T146 322L112 131Q107 99 104 67T100 0H44ZM126 573L270 750L327 732L180 573H126Z" />
<glyph unicode="&#xee;" glyph-name="icircumflex" horiz-adv-x="212" d="M44 0Q44 32 48 64T58 129L92 324Q100 368 105 410T114 495H169Q166 453 160 407T146 322L112 131Q107 99 104 67T100 0H44ZM304 573H253L182 701L64 573H7L162 740H209L304 573Z" />
<glyph unicode="&#xef;" glyph-name="idieresis" horiz-adv-x="212" d="M44 0Q44 32 48 64T58 129L92 324Q100 368 105 410T114 495H169Q166 453 160 407T146 322L112 131Q107 99 104 67T100 0H44ZM243 569Q225 569 215 579T204 606Q204 621 214 631T243 642Q259
642 269 632T279 606Q279 590 269 580T243 569ZM81 569Q64 569 54 579T43 606Q43 621 53 631T81 642Q98 642 108 632T118 606Q118 590 108 580T81 569Z" />
<glyph unicode="&#xf0;" glyph-name="eth" horiz-adv-x="540" d="M226 -8Q142 -8 95 39T48 171Q48 229 67 282T122 377T205 443T310 468Q362 468 399 444T450 378Q460 524 387 611L207 536L193 573L358 641Q312 681 243 709L269 751Q356 715 409 663L528 712L542
676L437 632Q504 545 504 406Q504 324 487 250T435 118T348 26T226 -8ZM232 43Q292 43 337 79T408 172T433 291Q433 353 401 386T311 419Q248 419 202 384T130 292T104 173Q104 112 135 78T232 43Z" />
<glyph unicode="&#xf1;" glyph-name="ntilde" horiz-adv-x="559" d="M35 0L92 324Q100 368 106 410T115 495H168Q166 456 159 405T136 295Q177 398 237 451T374 504Q450 504 483 454T496 305L460 132Q447 70 447 0H391Q391 63 405 129L440 299Q457 380 437 416T358
453Q299 453 248 406T157 260T89 0H35ZM676 569Q657 569 637 579T596 601T556 623T520 633Q499 633 481 616T452 571L424 588Q439 629 466 653T527 677Q546 677 566 667T607 645T647 622T683 612Q704 612 722 629T752 676L780 658Q765 616 738 593T676 569Z" />
<glyph unicode="&#xf2;" glyph-name="ograve" horiz-adv-x="561" d="M330 504Q412 504 460 455T509 316Q509 248 488 190T430 87T343 17T236 -8Q150 -8 101 41T52 181Q52 244 71 302T127 405T215 477T330 504ZM239 43Q302 43 350 81T425 181T453 314Q453 382 420
418T325 454Q261 454 212 417T135 318T107 183Q107 115 141 79T239 43ZM568 573L477 732L539 750L620 573H568Z" />
<glyph unicode="&#xf3;" glyph-name="oacute" horiz-adv-x="561" d="M330 504Q412 504 460 455T509 316Q509 248 488 190T430 87T343 17T236 -8Q150 -8 101 41T52 181Q52 244 71 302T127 405T215 477T330 504ZM239 43Q302 43 350 81T425 181T453 314Q453 382 420
418T325 454Q261 454 212 417T135 318T107 183Q107 115 141 79T239 43ZM564 573L708 750L765 732L618 573H564Z" />
<glyph unicode="&#xf4;" glyph-name="ocircumflex" horiz-adv-x="561" d="M330 504Q412 504 460 455T509 316Q509 248 488 190T430 87T343 17T236 -8Q150 -8 101 41T52 181Q52 244 71 302T127 405T215 477T330 504ZM239 43Q302 43 350 81T425 181T453 314Q453
382 420 418T325 454Q261 454 212 417T135 318T107 183Q107 115 141 79T239 43ZM486 573H435L364 701L246 573H189L344 740H391L486 573Z" />
<glyph unicode="&#xf5;" glyph-name="otilde" horiz-adv-x="561" d="M330 504Q412 504 460 455T509 316Q509 248 488 190T430 87T343 17T236 -8Q150 -8 101 41T52 181Q52 244 71 302T127 405T215 477T330 504ZM239 43Q302 43 350 81T425 181T453 314Q453 382 420
418T325 454Q261 454 212 417T135 318T107 183Q107 115 141 79T239 43ZM677 569Q658 569 638 579T597 601T557 623T521 633Q500 633 482 616T453 571L425 588Q440 629 467 653T528 677Q547 677 567 667T608 645T648 622T684 612Q705 612 723 629T753 676L781 658Q766
616 739 593T677 569Z" />
<glyph unicode="&#xf6;" glyph-name="odieresis" horiz-adv-x="561" d="M330 504Q412 504 460 455T509 316Q509 248 488 190T430 87T343 17T236 -8Q150 -8 101 41T52 181Q52 244 71 302T127 405T215 477T330 504ZM239 43Q302 43 350 81T425 181T453 314Q453 382
420 418T325 454Q261 454 212 417T135 318T107 183Q107 115 141 79T239 43ZM681 569Q663 569 653 579T642 606Q642 621 652 631T681 642Q697 642 707 632T717 606Q717 590 707 580T681 569ZM519 569Q502 569 492 579T481 606Q481 621 491 631T519 642Q536 642 546
632T556 606Q556 590 546 580T519 569Z" />
<glyph unicode="&#xf7;" glyph-name="divide" horiz-adv-x="600" d="M339 441Q323 441 315 450T306 473Q306 486 314 495T339 505Q356 505 364 496T373 473Q373 460 365 451T339 441ZM547 273L538 223H53L62 273H547ZM261 -8Q244 -8 236 1T227 25Q227 38 235 47T261
56Q277 56 285 47T294 25Q294 11 286 2T261 -8Z" />
<glyph unicode="&#xf8;" glyph-name="oslash" horiz-adv-x="561" d="M330 504Q412 504 460 455T509 316Q509 248 488 190T430 87T343 17T236 -8Q150 -8 101 41T52 181Q52 244 71 302T127 405T215 477T330 504ZM239 43Q302 43 350 81T425 181T453 314Q453 382 420
418T325 454Q261 454 212 417T135 318T107 183Q107 115 141 79T239 43ZM329 0L296 29L353 88L377 110L668 411L688 436L745 495L777 465L720 406L696 384L405 83L386 59L329 0Z" />
<glyph unicode="&#xf9;" glyph-name="ugrave" horiz-adv-x="550" d="M181 -8Q110 -8 78 41T63 186L89 324Q105 413 111 495H166Q163 453 157 407T143 322L118 190Q104 114 124 79T200 44Q284 44 353 151T463 495H515L457 169Q450 123 445 75T439 0H385Q386 35
391 80T412 190Q371 93 313 43T181 -8ZM563 573L472 732L534 750L615 573H563Z" />
<glyph unicode="&#xfa;" glyph-name="uacute" horiz-adv-x="550" d="M181 -8Q110 -8 78 41T63 186L89 324Q105 413 111 495H166Q163 453 157 407T143 322L118 190Q104 114 124 79T200 44Q284 44 353 151T463 495H515L457 169Q450 123 445 75T439 0H385Q386 35
391 80T412 190Q371 93 313 43T181 -8ZM559 573L703 750L760 732L613 573H559Z" />
<glyph unicode="&#xfb;" glyph-name="ucircumflex" horiz-adv-x="550" d="M181 -8Q110 -8 78 41T63 186L89 324Q105 413 111 495H166Q163 453 157 407T143 322L118 190Q104 114 124 79T200 44Q284 44 353 151T463 495H515L457 169Q450 123 445 75T439 0H385Q386
35 391 80T412 190Q371 93 313 43T181 -8ZM737 573H686L615 701L497 573H440L595 740H642L737 573Z" />
<glyph unicode="&#xfc;" glyph-name="udieresis" horiz-adv-x="550" d="M181 -8Q110 -8 78 41T63 186L89 324Q105 413 111 495H166Q163 453 157 407T143 322L118 190Q104 114 124 79T200 44Q284 44 353 151T463 495H515L457 169Q450 123 445 75T439 0H385Q386
35 391 80T412 190Q371 93 313 43T181 -8ZM676 569Q658 569 648 579T637 606Q637 621 647 631T676 642Q692 642 702 632T712 606Q712 590 702 580T676 569ZM514 569Q497 569 487 579T476 606Q476 621 486 631T514 642Q531 642 541 632T551 606Q551 590 541 580T514
569Z" />
<glyph unicode="&#xfd;" glyph-name="yacute" horiz-adv-x="555" d="M170 -210Q128 -210 87 -202T19 -176L34 -126Q61 -141 97 -150T171 -160Q268 -160 318 -111T390 51L418 193Q372 89 314 45T191 0Q115 0 81 49T63 188L89 324Q105 410 111 495H166Q163 453 157
407T143 322L119 197Q106 126 125 89T202 51Q258 51 307 93T398 232T468 495H520L443 59Q418 -84 353 -147T170 -210ZM562 573L706 750L763 732L616 573H562Z" />
<glyph unicode="&#xfe;" glyph-name="thorn" horiz-adv-x="567" d="M53 -200H-1L165 740H219L176 495L148 357Q185 429 239 466T356 504Q432 504 474 458T516 328Q516 259 495 198T435 91T345 19T232 -8Q192 -8 155 5T94 39L88 0L53 -200ZM349 453Q295 453 249
421T169 331T123 199L104 93Q152 43 232 43Q300 43 351 82T431 186T459 324Q459 387 431 420T349 453Z" />
<glyph unicode="&#xff;" glyph-name="ydieresis" horiz-adv-x="555" d="M170 -210Q128 -210 87 -202T19 -176L34 -126Q61 -141 97 -150T171 -160Q268 -160 318 -111T390 51L418 193Q372 89 314 45T191 0Q115 0 81 49T63 188L89 324Q105 410 111 495H166Q163 453
157 407T143 322L119 197Q106 126 125 89T202 51Q258 51 307 93T398 232T468 495H520L443 59Q418 -84 353 -147T170 -210ZM679 569Q661 569 651 579T640 606Q640 621 650 631T679 642Q695 642 705 632T715 606Q715 590 705 580T679 569ZM517 569Q500 569 490 579T479
606Q479 621 489 631T517 642Q534 642 544 632T554 606Q554 590 544 580T517 569Z" />
<glyph unicode="&#x2013;" glyph-name="endash" horiz-adv-x="500" d="M17 233L26 280H486L477 233H17Z" />
<glyph unicode="&#x2014;" glyph-name="emdash" horiz-adv-x="1000" d="M17 233L26 280H986L977 233H17Z" />
<glyph unicode="&#x2018;" glyph-name="quoteleft" horiz-adv-x="165" d="M211 750Q201 730 193 706T184 663Q184 652 185 642T187 621Q187 572 143 572Q108 572 108 608Q108 625 118 650T145 701T181 750H211Z" />
<glyph unicode="&#x2019;" glyph-name="quoteright" horiz-adv-x="165" d="M100 571Q111 591 119 614T127 657Q127 668 126 678T124 700Q124 749 169 749Q204 749 204 712Q204 695 194 670T166 619T130 571H100Z" />
<glyph unicode="&#x201a;" glyph-name="quotesinglbase" horiz-adv-x="155" d="M-24 -100Q-13 -80 -5 -57T4 -14Q4 -3 3 7T1 29Q1 78 45 78Q80 78 80 41Q80 25 70 0T43 -52T6 -100H-24Z" />
<glyph unicode="&#x201c;" glyph-name="quotedblleft" horiz-adv-x="280" d="M328 750Q318 730 310 706T301 663Q301 652 302 642T304 621Q304 572 260 572Q225 572 225 608Q225 625 235 650T262 701T298 750H328ZM212 750Q202 730 194 706T185 663Q185 652 186
642T188 621Q188 572 144 572Q109 572 109 608Q109 625 119 650T146 701T182 750H212Z" />
<glyph unicode="&#x201d;" glyph-name="quotedblright" horiz-adv-x="280" d="M215 571Q226 591 234 614T242 657Q242 668 241 678T239 700Q239 749 284 749Q319 749 319 712Q319 695 309 670T281 619T245 571H215ZM100 571Q111 591 119 614T127 657Q127 668 126
678T124 700Q124 749 169 749Q204 749 204 712Q204 695 194 670T166 619T130 571H100Z" />
<glyph unicode="&#x201e;" glyph-name="quotedblbase" horiz-adv-x="274" d="M90 -100Q101 -80 109 -57T118 -14Q118 -3 117 7T115 29Q115 78 159 78Q194 78 194 41Q194 25 184 0T157 -52T120 -100H90ZM-19 -100Q-8 -80 0 -57T9 -14Q9 -3 8 7T6 29Q6 78 50 78Q85
78 85 41Q85 25 75 0T48 -52T11 -100H-19Z" />
<glyph unicode="&#x2022;" glyph-name="bullet" horiz-adv-x="455" d="M228 83Q180 83 142 105T81 166T58 254Q58 303 80 341T141 402T228 425Q276 425 315 403T376 342T399 254Q399 205 377 166T315 105T228 83Z" />
<glyph unicode="&#x2039;" glyph-name="guilsinglleft" horiz-adv-x="236" d="M129 70L31 241L36 265L193 436H257L86 249L187 70H129Z" />
<glyph unicode="&#x203a;" glyph-name="guilsinglright" horiz-adv-x="236" d="M110 436L207 265L203 241L46 70H-19L152 257L51 436H110Z" />
</font>
</defs>
</svg>
