<?xml version="1.0" standalone="no"?>
<!DOCTYPE svg PUBLIC "-//W3C//DTD SVG 1.1//EN" "http://www.w3.org/Graphics/SVG/1.1/DTD/svg11.dtd">
<svg xmlns="http://www.w3.org/2000/svg">
<defs >
<font id="Livvic" horiz-adv-x="577" ><font-face
    font-family="Livvic SemiBold"
    units-per-em="1000"
    panose-1="0 0 0 0 0 0 0 0 0 0"
    ascent="1005"
    descent="-250"
    alphabetic="0" />
<glyph unicode=" " glyph-name="space" horiz-adv-x="243" />
<glyph unicode="!" glyph-name="exclam" horiz-adv-x="241" d="M72 214L144 740H283L155 214H72ZM88 -9Q53 -9 31 12T8 67Q8 101 30 122T88 144Q123 144 145 123T167 67Q167 34 145 13T88 -9Z" />
<glyph unicode="&quot;" glyph-name="quotedbl" horiz-adv-x="434" d="M111 400L140 710H271L192 400H111ZM295 400L324 710H455L376 400H295Z" />
<glyph unicode="#" glyph-name="numbersign" horiz-adv-x="600" d="M19 0L93 191H2L39 287H130L181 422H91L129 518H218L292 710H399L326 518H436L510 710H617L544 518H635L597 422H507L455 287H546L508 191H418L345 0H237L311 191H200L127 0H19ZM237 287H348L399
422H289L237 287Z" />
<glyph unicode="$" glyph-name="dollar" horiz-adv-x="600" d="M190 -120L211 -4Q122 9 73 64T31 211L155 229Q153 164 185 133T289 101Q347 101 383 128T420 202Q420 234 398 251T340 280T265 303T190 335T133 390T110 483Q110 546 139 596T220 677T338 717L358
830H444L424 717Q500 706 545 656T589 525L470 506Q470 558 443 584T369 610Q313 610 278 579T243 500Q243 466 265 447T323 415T398 392T473 362T531 311T554 224Q554 156 520 106T428 26T296 -8L276 -120H190Z" />
<glyph unicode="%" glyph-name="percent" horiz-adv-x="794" d="M255 397Q180 397 135 439T89 551Q89 600 112 638T175 698T268 720Q343 720 388 679T434 567Q434 518 411 480T348 419T255 397ZM57 0L660 710H773L170 0H57ZM259 474Q298 474 322 499T346 566Q346
601 325 622T267 644Q226 644 202 619T177 552Q177 515 199 495T259 474ZM563 -8Q488 -8 442 34T396 146Q396 196 419 234T483 294T576 316Q651 316 696 274T742 162Q742 113 719 75T655 15T563 -8ZM566 69Q605 69 629 95T654 161Q654 197 632 218T574 239Q534
239 509 213T484 147Q484 111 506 90T566 69Z" />
<glyph unicode="&amp;" glyph-name="ampersand" horiz-adv-x="814" d="M282 -8Q208 -8 154 15T70 80T40 180Q40 239 62 280T119 351T196 402Q174 432 163 460T151 521Q151 582 179 627T257 696T370 721Q443 721 487 685T531 587Q531 530 507 494T443 434T360 389L519
192Q566 247 591 327H499L516 428H801L783 327H695Q677 266 649 214T582 122Q602 107 622 101T668 94Q703 94 733 112L750 24Q727 7 698 -1T634 -9Q547 -9 487 46Q394 -8 282 -8ZM269 540Q269 520 277 502T307 455Q357 479 391 506T425 576Q425 604 408 617T362
630Q321 630 295 605T269 540ZM168 201Q168 150 206 122T313 93Q373 93 425 118L250 335Q214 313 191 281T168 201Z" />
<glyph unicode="&apos;" glyph-name="quotesingle" horiz-adv-x="250" d="M111 400L140 710H271L192 400H111Z" />
<glyph unicode="(" glyph-name="parenleft" horiz-adv-x="330" d="M223 -213Q136 -141 93 -47T50 162Q50 284 90 394T206 596T385 750L428 688Q344 625 288 539T203 351T175 145Q175 49 202 -26T278 -156L223 -213Z" />
<glyph unicode=")" glyph-name="parenright" horiz-adv-x="330" d="M-50 -213L-92 -151Q-8 -88 48 -2T132 185T161 392Q161 488 134 563T57 693L113 750Q200 677 243 583T286 375Q286 252 246 142T130 -59T-50 -213Z" />
<glyph unicode="*" glyph-name="asterisk" horiz-adv-x="461" d="M439 504Q462 491 469 472T465 433Q454 413 434 409T390 419Q371 429 355 448T306 496Q313 452 322 429T331 384Q331 358 318 342T281 327Q259 327 246 342T232 385Q232 406 241 429T257 496Q224
468 208 449T173 419Q150 405 130 409T98 433Q87 452 94 471T124 504Q142 515 166 519T233 538Q191 553 167 557T124 572Q101 585 94 604T98 644Q109 663 129 667T173 658Q192 647 208 628T257 580Q250 624 241 647T232 692Q232 718 245 734T281 749Q304 749 317
734T331 691Q331 670 322 647T306 580Q339 609 355 628T390 658Q413 671 433 667T465 644Q476 624 469 605T439 572Q421 561 397 557T330 538Q372 523 396 519T439 504Z" />
<glyph unicode="+" glyph-name="plus" horiz-adv-x="600" d="M197 0L232 197H40L60 308H251L286 505H403L368 308H560L540 197H349L314 0H197Z" />
<glyph unicode="," glyph-name="comma" horiz-adv-x="237" d="M-36 -152Q-12 -112 1 -77T15 -15Q15 7 10 24T5 63Q5 108 31 132T98 156Q132 156 151 138T171 81Q171 57 158 27T124 -37T77 -100T27 -152H-36Z" />
<glyph unicode="-" glyph-name="hyphen" horiz-adv-x="419" d="M51 201L70 311H370L351 201H51Z" />
<glyph unicode="." glyph-name="period" horiz-adv-x="237" d="M87 -9Q48 -9 25 15T2 74Q2 109 25 133T87 157Q126 157 149 133T172 74Q172 39 149 15T87 -9Z" />
<glyph unicode="/" glyph-name="slash" horiz-adv-x="359" d="M-80 -200L333 740H452L40 -200H-80Z" />
<glyph unicode="0" glyph-name="zero" horiz-adv-x="600" d="M261 -9Q163 -10 106 49T48 234Q48 324 70 410T136 567T241 678T384 720Q480 720 534 659T588 476Q588 387 567 301T504 145T401 33T261 -9ZM275 102Q313 102 343 126T396 190T434 280T456 380T463
476Q463 541 440 575T371 610Q322 610 285 575T223 483T186 363T174 240Q174 102 275 102Z" />
<glyph unicode="1" glyph-name="one" horiz-adv-x="600" d="M62 0L80 102H239L315 531L186 452L135 548L402 710H473L366 102H516L498 0H62Z" />
<glyph unicode="2" glyph-name="two" horiz-adv-x="600" d="M33 0L48 85Q120 133 189 188T315 301T406 415T440 524Q440 563 417 585T349 608Q297 608 257 578T189 494L100 543Q137 625 209 672T373 720Q461 720 515 675T569 547Q569 485 541 425T463 308T350
199T215 102H511L494 0H33Z" />
<glyph unicode="3" glyph-name="three" horiz-adv-x="600" d="M222 -9Q170 -9 116 3T24 39L75 148Q108 127 149 115T239 103Q323 103 362 136T401 222Q401 265 369 287T278 309H235L253 411H292Q357 411 399 442T442 531Q442 567 419 587T352 608Q297 608 256
578T188 494L99 543Q137 626 209 673T374 720Q463 720 517 677T571 557Q571 490 533 438T433 362Q527 327 527 227Q527 151 486 98T375 18T222 -9Z" />
<glyph unicode="4" glyph-name="four" horiz-adv-x="600" d="M310 0L342 183H26L41 270L471 712H558L483 284H582L565 183H465L432 0H310ZM181 284H360L400 511L181 284Z" />
<glyph unicode="5" glyph-name="five" horiz-adv-x="600" d="M225 -9Q171 -9 116 3T24 39L75 149Q107 128 148 116T239 103Q318 103 361 137T405 235Q405 282 367 308T232 337L121 341L214 710H580L563 608H311L270 442H275Q399 437 465 390T531 250Q531 168 491
110T381 22T225 -9Z" />
<glyph unicode="6" glyph-name="six" horiz-adv-x="600" d="M293 -9Q184 -9 125 54T65 243Q65 269 67 298T76 358Q96 474 145 555T266 678T424 720Q503 720 555 681T627 564L521 518Q510 565 483 586T409 608Q338 608 284 551T205 374Q274 449 381 449Q433 449
475 429T543 368T568 265Q568 186 531 124T432 27T293 -9ZM298 94Q361 94 401 138T441 250Q441 294 415 320T343 346Q297 346 263 326T211 271T192 196Q192 150 220 122T298 94Z" />
<glyph unicode="7" glyph-name="seven" horiz-adv-x="600" d="M203 0H64L466 608H135L153 710H621L604 611L203 0Z" />
<glyph unicode="8" glyph-name="eight" horiz-adv-x="600" d="M264 -9Q155 -9 91 37T27 165Q27 238 73 290T186 363Q146 382 125 417T103 498Q103 564 140 614T238 692T372 720Q436 720 485 699T563 638T592 546Q592 479 554 432T452 361Q498 343 524 304T551
214Q551 143 512 93T408 17T264 -9ZM328 408Q386 408 425 442T465 531Q465 570 438 593T363 617Q304 617 266 583T227 492Q227 452 254 430T328 408ZM271 94Q337 94 381 126T426 219Q426 260 395 285T309 310Q265 310 230 294T175 248T155 181Q155 141 185 118T271
94Z" />
<glyph unicode="9" glyph-name="nine" horiz-adv-x="600" d="M344 721Q453 721 512 658T572 469Q572 443 570 414T561 354Q541 238 492 157T371 34T213 -8Q134 -8 82 31T10 148L116 194Q127 147 154 126T228 104Q299 104 353 161T432 338Q363 263 256 263Q204
263 162 283T94 344T69 447Q69 526 106 588T205 685T344 721ZM339 618Q276 618 236 574T196 462Q196 418 222 392T294 366Q340 366 374 386T426 441T445 516Q445 562 417 590T339 618Z" />
<glyph unicode=":" glyph-name="colon" horiz-adv-x="237" d="M87 -9Q48 -9 25 15T2 74Q2 109 25 133T87 157Q126 157 149 133T172 74Q172 39 149 15T87 -9ZM150 347Q111 347 88 371T65 430Q65 465 88 489T150 513Q189 513 212 489T235 430Q235 395 212 371T150 347Z" />
<glyph unicode=";" glyph-name="semicolon" horiz-adv-x="237" d="M-36 -152Q-12 -112 1 -77T15 -15Q15 7 10 24T5 63Q5 108 31 132T98 156Q132 156 151 138T171 81Q171 57 158 27T124 -37T77 -100T27 -152H-36ZM150 347Q111 347 88 371T65 430Q65 465 88 489T150
513Q189 513 212 489T235 430Q235 395 212 371T150 347Z" />
<glyph unicode="&lt;" glyph-name="less" horiz-adv-x="600" d="M60 297L592 512L572 395L202 247L520 99L500 -9L45 207L60 297Z" />
<glyph unicode="=" glyph-name="equal" horiz-adv-x="600" d="M60 314L78 414H579L561 314H60ZM21 92L39 192H540L522 92H21Z" />
<glyph unicode="&gt;" glyph-name="greater" horiz-adv-x="600" d="M539 207L7 -9L28 109L397 256L80 404L99 512L554 297L539 207Z" />
<glyph unicode="?" glyph-name="question" horiz-adv-x="511" d="M259 211L167 216Q174 288 203 337T291 430Q345 471 365 494T385 545Q385 575 363 591T300 608Q193 608 137 494L48 546Q72 598 114 637T211 698T327 720Q409 720 461 680T513 568Q513 500 474
452T373 359Q320 320 295 288T259 211ZM196 -9Q161 -9 138 12T115 66Q115 100 137 122T195 144Q230 144 252 123T275 67Q275 34 253 13T196 -9Z" />
<glyph unicode="@" glyph-name="at" horiz-adv-x="992" d="M452 -212Q330 -212 238 -168T93 -39T40 169Q40 288 79 389T189 565T359 683T577 725Q700 725 786 684T918 568T963 389Q963 325 948 262T904 146T833 61T736 29Q682 29 650 54T609 125Q578 79 534 54T437
29Q358 29 313 77T268 210Q268 273 289 328T348 424T436 489T544 513Q583 513 618 502T677 471L692 504L767 494L715 205Q700 125 756 125Q781 125 800 151T833 217T853 301T860 382Q860 502 786 565T574 628Q479 628 402 594T268 499T182 356T152 177Q152 33 234
-40T457 -114Q522 -114 586 -95T696 -43L739 -127Q683 -168 610 -190T452 -212ZM467 129Q520 129 561 174T619 302L635 386Q605 414 552 414Q506 414 469 388T409 317T387 219Q387 129 467 129Z" />
<glyph unicode="A" glyph-name="A" horiz-adv-x="688" d="M-55 0L374 710H484L650 0H523L488 162H177L83 0H-55ZM241 271H464L405 551L241 271Z" />
<glyph unicode="B" glyph-name="B" horiz-adv-x="633" d="M28 0L153 710H393Q512 710 574 669T637 546Q637 481 603 433T513 359Q551 342 572 307T593 228Q593 157 556 106T455 28T314 0H28ZM378 604H262L228 411H348Q420 411 463 436T506 526Q506 567 475 585T378
604ZM175 106H324Q390 106 427 136T464 225Q464 303 345 303H210L175 106Z" />
<glyph unicode="C" glyph-name="C" horiz-adv-x="668" d="M654 138Q605 66 526 29T354 -9Q262 -9 195 24T91 119T54 268Q54 361 86 443T175 588T310 685T479 720Q570 720 634 685T727 579L616 508Q598 557 557 580T463 604Q403 604 353 579T265 509T208 406T187
281Q187 198 233 153T366 108Q423 108 476 133T570 213L654 138Z" />
<glyph unicode="D" glyph-name="D" horiz-adv-x="748" d="M28 0L153 710H360Q538 710 632 636T727 423Q727 329 695 251T605 117T467 31T290 0H28ZM179 115H301Q394 115 460 151T560 254T595 411Q595 502 537 548T357 595H263L179 115Z" />
<glyph unicode="E" glyph-name="E" horiz-adv-x="565" d="M176 112H517L488 0H28L153 710H612L591 598H262L229 415H543L523 303H210L176 112Z" />
<glyph unicode="F" glyph-name="F" horiz-adv-x="514" d="M156 0H28L153 710H590L569 598H261L227 405H519L499 293H207L156 0Z" />
<glyph unicode="G" glyph-name="G" horiz-adv-x="752" d="M438 370H719L654 0H552L554 61Q512 24 463 8T352 -9Q261 -9 194 24T91 119T54 268Q54 361 86 443T176 588T314 685T489 720Q576 720 647 686T751 580L639 507Q619 552 575 578T472 604Q409 604 357 579T267
509T208 406T187 281Q187 198 233 153T366 108Q446 108 504 146T575 258L576 264H420L438 370Z" />
<glyph unicode="H" glyph-name="H" horiz-adv-x="742" d="M28 0L153 710H283L232 416H568L619 710H750L625 0H494L548 302H212L158 0H28Z" />
<glyph unicode="I" glyph-name="I" horiz-adv-x="276" d="M28 0L153 710H283L158 0H28Z" />
<glyph unicode="J" glyph-name="J" horiz-adv-x="480" d="M153 -9Q73 -9 21 29T-44 139L71 187Q82 146 104 126T168 105Q209 105 236 132T273 215L360 710H490L405 228Q385 109 323 50T153 -9Z" />
<glyph unicode="K" glyph-name="K" horiz-adv-x="630" d="M28 0L153 710H283L228 396L576 710H738L340 354Q377 333 398 286L456 162Q471 130 490 118T538 106Q576 106 602 122L618 24Q596 7 565 -1T502 -9Q392 -9 346 90L270 248Q260 269 247 280T211 297L158 0H28Z" />
<glyph unicode="L" glyph-name="L" horiz-adv-x="514" d="M28 0L153 710H283L179 114H495L466 0H28Z" />
<glyph unicode="M" glyph-name="M" horiz-adv-x="934" d="M24 0L177 710H291L448 163L809 710H923L818 0H693L757 433L469 0H370L242 449L145 0H24Z" />
<glyph unicode="N" glyph-name="N" horiz-adv-x="738" d="M620 710H746L621 0H506L242 505L153 0H28L153 710H268L532 205L620 710Z" />
<glyph unicode="O" glyph-name="O" horiz-adv-x="777" d="M349 -9Q259 -9 193 24T90 119T54 268Q54 361 85 443T174 588T308 685T476 720Q562 720 625 685T723 587T758 438Q758 347 727 266T641 123T511 26T349 -9ZM362 108Q420 108 468 133T551 202T605 305T625
428Q625 510 582 557T461 604Q401 604 351 579T264 509T207 406T187 281Q187 198 232 153T362 108Z" />
<glyph unicode="P" glyph-name="P" horiz-adv-x="624" d="M155 0H28L153 710H394Q513 710 581 665T650 525Q650 435 607 378T488 292T310 264H201L155 0ZM374 604H261L220 371H332Q425 371 473 404T521 511Q521 560 483 582T374 604Z" />
<glyph unicode="Q" glyph-name="Q" horiz-adv-x="777" d="M451 -209Q354 -209 305 -153T272 -2Q170 17 112 87T54 268Q54 361 85 443T174 588T308 685T476 720Q562 720 625 685T723 587T758 438Q758 353 731 277T656 141T542 42T398 -6V-7Q389 -59 406 -82T464
-106Q493 -106 513 -92T542 -51L644 -64Q623 -136 573 -172T451 -209ZM362 108Q420 108 468 133T551 202T605 305T625 428Q625 510 582 557T461 604Q401 604 351 579T264 509T207 406T187 281Q187 198 232 153T362 108Z" />
<glyph unicode="R" glyph-name="R" horiz-adv-x="627" d="M607 124L623 23Q601 7 572 -1T512 -9Q398 -9 352 90L277 248Q265 273 248 283T212 293H207L156 0H28L153 710H363Q489 710 552 665T615 534Q615 466 585 416T501 335T378 298Q403 282 421 245L462 162Q478
130 497 118T542 106Q581 106 607 124ZM339 604H262L225 395H311Q395 395 439 424T483 515Q483 562 447 583T339 604Z" />
<glyph unicode="S" glyph-name="S" horiz-adv-x="586" d="M259 -9Q138 -9 72 48T12 211L136 229Q134 164 168 133T278 101Q345 101 381 128T418 202Q418 234 396 251T338 280T262 303T186 335T128 390T105 483Q105 553 141 606T241 690T384 720Q487 720 545 668T601
525L483 506Q481 610 375 610Q311 610 275 579T239 500Q239 466 261 447T319 415T395 392T470 362T529 311T552 224Q552 151 514 99T409 19T259 -9Z" />
<glyph unicode="T" glyph-name="T" horiz-adv-x="574" d="M668 710L633 596H413L307 0H177L282 596H54L74 710H668Z" />
<glyph unicode="U" glyph-name="U" horiz-adv-x="745" d="M626 710H755L689 330Q631 -9 341 -9Q192 -9 123 73T78 301L150 710H281L211 311Q175 108 352 108Q441 108 491 162T562 338L626 710Z" />
<glyph unicode="V" glyph-name="V" horiz-adv-x="628" d="M599 710H734L350 0H168L80 710H211L280 109L599 710Z" />
<glyph unicode="W" glyph-name="W" horiz-adv-x="984" d="M931 710H1062L731 0H582L549 542L299 0H151L100 710H224L257 170L505 710H655L687 170L931 710Z" />
<glyph unicode="X" glyph-name="X" horiz-adv-x="613" d="M-51 0L254 365L90 710H231L343 472L540 710H684L395 361L568 0H425L306 253L99 0H-51Z" />
<glyph unicode="Y" glyph-name="Y" horiz-adv-x="587" d="M689 710L370 318L314 0H183L240 318L55 710H195L323 433L545 710H689Z" />
<glyph unicode="Z" glyph-name="Z" horiz-adv-x="623" d="M-7 0L10 94L475 596H116L136 710H673L657 616L192 114H580L550 0H-7Z" />
<glyph unicode="[" glyph-name="bracketleft" horiz-adv-x="307" d="M-7 -200L159 740H385L369 647H262L129 -107H235L219 -200H-7Z" />
<glyph unicode="\" glyph-name="backslash" horiz-adv-x="359" d="M279 -200H167L79 740H191L279 -200Z" />
<glyph unicode="]" glyph-name="bracketright" horiz-adv-x="307" d="M-72 -200L-56 -107H52L185 647H77L94 740H320L154 -200H-72Z" />
<glyph unicode="^" glyph-name="asciicircum" horiz-adv-x="600" d="M399 600L529 107H422L335 452L126 107H7L310 600H399Z" />
<glyph unicode="_" glyph-name="underscore" horiz-adv-x="516" d="M-36 -102L-18 0H444L426 -102H-36Z" />
<glyph unicode="`" glyph-name="grave" horiz-adv-x="643" d="M287 573L176 718L313 750L400 573H287Z" />
<glyph unicode="a" glyph-name="a" horiz-adv-x="602" d="M214 -9Q130 -9 82 40T34 179Q34 250 57 310T121 416T219 487T341 513Q430 513 483 468L500 503H586Q578 464 569 418T550 324L523 172Q515 122 510 76T505 0H384Q384 25 387 52T396 106Q362 47 317 19T214
-9ZM250 99Q313 99 360 155T424 306L436 376Q403 407 344 407Q288 407 247 379T184 303T161 197Q161 99 250 99Z" />
<glyph unicode="b" glyph-name="b" horiz-adv-x="602" d="M262 -9Q173 -9 120 35L104 0H18Q25 39 34 85T52 180L152 743H274L232 505L210 403Q277 513 389 513Q473 513 521 463T569 324Q569 254 546 193T482 87T384 16T262 -9ZM259 97Q315 97 356 125T419 201T442
306Q442 405 352 405Q290 405 243 349T179 197L167 128Q199 97 259 97Z" />
<glyph unicode="c" glyph-name="c" horiz-adv-x="493" d="M252 -9Q150 -9 93 44T35 189Q35 254 57 312T119 416T216 487T340 513Q471 513 520 410L422 344Q400 404 329 404Q279 405 242 377T183 303T161 202Q161 152 188 126T271 99Q305 99 336 114T391 161L466
91Q429 41 375 16T252 -9Z" />
<glyph unicode="d" glyph-name="d" horiz-adv-x="602" d="M214 -9Q130 -9 82 40T34 179Q34 250 57 310T121 416T219 487T341 513Q408 513 457 486L460 505L501 740H624L523 172Q515 122 510 76T505 0H384Q384 25 387 52T396 106Q362 47 317 19T214 -9ZM250 99Q313
99 360 155T424 306L436 376Q403 407 344 407Q288 407 247 379T184 303T161 197Q161 99 250 99Z" />
<glyph unicode="e" glyph-name="e" horiz-adv-x="543" d="M264 -9Q161 -9 99 46T36 199Q37 286 75 357T180 471T336 513Q421 513 470 473T519 368Q519 302 472 259T333 210L157 199Q159 151 193 124T285 97Q320 97 357 112T418 153L474 78Q403 -9 264 -9ZM327
421Q266 421 225 384T170 288L323 297Q368 300 388 317T409 364Q409 390 389 405T327 421Z" />
<glyph unicode="f" glyph-name="f" horiz-adv-x="362" d="M46 0L118 403H21L39 505H136L141 536Q160 640 225 695T381 750Q454 750 496 714T537 604L430 592Q430 618 414 632T369 647Q281 647 263 543L256 505H406L388 403H240L169 0H46Z" />
<glyph unicode="g" glyph-name="g" horiz-adv-x="606" d="M181 -210Q128 -210 79 -200T1 -171L43 -65Q108 -102 193 -102Q277 -102 322 -62T389 72L399 119Q365 61 320 34T216 7Q132 7 84 54T35 189Q35 257 58 316T123 419T221 488T344 513Q388 513 425 501T487
469L503 503H589Q581 464 572 418T554 324L513 87Q486 -65 405 -137T181 -210ZM251 114Q316 114 364 168T428 311L440 377Q407 407 346 407Q290 407 249 380T185 308T162 208Q162 114 251 114Z" />
<glyph unicode="h" glyph-name="h" horiz-adv-x="603" d="M20 0L150 740H273L231 505L199 366Q238 437 292 475T415 513Q499 513 537 457T552 293L518 136Q511 102 508 68T504 0H380Q380 64 394 128L429 289Q441 346 426 372T370 399Q324 399 282 364T205 241T142 0H20Z" />
<glyph unicode="i" glyph-name="i" horiz-adv-x="252" d="M29 0Q29 31 33 63T43 128L79 334Q88 387 94 427T103 505H226Q223 462 216 416T201 332L166 136Q160 102 157 68T153 0H29ZM193 585Q157 585 136 607T115 660Q115 691 136 713T193 735Q229 735 250 713T271
660Q271 629 250 607T193 585Z" />
<glyph unicode="j" glyph-name="j" horiz-adv-x="264" d="M90 334Q99 387 104 427T113 505H237Q234 462 227 416T212 332L156 17Q138 -86 79 -144T-94 -203Q-127 -203 -155 -199T-204 -185L-167 -84Q-127 -98 -86 -98Q-33 -98 -5 -69T34 17L90 334ZM459 585Q423
585 402 607T381 660Q381 691 402 713T459 735Q495 735 516 713T537 660Q537 629 516 607T459 585Z" />
<glyph unicode="k" glyph-name="k" horiz-adv-x="527" d="M20 0L151 740H273L196 302L427 504H581L301 259Q319 246 331 222L366 152Q381 120 400 107T446 94Q475 94 503 108L519 18Q494 3 467 -3T412 -9Q355 -8 320 14T259 91L225 161Q204 203 181 218L143 0H20Z" />
<glyph unicode="l" glyph-name="l" horiz-adv-x="292" d="M164 -9Q96 -9 65 32T45 141L151 740H273L169 151Q159 97 209 97Q235 97 255 109L270 20Q251 6 223 -1T164 -9Z" />
<glyph unicode="m" glyph-name="m" horiz-adv-x="946" d="M21 0L80 334Q89 387 94 427T103 505H224Q220 438 197 362Q236 435 290 474T412 513Q473 513 510 482T553 389Q593 449 646 481T762 513Q843 513 881 457T895 293L861 136Q854 102 851 68T847 0H723Q723
64 737 128L772 289Q785 346 770 372T717 399Q673 399 632 364T555 241T493 0H371L422 289Q441 399 367 399Q323 399 282 364T205 241T143 0H21Z" />
<glyph unicode="n" glyph-name="n" horiz-adv-x="603" d="M20 0L79 334Q88 387 94 427T103 505H224Q219 438 197 361Q236 435 291 474T415 513Q499 513 537 457T552 293L518 136Q511 102 508 68T504 0H380Q380 64 394 128L429 289Q441 346 426 372T370 399Q324
399 282 364T205 241T142 0H20Z" />
<glyph unicode="o" glyph-name="o" horiz-adv-x="585" d="M344 513Q437 513 493 461T549 316Q549 247 526 188T462 85T365 16T243 -9Q148 -9 91 42T34 188Q34 250 55 308T117 412T214 486T344 513ZM260 98Q307 98 344 126T402 201T423 302Q423 352 398 378T325
405Q274 405 237 376T181 300T161 202Q161 153 186 126T260 98Z" />
<glyph unicode="p" glyph-name="p" horiz-adv-x="602" d="M388 513Q472 513 520 463T568 324Q568 254 545 193T481 87T383 16T261 -9Q194 -9 145 18L142 -1L107 -200H-15L79 334Q88 387 93 427T102 505H223Q221 477 217 450T206 398Q240 457 285 485T388 513ZM351
405Q289 405 242 349T178 197L166 128Q198 97 258 97Q314 97 355 125T418 201T441 306Q441 405 351 405Z" />
<glyph unicode="q" glyph-name="q" horiz-adv-x="602" d="M585 505Q577 465 569 419T551 324L458 -200H336L371 -1L393 100Q326 -9 214 -9Q130 -9 82 40T34 179Q34 250 57 310T121 416T219 487T341 513Q430 513 483 468L499 505H585ZM250 99Q313 99 360 155T424
306L436 376Q403 407 344 407Q288 407 247 379T184 303T161 197Q161 99 250 99Z" />
<glyph unicode="r" glyph-name="r" horiz-adv-x="408" d="M412 387Q394 394 366 394Q311 394 270 355T199 229T143 0H21L80 334Q89 387 95 427T104 505H225Q223 477 216 441T200 366Q241 445 293 479T398 513Q414 513 428 511T453 505L412 387Z" />
<glyph unicode="s" glyph-name="s" horiz-adv-x="472" d="M206 -9Q107 -9 55 31T0 141L106 166Q107 87 211 87Q257 87 283 102T309 144Q309 164 292 175T246 193T187 208T128 231T82 271T64 337Q64 393 95 432T177 492T284 513Q361 513 408 476T463 381L358 354Q352
416 276 416Q237 416 212 399T186 355Q186 334 204 323T249 303T308 287T367 264T412 226T430 162Q430 106 398 68T315 11T206 -9Z" />
<glyph unicode="t" glyph-name="t" horiz-adv-x="405" d="M240 -9Q179 -9 140 16T84 84T78 184L120 403H33L51 505H139L159 609H281L261 505H425L407 403H241L200 185Q192 144 208 121T269 97Q294 97 315 103T360 125L380 31Q354 10 318 1T240 -9Z" />
<glyph unicode="u" glyph-name="u" horiz-adv-x="591" d="M183 -9Q102 -9 66 46T50 210L73 334Q83 387 88 427T97 505H220Q217 462 210 416T195 332L173 217Q163 163 177 134T235 105Q265 105 294 124T352 188T406 311T452 505H571L512 172Q504 122 499 76T494
0H373Q373 31 378 66T393 138Q355 66 302 29T183 -9Z" />
<glyph unicode="v" glyph-name="v" horiz-adv-x="524" d="M453 505H581L302 0H128L57 505H183L235 99L453 505Z" />
<glyph unicode="w" glyph-name="w" horiz-adv-x="865" d="M789 505H915L647 0H497L457 337L279 0H129L60 505H183L227 119L427 505H546L590 116L789 505Z" />
<glyph unicode="x" glyph-name="x" horiz-adv-x="501" d="M-53 0L180 263L45 505H184L264 357L393 505H544L320 254L462 0H323L237 160L98 0H-53Z" />
<glyph unicode="y" glyph-name="y" horiz-adv-x="596" d="M171 -210Q126 -210 77 -201T-1 -171L37 -65Q68 -82 104 -92T185 -102Q273 -102 318 -61T383 72L396 131Q354 68 302 38T194 7Q109 7 72 64T52 222L73 334Q82 386 88 426T97 505H220Q217 462 210 416T195
332L176 232Q167 180 180 151T236 121Q281 121 322 156T397 275T457 505H575L502 87Q483 -22 440 -87T330 -181T171 -210Z" />
<glyph unicode="z" glyph-name="z" horiz-adv-x="459" d="M-14 0L1 91L301 403H66L84 505H477L461 417L161 102H404L387 0H-14Z" />
<glyph unicode="{" glyph-name="braceleft" horiz-adv-x="393" d="M245 -206Q160 -199 116 -161T72 -63Q72 -30 85 0T114 58T144 113T157 166Q157 195 135 212T58 229L71 313Q134 313 167 337T200 413Q200 445 191 483T182 560Q182 618 212 658T295 721T412 748L414
669Q365 666 337 640T308 566Q308 532 317 500T327 429Q327 362 285 323T174 271Q229 258 254 228T279 159Q279 125 267 98T238 45T210 -6T198 -62Q198 -94 217 -112T271 -135L245 -206Z" />
<glyph unicode="|" glyph-name="bar" horiz-adv-x="288" d="M3 -200L169 740H291L125 -200H3Z" />
<glyph unicode="}" glyph-name="braceright" horiz-adv-x="393" d="M-12 -206L-14 -127Q36 -124 64 -98T92 -24Q92 10 83 42T73 113Q73 180 115 219T226 271Q171 284 147 314T122 383Q122 417 134 444T162 497T190 548T203 604Q203 636 183 654T129 677L155 748Q241
741 284 703T328 605Q328 572 315 542T286 484T257 429T244 376Q244 347 266 330T343 313L329 229Q266 229 233 205T200 129Q200 97 209 59T218 -18Q218 -76 188 -116T106 -179T-12 -206Z" />
<glyph unicode="~" glyph-name="asciitilde" horiz-adv-x="600" d="M393 169Q371 169 344 177T288 197T234 216T190 225Q162 225 141 214T102 178L51 235Q77 284 118 310T207 336Q229 336 256 328T312 308T366 289T410 281Q438 281 459 292T498 327L549 270Q523
221 482 195T393 169Z" />
<glyph unicode="&#xa0;" glyph-name="uni00A0" horiz-adv-x="243" />
<glyph unicode="&#xa1;" glyph-name="exclamdown" horiz-adv-x="241" d="M152 361Q116 361 94 382T72 437Q72 470 94 492T152 514Q188 514 210 492T232 437Q232 405 210 383T152 361ZM-38 -200L84 291H168L101 -200H-38Z" />
<glyph unicode="&#xa2;" glyph-name="cent" horiz-adv-x="600" d="M221 -120L242 -5Q164 8 121 59T77 189Q77 268 109 336T198 450T332 509L353 625H439L419 511Q520 499 563 410L464 344Q453 376 430 390T371 404Q322 405 284 377T225 303T204 202Q204 152 231
126T313 99Q348 99 378 114T433 161L509 91Q443 4 327 -8L307 -120H221Z" />
<glyph unicode="&#xa3;" glyph-name="sterling" horiz-adv-x="600" d="M48 -12L10 71Q73 96 112 145T151 256Q151 269 150 283T146 313H24L39 398H134Q132 421 132 442Q132 530 167 592T265 687T411 720Q506 720 561 675T627 543L520 501Q507 609 401 609Q328
609 293 567T257 447Q257 434 258 422T260 398H429L413 313H273Q274 301 274 289Q274 247 260 206T217 132Q230 135 246 135Q271 135 297 126T349 109T399 100Q452 100 488 147L550 90Q521 44 475 17T379 -11Q352 -11 316 -1T242 20T174 30Q108 30 48 -12Z" />
<glyph unicode="&#xa4;" glyph-name="currency" horiz-adv-x="600" d="M121 82L55 148L116 209Q96 239 86 274T75 348Q75 385 85 420T114 484L55 543L121 609L178 552Q207 574 243 586T319 599Q358 599 393 587T458 555L517 614L583 548L523 487Q542 457 553 422T564
348Q564 308 553 272T521 206L577 149L511 83L455 140Q426 120 392 109T319 98Q281 98 246 109T180 142L121 82ZM320 199Q358 199 390 219T441 273T460 348Q460 389 441 423T390 477T320 497Q281 498 249 478T198 423T179 348Q179 307 197 273T248 219T320 199Z"
/>
<glyph unicode="&#xa5;" glyph-name="yen" horiz-adv-x="600" d="M56 137L72 222H232L245 295H84L100 380H234L80 710H219L336 454L537 710H681L412 380H542L527 295H375L362 222H514L499 137H347L323 0H192L216 137H56Z" />
<glyph unicode="&#xa6;" glyph-name="brokenbar" horiz-adv-x="288" d="M104 380L168 740H291L227 380H104ZM2 -200L66 160H189L125 -200H2Z" />
<glyph unicode="&#xa7;" glyph-name="section" horiz-adv-x="515" d="M216 -10Q128 -10 83 27T34 122L137 149Q139 120 160 103T222 86Q266 86 288 103T310 149Q310 169 293 181T247 201T187 217T127 239T82 275T64 333Q64 381 89 412T155 461Q139 476 130 496T120
546Q120 601 150 640T229 699T335 720Q424 720 469 683T517 588L414 561Q413 590 392 607T329 624Q285 624 263 607T241 561Q241 541 259 529T305 509T364 493T424 471T470 435T488 377Q488 329 463 298T396 249Q412 234 421 214T431 164Q431 109 402 70T323 11T216
-10ZM186 363Q186 343 204 332T252 313T313 293Q337 299 351 313T365 347Q365 367 347 378T299 397T238 417Q215 411 201 397T186 363Z" />
<glyph unicode="&#xa8;" glyph-name="dieresis" horiz-adv-x="671" d="M457 568Q421 568 403 589T384 636Q384 662 402 682T457 703Q490 703 508 683T527 636Q527 610 509 589T457 568ZM261 568Q225 568 207 589T188 636Q188 662 206 682T261 703Q294 703 312
683T331 636Q331 610 313 589T261 568Z" />
<glyph unicode="&#xa9;" glyph-name="copyright" horiz-adv-x="823" d="M430 -11Q353 -11 286 16T169 92T91 207T62 349Q62 426 90 491T168 606T285 682T430 709Q507 709 573 682T689 606T767 492T795 349Q795 273 767 207T690 92T574 16T430 -11ZM430 38Q495
38 551 62T650 128T716 227T740 350Q740 416 717 472T651 571T552 636T430 660Q364 660 308 637T209 571T144 473T120 350Q120 284 143 227T209 128T307 62T430 38ZM601 232Q576 192 533 171T436 149Q339 149 285 200T231 342Q231 404 258 451T333 524T444 551Q500
551 537 531T602 470L524 418Q511 443 489 454T444 465Q395 465 365 432T334 344Q334 292 361 263T438 234Q462 234 486 247T526 287L601 232Z" />
<glyph unicode="&#xaa;" glyph-name="ordfeminine" horiz-adv-x="363" d="M360 465H265L273 499Q238 459 187 459Q142 459 113 487T83 568Q83 618 104 659T163 725T250 750Q279 750 299 740T328 713L341 744H409L360 465ZM254 672Q220 672 200 644T180 580Q180
537 219 537Q241 537 257 552T283 588T293 631Q293 672 254 672Z" />
<glyph unicode="&#xab;" glyph-name="guillemotleft" horiz-adv-x="512" d="M117 70L27 229L36 277L181 436H317L144 247L244 70H117ZM333 70L243 229L252 277L397 436H533L360 247L460 70H333Z" />
<glyph unicode="&#xac;" glyph-name="logicalnot" horiz-adv-x="600" d="M63 308H556L502 0H385L420 197H43L63 308Z" />
<glyph unicode="&#xad;" glyph-name="uni00AD" horiz-adv-x="419" d="M51 201L70 311H370L351 201H51Z" />
<glyph unicode="&#xae;" glyph-name="registered" horiz-adv-x="823" d="M430 -11Q352 -11 285 16T168 93T90 207T62 349Q62 425 90 491T168 606T285 682T430 709Q507 709 573 682T690 606T767 491T795 349Q795 273 768 208T690 93T574 17T430 -11ZM430 38Q495
38 551 62T650 128T716 227T740 350Q740 416 717 472T651 570T552 636T430 660Q364 660 308 637T209 571T144 473T120 350Q120 284 143 227T209 128T307 62T430 38ZM564 151Q522 151 498 166T459 205T435 251T413 289T380 305V157H279V548H414Q492 548 534 516T577
424Q577 385 554 356T490 315Q511 303 522 284T544 251T579 236Q600 236 616 246L640 173Q611 151 564 151ZM407 478H380V371H402Q442 371 459 385T476 425Q476 478 407 478Z" />
<glyph unicode="&#xaf;" glyph-name="overscore" horiz-adv-x="625" d="M180 681H508L494 597H166L180 681Z" />
<glyph unicode="&#xb0;" glyph-name="degree" horiz-adv-x="384" d="M247 410Q203 410 168 430T112 484T91 564Q91 608 112 642T168 697T247 717Q291 717 326 697T381 643T402 564Q402 519 382 485T326 430T247 410ZM247 483Q280 483 302 505T325 565Q325 600
303 622T247 645Q214 645 192 623T169 565Q169 528 191 506T247 483Z" />
<glyph unicode="&#xb1;" glyph-name="plusminus" horiz-adv-x="600" d="M291 505H399L376 379H520L502 278H359L336 152H228L251 278H107L125 379H268L291 505ZM9 0L26 100H520L502 0H9Z" />
<glyph unicode="&#xb2;" glyph-name="uni00B2" horiz-adv-x="330" d="M53 382Q87 403 122 429T188 485T236 543T255 599Q255 635 217 635Q193 635 175 620T145 578L80 614Q99 660 142 687T237 715Q288 715 320 689T353 614Q353 551 303 496T174 393H325L312 319H42L53
382Z" />
<glyph unicode="&#xb3;" glyph-name="uni00B3" horiz-adv-x="330" d="M180 313Q149 313 118 321T71 340L95 417Q138 394 183 394Q214 394 232 406T251 444Q251 462 238 472T194 483H166L169 549H189Q219 549 235 562T252 598Q252 635 213 635Q193 635 176 624T147
590L85 632Q103 668 141 691T229 715Q284 715 318 687T351 612Q350 580 332 554T288 519Q348 501 348 439Q348 383 301 348T180 313Z" />
<glyph unicode="&#xb4;" glyph-name="acute" horiz-adv-x="641" d="M285 573L436 750L560 718L398 573H285Z" />
<glyph unicode="&#xb5;" glyph-name="uni00B5" horiz-adv-x="591" d="M453 505H571L482 0H363L387 107Q350 46 306 19T213 -9Q157 -9 132 15L101 -200H-21L103 505H227L173 211Q164 161 178 133T232 105Q265 105 295 123T353 185T406 307T453 505Z" />
<glyph unicode="&#xb6;" glyph-name="paragraph" horiz-adv-x="721" d="M57 451Q57 537 99 594T216 681T384 710H531L406 0H279L326 264H305Q190 264 124 312T57 451ZM602 710H729L604 0H477L602 710Z" />
<glyph unicode="&#xb7;" glyph-name="middot" horiz-adv-x="247" d="M127 185Q88 185 65 208T42 268Q42 303 65 327T127 351Q166 351 189 327T212 268Q212 232 189 209T127 185Z" />
<glyph unicode="&#xb8;" glyph-name="cedilla" horiz-adv-x="618" d="M156 -223Q125 -223 94 -217T44 -200L77 -137Q115 -155 162 -155Q184 -155 198 -147T212 -124Q212 -113 203 -107T171 -101H116L196 18H277L240 -41Q313 -56 313 -117Q313 -164 271 -193T156 -223Z" />
<glyph unicode="&#xb9;" glyph-name="uni00B9" horiz-adv-x="330" d="M71 393H159L192 579L128 539L91 610L257 710H313L257 393H339L327 319H58L71 393Z" />
<glyph unicode="&#xba;" glyph-name="ordmasculine" horiz-adv-x="350" d="M214 459Q153 459 119 491T84 576Q84 623 106 662T169 726T262 750Q322 750 355 718T389 633Q389 585 367 546T305 483T214 459ZM221 534Q245 534 262 548T288 583T298 627Q298 650 286
662T252 675Q218 675 197 647T175 582Q175 534 221 534Z" />
<glyph unicode="&#xbb;" glyph-name="guillemotright" horiz-adv-x="512" d="M180 436L269 277L261 229L116 70H-21L153 259L53 436H180ZM396 436L485 277L477 229L332 70H195L369 259L269 436H396Z" />
<glyph unicode="&#xbc;" glyph-name="onequarter" horiz-adv-x="815" d="M71 393H159L192 579L128 539L91 610L257 710H313L257 393H339L327 319H58L71 393ZM181 0L531 710H634L284 0H181ZM773 88H727L711 0H625L641 88H475L485 148L713 392H781L738 150H784L773
88ZM564 150H652L672 266L564 150Z" />
<glyph unicode="&#xbd;" glyph-name="onehalf" horiz-adv-x="815" d="M71 393H159L192 579L128 539L91 610L257 710H313L257 393H339L327 319H58L71 393ZM181 0L531 710H634L284 0H181ZM482 63Q516 84 551 110T617 166T665 224T684 280Q684 316 646 316Q622 316
604 301T574 259L509 295Q528 341 571 368T666 396Q717 396 749 370T782 295Q782 232 732 177T603 74H754L741 0H471L482 63Z" />
<glyph unicode="&#xbe;" glyph-name="threequarters" horiz-adv-x="815" d="M180 313Q149 313 118 321T71 340L95 417Q138 394 183 394Q214 394 232 406T251 444Q251 462 238 472T194 483H166L169 549H189Q219 549 235 562T252 598Q252 635 213 635Q193 635 176
624T147 590L85 632Q103 668 141 691T229 715Q284 715 318 687T351 612Q350 580 332 554T288 519Q348 501 348 439Q348 383 301 348T180 313ZM181 0L531 710H634L284 0H181ZM773 88H727L711 0H625L641 88H475L485 148L713 392H781L738 150H784L773 88ZM564 150H652L672
266L564 150Z" />
<glyph unicode="&#xbf;" glyph-name="questiondown" horiz-adv-x="511" d="M316 362Q281 362 259 383T236 439Q236 472 258 493T316 515Q350 515 373 494T396 440Q396 406 374 384T316 362ZM184 -211Q102 -211 50 -171T-2 -60Q-2 7 37 54T138 148Q191 187 216
218T252 295L344 290Q337 218 308 169T220 76Q166 36 146 13T126 -37Q126 -66 148 -82T211 -99Q318 -99 374 16L463 -37Q439 -89 397 -128T300 -189T184 -211Z" />
<glyph unicode="&#xc0;" glyph-name="Agrave" horiz-adv-x="688" d="M-55 0L374 710H484L650 0H523L488 162H177L83 0H-55ZM241 271H464L405 551L241 271ZM381 778L270 923L407 955L494 778H381Z" />
<glyph unicode="&#xc1;" glyph-name="Aacute" horiz-adv-x="688" d="M-55 0L374 710H484L650 0H523L488 162H177L83 0H-55ZM241 271H464L405 551L241 271ZM379 778L530 955L654 923L492 778H379Z" />
<glyph unicode="&#xc2;" glyph-name="Acircumflex" horiz-adv-x="688" d="M-55 0L374 710H484L650 0H523L488 162H177L83 0H-55ZM241 271H464L405 551L241 271ZM620 778H509L459 869L376 778H256L416 945H519L620 778Z" />
<glyph unicode="&#xc3;" glyph-name="Atilde" horiz-adv-x="688" d="M-55 0L374 710H484L650 0H523L488 162H177L83 0H-55ZM241 271H464L405 551L241 271ZM518 773Q491 773 463 787T409 815T362 830Q345 830 326 817T293 779L248 818Q269 869 304 895T382 921Q409
921 437 907T492 879T538 864Q557 864 575 877T608 916L652 876Q632 826 597 800T518 773Z" />
<glyph unicode="&#xc4;" glyph-name="Adieresis" horiz-adv-x="688" d="M-55 0L374 710H484L650 0H523L488 162H177L83 0H-55ZM241 271H464L405 551L241 271ZM548 773Q512 773 494 794T475 841Q475 867 493 888T548 909Q581 909 599 888T618 841Q618 816 600 795T548
773ZM352 773Q316 773 298 794T279 841Q279 867 297 888T352 909Q385 909 403 888T422 841Q422 816 404 795T352 773Z" />
<glyph unicode="&#xc5;" glyph-name="Aring" horiz-adv-x="688" d="M-55 0L374 710H484L650 0H523L488 162H177L83 0H-55ZM241 271H464L405 551L241 271ZM456 773Q407 773 374 804T341 881Q341 927 375 959T459 991Q507 991 539 961T572 885Q572 837 539 805T456
773ZM457 824Q482 824 498 841T514 885Q514 909 498 924T458 940Q432 940 416 923T399 881Q399 856 415 840T457 824Z" />
<glyph unicode="&#xc6;" glyph-name="AE" horiz-adv-x="928" d="M-55 0L374 710H974L954 598H635L603 415H906L886 303H583L549 112H880L851 0H401L429 161H177L83 0H-55ZM242 273H449L506 598H432L242 273Z" />
<glyph unicode="&#xc7;" glyph-name="Ccedilla" horiz-adv-x="668" d="M654 138Q605 66 526 29T354 -9Q262 -9 195 24T91 119T54 268Q54 361 86 443T175 588T310 685T479 720Q570 720 634 685T727 579L616 508Q598 557 557 580T463 604Q403 604 353 579T265 509T208
406T187 281Q187 198 233 153T366 108Q423 108 476 133T570 213L654 138ZM289 -223Q258 -223 227 -217T177 -200L210 -137Q248 -155 295 -155Q317 -155 331 -147T345 -124Q345 -113 336 -107T304 -101H249L329 18H410L373 -41Q446 -56 446 -117Q446 -164 404 -193T289
-223Z" />
<glyph unicode="&#xc8;" glyph-name="Egrave" horiz-adv-x="565" d="M176 112H517L488 0H28L153 710H612L591 598H262L229 415H543L523 303H210L176 112ZM338 778L227 923L364 955L451 778H338Z" />
<glyph unicode="&#xc9;" glyph-name="Eacute" horiz-adv-x="565" d="M176 112H517L488 0H28L153 710H612L591 598H262L229 415H543L523 303H210L176 112ZM336 778L487 955L611 923L449 778H336Z" />
<glyph unicode="&#xca;" glyph-name="Ecircumflex" horiz-adv-x="565" d="M176 112H517L488 0H28L153 710H612L591 598H262L229 415H543L523 303H210L176 112ZM577 778H466L416 869L333 778H213L373 945H476L577 778Z" />
<glyph unicode="&#xcb;" glyph-name="Edieresis" horiz-adv-x="565" d="M176 112H517L488 0H28L153 710H612L591 598H262L229 415H543L523 303H210L176 112ZM505 773Q469 773 451 794T432 841Q432 867 450 888T505 909Q538 909 556 888T575 841Q575 816 557 795T505
773ZM309 773Q273 773 255 794T236 841Q236 867 254 888T309 909Q342 909 360 888T379 841Q379 816 361 795T309 773Z" />
<glyph unicode="&#xcc;" glyph-name="Igrave" horiz-adv-x="276" d="M28 0L153 710H283L158 0H28ZM430 778L319 923L456 955L543 778H430Z" />
<glyph unicode="&#xcd;" glyph-name="Iacute" horiz-adv-x="276" d="M28 0L153 710H283L158 0H28ZM428 778L579 955L703 923L541 778H428Z" />
<glyph unicode="&#xce;" glyph-name="Icircumflex" horiz-adv-x="276" d="M28 0L153 710H283L158 0H28ZM668 778H557L507 869L424 778H304L464 945H567L668 778Z" />
<glyph unicode="&#xcf;" glyph-name="Idieresis" horiz-adv-x="276" d="M28 0L153 710H283L158 0H28ZM596 773Q560 773 542 794T523 841Q523 867 541 888T596 909Q629 909 647 888T666 841Q666 816 648 795T596 773ZM400 773Q364 773 346 794T327 841Q327 867
345 888T400 909Q433 909 451 888T470 841Q470 816 452 795T400 773Z" />
<glyph unicode="&#xd0;" glyph-name="Eth" horiz-adv-x="748" d="M28 0L153 710H360Q538 710 632 636T727 423Q727 329 695 251T605 117T467 31T290 0H28ZM179 115H301Q394 115 460 151T560 254T595 411Q595 502 537 548T357 595H263L179 115ZM277 570L294 662H671L655
570H277Z" />
<glyph unicode="&#xd1;" glyph-name="Ntilde" horiz-adv-x="738" d="M620 710H746L621 0H506L242 505L153 0H28L153 710H268L532 205L620 710ZM542 774Q515 774 487 788T433 816T386 831Q369 831 350 818T317 780L272 819Q293 870 328 896T406 922Q433 922 461
908T516 880T562 865Q581 865 599 878T632 917L676 877Q656 827 621 801T542 774Z" />
<glyph unicode="&#xd2;" glyph-name="Ograve" horiz-adv-x="777" d="M349 -9Q259 -9 193 24T90 119T54 268Q54 361 85 443T174 588T308 685T476 720Q562 720 625 685T723 587T758 438Q758 347 727 266T641 123T511 26T349 -9ZM362 108Q420 108 468 133T551 202T605
305T625 428Q625 510 582 557T461 604Q401 604 351 579T264 509T207 406T187 281Q187 198 232 153T362 108ZM424 778L313 923L450 955L537 778H424Z" />
<glyph unicode="&#xd3;" glyph-name="Oacute" horiz-adv-x="777" d="M349 -9Q259 -9 193 24T90 119T54 268Q54 361 85 443T174 588T308 685T476 720Q562 720 625 685T723 587T758 438Q758 347 727 266T641 123T511 26T349 -9ZM362 108Q420 108 468 133T551 202T605
305T625 428Q625 510 582 557T461 604Q401 604 351 579T264 509T207 406T187 281Q187 198 232 153T362 108ZM422 778L573 955L697 923L535 778H422Z" />
<glyph unicode="&#xd4;" glyph-name="Ocircumflex" horiz-adv-x="777" d="M349 -9Q259 -9 193 24T90 119T54 268Q54 361 85 443T174 588T308 685T476 720Q562 720 625 685T723 587T758 438Q758 347 727 266T641 123T511 26T349 -9ZM362 108Q420 108 468 133T551
202T605 305T625 428Q625 510 582 557T461 604Q401 604 351 579T264 509T207 406T187 281Q187 198 232 153T362 108ZM663 778H552L502 869L419 778H299L459 945H562L663 778Z" />
<glyph unicode="&#xd5;" glyph-name="Otilde" horiz-adv-x="777" d="M349 -9Q259 -9 193 24T90 119T54 268Q54 361 85 443T174 588T308 685T476 720Q562 720 625 685T723 587T758 438Q758 347 727 266T641 123T511 26T349 -9ZM362 108Q420 108 468 133T551 202T605
305T625 428Q625 510 582 557T461 604Q401 604 351 579T264 509T207 406T187 281Q187 198 232 153T362 108ZM561 773Q534 773 506 787T452 815T405 830Q388 830 369 817T336 779L291 818Q312 869 347 895T425 921Q452 921 480 907T535 879T581 864Q600 864 618
877T651 916L695 876Q675 826 640 800T561 773Z" />
<glyph unicode="&#xd6;" glyph-name="Odieresis" horiz-adv-x="777" d="M349 -9Q259 -9 193 24T90 119T54 268Q54 361 85 443T174 588T308 685T476 720Q562 720 625 685T723 587T758 438Q758 347 727 266T641 123T511 26T349 -9ZM362 108Q420 108 468 133T551
202T605 305T625 428Q625 510 582 557T461 604Q401 604 351 579T264 509T207 406T187 281Q187 198 232 153T362 108ZM591 773Q555 773 537 794T518 841Q518 867 536 888T591 909Q624 909 642 888T661 841Q661 816 643 795T591 773ZM395 773Q359 773 341 794T322
841Q322 867 340 888T395 909Q428 909 446 888T465 841Q465 816 447 795T395 773Z" />
<glyph unicode="&#xd7;" glyph-name="multiply" horiz-adv-x="600" d="M165 38L86 117L221 252L86 387L165 466L300 331L435 466L514 387L379 252L514 117L435 38L300 173L165 38Z" />
<glyph unicode="&#xd8;" glyph-name="Oslash" horiz-adv-x="777" d="M349 -9Q259 -9 193 24T90 119T54 268Q54 361 85 443T174 588T308 685T476 720Q562 720 625 685T723 587T758 438Q758 347 727 266T641 123T511 26T349 -9ZM362 108Q420 108 468 133T551 202T605
305T625 428Q625 510 582 557T461 604Q401 604 351 579T264 509T207 406T187 281Q187 198 232 153T362 108ZM126 -4L54 62L686 714L758 648L126 -4Z" />
<glyph unicode="&#xd9;" glyph-name="Ugrave" horiz-adv-x="745" d="M626 710H755L689 330Q631 -9 341 -9Q192 -9 123 73T78 301L150 710H281L211 311Q175 108 352 108Q441 108 491 162T562 338L626 710ZM408 778L297 923L434 955L521 778H408Z" />
<glyph unicode="&#xda;" glyph-name="Uacute" horiz-adv-x="745" d="M626 710H755L689 330Q631 -9 341 -9Q192 -9 123 73T78 301L150 710H281L211 311Q175 108 352 108Q441 108 491 162T562 338L626 710ZM406 778L557 955L681 923L519 778H406Z" />
<glyph unicode="&#xdb;" glyph-name="Ucircumflex" horiz-adv-x="745" d="M626 710H755L689 330Q631 -9 341 -9Q192 -9 123 73T78 301L150 710H281L211 311Q175 108 352 108Q441 108 491 162T562 338L626 710ZM647 778H536L486 869L403 778H283L443 945H546L647 778Z" />
<glyph unicode="&#xdc;" glyph-name="Udieresis" horiz-adv-x="745" d="M626 710H755L689 330Q631 -9 341 -9Q192 -9 123 73T78 301L150 710H281L211 311Q175 108 352 108Q441 108 491 162T562 338L626 710ZM575 773Q539 773 521 794T502 841Q502 867 520 888T575
909Q608 909 626 888T645 841Q645 816 627 795T575 773ZM379 773Q343 773 325 794T306 841Q306 867 324 888T379 909Q412 909 430 888T449 841Q449 816 431 795T379 773Z" />
<glyph unicode="&#xdd;" glyph-name="Yacute" horiz-adv-x="587" d="M689 710L370 318L314 0H183L240 318L55 710H195L323 433L545 710H689ZM330 778L481 955L605 923L443 778H330Z" />
<glyph unicode="&#xde;" glyph-name="Thorn" horiz-adv-x="627" d="M28 0L154 710H281L262 603H378Q497 603 566 558T635 418Q635 328 592 271T472 185T294 157H183L155 0H28ZM358 497H244L202 264H316Q409 264 457 297T505 404Q505 454 467 475T358 497Z" />
<glyph unicode="&#xdf;" glyph-name="germandbls" horiz-adv-x="685" d="M21 403L39 505H136Q163 619 245 684T445 750Q529 750 578 715T627 620Q627 577 608 546T561 492T505 449T458 411T439 369Q439 350 455 338T496 317T550 297T604 271T646 231T662 168Q662
113 634 74T556 13T446 -9Q356 -9 305 29T251 135L365 161Q368 87 455 87Q496 87 518 101T541 142Q541 163 525 176T484 198T431 218T377 242T335 279T319 337Q319 382 339 413T388 467T447 510T497 552T517 603Q517 628 496 641T436 655Q361 655 315 611T253 483L169
0H46L117 403H21Z" />
<glyph unicode="&#xe0;" glyph-name="agrave" horiz-adv-x="602" d="M214 -9Q130 -9 82 40T34 179Q34 250 57 310T121 416T219 487T341 513Q430 513 483 468L500 503H586Q578 464 569 418T550 324L523 172Q515 122 510 76T505 0H384Q384 25 387 52T396 106Q362
47 317 19T214 -9ZM250 99Q313 99 360 155T424 306L436 376Q403 407 344 407Q288 407 247 379T184 303T161 197Q161 99 250 99ZM316 573L205 718L342 750L429 573H316Z" />
<glyph unicode="&#xe1;" glyph-name="aacute" horiz-adv-x="602" d="M214 -9Q130 -9 82 40T34 179Q34 250 57 310T121 416T219 487T341 513Q430 513 483 468L500 503H586Q578 464 569 418T550 324L523 172Q515 122 510 76T505 0H384Q384 25 387 52T396 106Q362
47 317 19T214 -9ZM250 99Q313 99 360 155T424 306L436 376Q403 407 344 407Q288 407 247 379T184 303T161 197Q161 99 250 99ZM314 573L465 750L589 718L427 573H314Z" />
<glyph unicode="&#xe2;" glyph-name="acircumflex" horiz-adv-x="602" d="M214 -9Q130 -9 82 40T34 179Q34 250 57 310T121 416T219 487T341 513Q430 513 483 468L500 503H586Q578 464 569 418T550 324L523 172Q515 122 510 76T505 0H384Q384 25 387 52T396 106Q362
47 317 19T214 -9ZM250 99Q313 99 360 155T424 306L436 376Q403 407 344 407Q288 407 247 379T184 303T161 197Q161 99 250 99ZM555 573H444L394 663L311 573H191L351 740H454L555 573Z" />
<glyph unicode="&#xe3;" glyph-name="atilde" horiz-adv-x="602" d="M214 -9Q130 -9 82 40T34 179Q34 250 57 310T121 416T219 487T341 513Q430 513 483 468L500 503H586Q578 464 569 418T550 324L523 172Q515 122 510 76T505 0H384Q384 25 387 52T396 106Q362
47 317 19T214 -9ZM250 99Q313 99 360 155T424 306L436 376Q403 407 344 407Q288 407 247 379T184 303T161 197Q161 99 250 99ZM453 567Q426 567 398 581T344 610T297 624Q280 624 261 611T228 574L183 613Q204 663 239 689T317 716Q344 716 372 702T427 673T473
659Q492 659 510 672T543 710L587 671Q567 620 532 594T453 567Z" />
<glyph unicode="&#xe4;" glyph-name="adieresis" horiz-adv-x="602" d="M214 -9Q130 -9 82 40T34 179Q34 250 57 310T121 416T219 487T341 513Q430 513 483 468L500 503H586Q578 464 569 418T550 324L523 172Q515 122 510 76T505 0H384Q384 25 387 52T396 106Q362
47 317 19T214 -9ZM250 99Q313 99 360 155T424 306L436 376Q403 407 344 407Q288 407 247 379T184 303T161 197Q161 99 250 99ZM483 568Q447 568 429 589T410 636Q410 662 428 682T483 703Q516 703 534 683T553 636Q553 610 535 589T483 568ZM287 568Q251 568 233
589T214 636Q214 662 232 682T287 703Q320 703 338 683T357 636Q357 610 339 589T287 568Z" />
<glyph unicode="&#xe5;" glyph-name="aring" horiz-adv-x="602" d="M214 -9Q130 -9 82 40T34 179Q34 250 57 310T121 416T219 487T341 513Q430 513 483 468L500 503H586Q578 464 569 418T550 324L523 172Q515 122 510 76T505 0H384Q384 25 387 52T396 106Q362
47 317 19T214 -9ZM250 99Q313 99 360 155T424 306L436 376Q403 407 344 407Q288 407 247 379T184 303T161 197Q161 99 250 99ZM391 568Q342 568 309 599T276 675Q276 722 310 753T394 785Q442 785 474 755T507 679Q507 632 474 600T391 568ZM392 619Q417 619 433
635T449 679Q449 704 433 719T393 735Q367 735 351 718T334 675Q334 650 350 635T392 619Z" />
<glyph unicode="&#xe6;" glyph-name="ae" horiz-adv-x="855" d="M201 -9Q114 -9 65 28T16 128Q16 208 76 254T239 300H364L366 314Q384 413 288 413Q201 413 165 335L61 355Q90 429 155 471T306 513Q362 513 404 493T464 428Q499 468 548 490T657 513Q736 513
783 473T831 368Q831 302 786 258T659 214H474Q470 159 504 128T599 97Q633 97 669 112T730 153L786 78Q751 35 698 13T581 -9Q515 -9 470 17T399 90Q366 41 313 16T201 -9ZM641 421Q585 421 546 388T490 300H651Q682 300 701 316T721 362Q721 386 703 403T641
421ZM217 86Q268 86 302 116T346 202L348 214H234Q189 214 164 195T138 144Q138 86 217 86Z" />
<glyph unicode="&#xe7;" glyph-name="ccedilla" horiz-adv-x="493" d="M252 -9Q150 -9 93 44T35 189Q35 254 57 312T119 416T216 487T340 513Q471 513 520 410L422 344Q400 404 329 404Q279 405 242 377T183 303T161 202Q161 152 188 126T271 99Q305 99 336 114T391
161L466 91Q429 41 375 16T252 -9ZM181 -223Q150 -223 119 -217T69 -200L102 -137Q140 -155 187 -155Q209 -155 223 -147T237 -124Q237 -113 228 -107T196 -101H141L221 18H302L265 -41Q338 -56 338 -117Q338 -164 296 -193T181 -223Z" />
<glyph unicode="&#xe8;" glyph-name="egrave" horiz-adv-x="543" d="M264 -9Q161 -9 99 46T36 199Q37 286 75 357T180 471T336 513Q421 513 470 473T519 368Q519 302 472 259T333 210L157 199Q159 151 193 124T285 97Q320 97 357 112T418 153L474 78Q403 -9 264
-9ZM327 421Q266 421 225 384T170 288L323 297Q368 300 388 317T409 364Q409 390 389 405T327 421ZM289 573L178 718L315 750L402 573H289Z" />
<glyph unicode="&#xe9;" glyph-name="eacute" horiz-adv-x="543" d="M264 -9Q161 -9 99 46T36 199Q37 286 75 357T180 471T336 513Q421 513 470 473T519 368Q519 302 472 259T333 210L157 199Q159 151 193 124T285 97Q320 97 357 112T418 153L474 78Q403 -9 264
-9ZM327 421Q266 421 225 384T170 288L323 297Q368 300 388 317T409 364Q409 390 389 405T327 421ZM287 573L438 750L562 718L400 573H287Z" />
<glyph unicode="&#xea;" glyph-name="ecircumflex" horiz-adv-x="543" d="M264 -9Q161 -9 99 46T36 199Q37 286 75 357T180 471T336 513Q421 513 470 473T519 368Q519 302 472 259T333 210L157 199Q159 151 193 124T285 97Q320 97 357 112T418 153L474 78Q403
-9 264 -9ZM327 421Q266 421 225 384T170 288L323 297Q368 300 388 317T409 364Q409 390 389 405T327 421ZM528 573H417L367 663L284 573H164L324 740H427L528 573Z" />
<glyph unicode="&#xeb;" glyph-name="edieresis" horiz-adv-x="543" d="M264 -9Q161 -9 99 46T36 199Q37 286 75 357T180 471T336 513Q421 513 470 473T519 368Q519 302 472 259T333 210L157 199Q159 151 193 124T285 97Q320 97 357 112T418 153L474 78Q403 -9
264 -9ZM327 421Q266 421 225 384T170 288L323 297Q368 300 388 317T409 364Q409 390 389 405T327 421ZM712 568Q676 568 658 589T639 636Q639 662 657 682T712 703Q745 703 763 683T782 636Q782 610 764 589T712 568ZM516 568Q480 568 462 589T443 636Q443 662
461 682T516 703Q549 703 567 683T586 636Q586 610 568 589T516 568Z" />
<glyph unicode="&#xec;" glyph-name="igrave" horiz-adv-x="252" d="M29 0Q29 31 33 63T43 128L79 334Q88 387 94 427T103 505H226Q223 462 216 416T201 332L166 136Q160 102 157 68T153 0H29ZM120 573L9 718L146 750L233 573H120Z" />
<glyph unicode="&#xed;" glyph-name="iacute" horiz-adv-x="252" d="M29 0Q29 31 33 63T43 128L79 334Q88 387 94 427T103 505H226Q223 462 216 416T201 332L166 136Q160 102 157 68T153 0H29ZM118 573L269 750L393 718L231 573H118Z" />
<glyph unicode="&#xee;" glyph-name="icircumflex" horiz-adv-x="252" d="M29 0Q29 31 33 63T43 128L79 334Q88 387 94 427T103 505H226Q223 462 216 416T201 332L166 136Q160 102 157 68T153 0H29ZM359 573H248L198 663L115 573H-5L155 740H258L359 573Z" />
<glyph unicode="&#xef;" glyph-name="idieresis" horiz-adv-x="252" d="M29 0Q29 31 33 63T43 128L79 334Q88 387 94 427T103 505H226Q223 462 216 416T201 332L166 136Q160 102 157 68T153 0H29ZM287 568Q251 568 233 589T214 636Q214 662 232 682T287 703Q320
703 338 683T357 636Q357 610 339 589T287 568ZM91 568Q55 568 37 589T18 636Q18 662 36 682T91 703Q124 703 142 683T161 636Q161 610 143 589T91 568Z" />
<glyph unicode="&#xf0;" glyph-name="eth" horiz-adv-x="588" d="M247 -9Q150 -9 92 44T34 188Q34 246 56 297T116 387T206 448T317 470Q409 470 447 410Q442 494 393 555L208 506L190 577L329 614Q284 644 223 664L279 755Q393 718 463 650L588 683L606 612L514
588Q567 503 567 389Q567 308 546 236T483 109T382 22T247 -9ZM266 98Q312 98 346 121T401 183T421 268Q421 313 395 340T320 367Q272 367 236 344T181 284T161 201Q161 155 187 127T266 98Z" />
<glyph unicode="&#xf1;" glyph-name="ntilde" horiz-adv-x="603" d="M20 0L79 334Q88 387 94 427T103 505H224Q219 438 197 361Q236 435 291 474T415 513Q499 513 537 457T552 293L518 136Q511 102 508 68T504 0H380Q380 64 394 128L429 289Q441 346 426 372T370
399Q324 399 282 364T205 241T142 0H20ZM440 567Q413 567 385 581T331 610T284 624Q267 624 248 611T215 574L170 613Q191 663 226 689T304 716Q331 716 359 702T414 673T460 659Q479 659 497 672T530 710L574 671Q554 620 519 594T440 567Z" />
<glyph unicode="&#xf2;" glyph-name="ograve" horiz-adv-x="585" d="M344 513Q437 513 493 461T549 316Q549 247 526 188T462 85T365 16T243 -9Q148 -9 91 42T34 188Q34 250 55 308T117 412T214 486T344 513ZM260 98Q307 98 344 126T402 201T423 302Q423 352 398
378T325 405Q274 405 237 376T181 300T161 202Q161 153 186 126T260 98ZM293 573L182 718L319 750L406 573H293Z" />
<glyph unicode="&#xf3;" glyph-name="oacute" horiz-adv-x="585" d="M344 513Q437 513 493 461T549 316Q549 247 526 188T462 85T365 16T243 -9Q148 -9 91 42T34 188Q34 250 55 308T117 412T214 486T344 513ZM260 98Q307 98 344 126T402 201T423 302Q423 352 398
378T325 405Q274 405 237 376T181 300T161 202Q161 153 186 126T260 98ZM291 573L442 750L566 718L404 573H291Z" />
<glyph unicode="&#xf4;" glyph-name="ocircumflex" horiz-adv-x="585" d="M344 513Q437 513 493 461T549 316Q549 247 526 188T462 85T365 16T243 -9Q148 -9 91 42T34 188Q34 250 55 308T117 412T214 486T344 513ZM260 98Q307 98 344 126T402 201T423 302Q423
352 398 378T325 405Q274 405 237 376T181 300T161 202Q161 153 186 126T260 98ZM531 573H420L370 663L287 573H167L327 740H430L531 573Z" />
<glyph unicode="&#xf5;" glyph-name="otilde" horiz-adv-x="585" d="M344 513Q437 513 493 461T549 316Q549 247 526 188T462 85T365 16T243 -9Q148 -9 91 42T34 188Q34 250 55 308T117 412T214 486T344 513ZM260 98Q307 98 344 126T402 201T423 302Q423 352 398
378T325 405Q274 405 237 376T181 300T161 202Q161 153 186 126T260 98ZM429 567Q402 567 374 581T320 610T273 624Q256 624 237 611T204 574L159 613Q180 663 215 689T293 716Q320 716 348 702T403 673T449 659Q468 659 486 672T519 710L563 671Q543 620 508 594T429
567Z" />
<glyph unicode="&#xf6;" glyph-name="odieresis" horiz-adv-x="585" d="M344 513Q437 513 493 461T549 316Q549 247 526 188T462 85T365 16T243 -9Q148 -9 91 42T34 188Q34 250 55 308T117 412T214 486T344 513ZM260 98Q307 98 344 126T402 201T423 302Q423 352
398 378T325 405Q274 405 237 376T181 300T161 202Q161 153 186 126T260 98ZM459 568Q423 568 405 589T386 636Q386 662 404 682T459 703Q492 703 510 683T529 636Q529 610 511 589T459 568ZM263 568Q227 568 209 589T190 636Q190 662 208 682T263 703Q296 703
314 683T333 636Q333 610 315 589T263 568Z" />
<glyph unicode="&#xf7;" glyph-name="divide" horiz-adv-x="600" d="M335 387Q307 387 288 405T268 451Q268 478 287 496T335 515Q363 515 382 497T401 451Q401 423 382 405T335 387ZM559 303L542 202H41L58 303H559ZM265 -9Q237 -9 218 9T199 55Q199 82 218 100T265
118Q294 118 313 100T332 55Q332 27 313 9T265 -9Z" />
<glyph unicode="&#xf8;" glyph-name="oslash" horiz-adv-x="585" d="M344 513Q437 513 493 461T549 316Q549 247 526 188T462 85T365 16T243 -9Q148 -9 91 42T34 188Q34 250 55 308T117 412T214 486T344 513ZM260 98Q307 98 344 126T402 201T423 302Q423 352 398
378T325 405Q274 405 237 376T181 300T161 202Q161 153 186 126T260 98ZM356 -11L291 49L348 108L410 164L644 404L685 456L742 515L807 455L750 396L687 341L453 101L413 48L356 -11Z" />
<glyph unicode="&#xf9;" glyph-name="ugrave" horiz-adv-x="591" d="M183 -9Q102 -9 66 46T50 210L73 334Q83 387 88 427T97 505H220Q217 462 210 416T195 332L173 217Q163 163 177 134T235 105Q265 105 294 124T352 188T406 311T452 505H571L512 172Q504 122
499 76T494 0H373Q373 31 378 66T393 138Q355 66 302 29T183 -9ZM296 573L185 718L322 750L409 573H296Z" />
<glyph unicode="&#xfa;" glyph-name="uacute" horiz-adv-x="591" d="M183 -9Q102 -9 66 46T50 210L73 334Q83 387 88 427T97 505H220Q217 462 210 416T195 332L173 217Q163 163 177 134T235 105Q265 105 294 124T352 188T406 311T452 505H571L512 172Q504 122
499 76T494 0H373Q373 31 378 66T393 138Q355 66 302 29T183 -9ZM294 573L445 750L569 718L407 573H294Z" />
<glyph unicode="&#xfb;" glyph-name="ucircumflex" horiz-adv-x="591" d="M183 -9Q102 -9 66 46T50 210L73 334Q83 387 88 427T97 505H220Q217 462 210 416T195 332L173 217Q163 163 177 134T235 105Q265 105 294 124T352 188T406 311T452 505H571L512 172Q504
122 499 76T494 0H373Q373 31 378 66T393 138Q355 66 302 29T183 -9ZM534 573H423L373 663L290 573H170L330 740H433L534 573Z" />
<glyph unicode="&#xfc;" glyph-name="udieresis" horiz-adv-x="591" d="M183 -9Q102 -9 66 46T50 210L73 334Q83 387 88 427T97 505H220Q217 462 210 416T195 332L173 217Q163 163 177 134T235 105Q265 105 294 124T352 188T406 311T452 505H571L512 172Q504 122
499 76T494 0H373Q373 31 378 66T393 138Q355 66 302 29T183 -9ZM462 568Q426 568 408 589T389 636Q389 662 407 682T462 703Q495 703 513 683T532 636Q532 610 514 589T462 568ZM266 568Q230 568 212 589T193 636Q193 662 211 682T266 703Q299 703 317 683T336
636Q336 610 318 589T266 568Z" />
<glyph unicode="&#xfd;" glyph-name="yacute" horiz-adv-x="596" d="M171 -210Q126 -210 77 -201T-1 -171L37 -65Q68 -82 104 -92T185 -102Q273 -102 318 -61T383 72L396 131Q354 68 302 38T194 7Q109 7 72 64T52 222L73 334Q82 386 88 426T97 505H220Q217 462
210 416T195 332L176 232Q167 180 180 151T236 121Q281 121 322 156T397 275T457 505H575L502 87Q483 -22 440 -87T330 -181T171 -210ZM296 573L447 750L571 718L409 573H296Z" />
<glyph unicode="&#xfe;" glyph-name="thorn" horiz-adv-x="602" d="M107 -200H-15L151 740H273L232 505L210 403Q277 513 389 513Q473 513 521 463T569 324Q569 254 546 193T482 87T384 16T262 -9Q194 -9 145 18L142 0L107 -200ZM352 405Q289 405 242 349T179
197L167 128Q199 97 259 97Q315 97 356 125T419 201T442 306Q442 405 352 405Z" />
<glyph unicode="&#xff;" glyph-name="ydieresis" horiz-adv-x="596" d="M171 -210Q126 -210 77 -201T-1 -171L37 -65Q68 -82 104 -92T185 -102Q273 -102 318 -61T383 72L396 131Q354 68 302 38T194 7Q109 7 72 64T52 222L73 334Q82 386 88 426T97 505H220Q217
462 210 416T195 332L176 232Q167 180 180 151T236 121Q281 121 322 156T397 275T457 505H575L502 87Q483 -22 440 -87T330 -181T171 -210ZM464 568Q428 568 410 589T391 636Q391 662 409 682T464 703Q497 703 515 683T534 636Q534 610 516 589T464 568ZM268 568Q232
568 214 589T195 636Q195 662 213 682T268 703Q301 703 319 683T338 636Q338 610 320 589T268 568Z" />
<glyph unicode="&#x2013;" glyph-name="endash" horiz-adv-x="500" d="M12 208L30 310H490L472 208H12Z" />
<glyph unicode="&#x2014;" glyph-name="emdash" horiz-adv-x="1000" d="M12 208L30 310H990L972 208H12Z" />
<glyph unicode="&#x2018;" glyph-name="quoteleft" horiz-adv-x="247" d="M295 750Q271 710 258 675T244 613Q244 591 249 574T254 535Q254 490 228 466T161 442Q127 442 108 460T89 517Q89 541 101 572T135 635T182 698T233 750H295Z" />
<glyph unicode="&#x2019;" glyph-name="quoteright" horiz-adv-x="247" d="M73 442Q98 482 111 517T124 579Q124 601 119 618T114 657Q114 702 140 726T207 750Q241 750 260 732T280 675Q280 651 267 620T233 557T187 494T136 442H73Z" />
<glyph unicode="&#x201a;" glyph-name="quotesinglbase" horiz-adv-x="237" d="M-36 -152Q-12 -112 1 -77T15 -15Q15 7 10 24T5 63Q5 108 31 132T98 156Q132 156 151 138T171 81Q171 57 158 27T124 -37T77 -100T27 -152H-36Z" />
<glyph unicode="&#x201c;" glyph-name="quotedblleft" horiz-adv-x="448" d="M496 750Q472 710 459 675T445 613Q445 591 450 574T455 535Q455 490 429 466T362 442Q328 442 309 460T290 517Q290 541 302 572T336 635T383 698T434 750H496ZM295 750Q271 710 258
675T244 613Q244 591 249 574T254 535Q254 490 228 466T161 442Q127 442 108 460T89 517Q89 541 101 572T135 635T182 698T233 750H295Z" />
<glyph unicode="&#x201d;" glyph-name="quotedblright" horiz-adv-x="448" d="M273 442Q298 482 311 517T324 579Q324 601 319 618T314 657Q314 702 340 726T407 750Q441 750 460 732T480 675Q480 651 467 620T433 557T387 494T336 442H273ZM73 442Q98 482 111
517T124 579Q124 601 119 618T114 657Q114 702 140 726T207 750Q241 750 260 732T280 675Q280 651 267 620T233 557T187 494T136 442H73Z" />
<glyph unicode="&#x201e;" glyph-name="quotedblbase" horiz-adv-x="446" d="M168 -152Q192 -112 205 -77T219 -15Q219 7 214 24T209 63Q209 108 235 132T302 156Q336 156 355 138T375 81Q375 57 362 27T328 -37T281 -100T231 -152H168ZM-31 -152Q-7 -112 6 -77T20
-15Q20 7 15 24T10 63Q10 108 36 132T103 156Q137 156 156 138T176 81Q176 57 163 27T129 -37T82 -100T32 -152H-31Z" />
<glyph unicode="&#x2022;" glyph-name="bullet" horiz-adv-x="444" d="M224 93Q176 93 138 115T77 176T54 264Q54 313 76 351T137 412T224 435Q272 435 310 413T372 352T395 264Q395 215 372 176T311 115T224 93Z" />
<glyph unicode="&#x2039;" glyph-name="guilsinglleft" horiz-adv-x="296" d="M117 70L27 229L36 277L181 436H317L144 247L244 70H117Z" />
<glyph unicode="&#x203a;" glyph-name="guilsinglright" horiz-adv-x="296" d="M180 436L269 277L261 229L116 70H-21L153 259L53 436H180Z" />
</font>
</defs>
</svg>
