<?xml version="1.0" standalone="no"?>
<!DOCTYPE svg PUBLIC "-//W3C//DTD SVG 1.1//EN" "http://www.w3.org/Graphics/SVG/1.1/DTD/svg11.dtd">
<svg xmlns="http://www.w3.org/2000/svg">
<defs >
<font id="Livvic" horiz-adv-x="540" ><font-face
    font-family="Livvic ExtraLight"
    units-per-em="1000"
    panose-1="0 0 0 0 0 0 0 0 0 0"
    ascent="1005"
    descent="-250"
    alphabetic="0" />
<glyph unicode=" " glyph-name="space" horiz-adv-x="219" />
<glyph unicode="!" glyph-name="exclam" horiz-adv-x="155" d="M63 144L62 740H106L90 144H63ZM77 -7Q63 -7 54 2T45 26Q45 40 54 49T77 59Q92 59 100 50T109 26Q109 12 101 3T77 -7Z" />
<glyph unicode="&quot;" glyph-name="quotedbl" horiz-adv-x="289" d="M83 517L77 710H119L113 517H83ZM176 517L170 710H212L206 517H176Z" />
<glyph unicode="#" glyph-name="numbersign" horiz-adv-x="600" d="M96 0L141 213H27L35 253H149L192 456H78L86 496H201L246 710H286L241 496H419L464 710H504L459 496H573L565 456H450L408 253H522L514 213H399L354 0H314L359 213H181L136 0H96ZM190 253H367L410
456H232L190 253Z" />
<glyph unicode="$" glyph-name="dollar" horiz-adv-x="600" d="M283 -120V-6Q195 1 141 54T74 209L114 214Q131 115 178 73T314 31Q393 31 438 71T484 178Q484 227 464 255T409 297T335 319T255 338T181 368T127 424T106 523Q106 574 129 616T192 685T283 718V830H316V720Q392
718 443 671T506 534L470 528Q457 608 417 645T311 682Q239 682 194 639T148 523Q148 470 168 440T223 394T297 369T377 350T451 322T505 270T526 179Q526 124 500 82T426 17T316 -7V-120H283Z" />
<glyph unicode="%" glyph-name="percent" horiz-adv-x="690" d="M201 436Q137 436 98 472T59 567Q59 633 101 675T211 718Q273 718 311 682T349 587Q349 545 330 511T277 456T201 436ZM123 0L528 710H567L162 0H123ZM201 468Q250 468 282 501T314 585Q314 631
286 659T211 687Q157 687 126 653T94 567Q94 523 123 496T201 468ZM482 -6Q419 -6 380 30T341 125Q341 191 383 233T493 276Q555 276 593 240T631 145Q631 103 612 69T559 14T482 -6ZM483 26Q532 26 564 59T596 142Q596 188 568 216T493 244Q439 244 408 210T376
125Q376 81 405 54T483 26Z" />
<glyph unicode="&amp;" glyph-name="ampersand" horiz-adv-x="755" d="M290 -8Q223 -8 172 16T93 85T64 192Q64 250 84 289T137 356T206 407L188 428Q148 473 134 508T120 585Q120 646 160 686T266 727Q329 727 367 692T405 598Q405 545 384 510T330 449T261 402L500
133Q529 173 546 230T566 361H446V394H714V361H601Q598 280 578 216T523 107L527 103Q563 63 588 48T645 31Q659 31 675 36T704 51L719 22Q702 8 685 3T644 -4Q606 -5 574 13T503 74L500 78Q458 35 405 14T290 -8ZM216 452L238 427Q272 448 301 470T349 521T368
591Q368 639 342 665T266 692Q218 692 188 662T158 585Q158 548 170 519T216 452ZM105 195Q105 118 156 73T292 28Q346 28 393 47T477 104L229 382Q196 361 168 337T122 278T105 195Z" />
<glyph unicode="&apos;" glyph-name="quotesingle" horiz-adv-x="196" d="M83 517L77 710H119L113 517H83Z" />
<glyph unicode="(" glyph-name="parenleft" horiz-adv-x="267" d="M265 -207Q168 -109 125 9T81 270Q81 413 124 532T265 746L289 724Q238 677 201 608T143 452T123 270Q124 125 168 6T289 -185L265 -207Z" />
<glyph unicode=")" glyph-name="parenright" horiz-adv-x="267" d="M1 -207L-22 -185Q54 -114 98 5T143 270Q144 366 124 452T66 607T-22 724L1 746Q99 652 142 533T186 270Q186 128 143 10T1 -207Z" />
<glyph unicode="*" glyph-name="asterisk" horiz-adv-x="452" d="M357 525Q382 508 373 493Q365 477 339 492Q319 502 298 518T238 559Q239 513 242 487T245 437Q245 408 226 408Q207 408 207 437Q207 461 210 487T215 559Q177 534 155 518T114 492Q87 477 79
493Q70 508 95 525Q115 535 139 546T205 577Q164 597 140 608T95 631Q71 648 79 663Q88 679 114 664Q133 653 155 637T215 597Q214 642 211 668T207 717Q207 747 226 747Q245 747 245 717Q245 695 242 669T238 597Q276 621 297 637T339 664Q365 679 373 663Q381
648 357 631Q338 620 313 609T248 577Q288 557 313 546T357 525Z" />
<glyph unicode="+" glyph-name="plus" horiz-adv-x="600" d="M282 492H319V265H540V227H319V0H282V227H60V265H282V492Z" />
<glyph unicode="," glyph-name="comma" horiz-adv-x="138" d="M40 -89Q50 -60 50 -34Q50 -13 45 1T40 29Q40 45 49 53T70 61Q100 61 100 25Q100 0 90 -32T62 -89H40Z" />
<glyph unicode="-" glyph-name="hyphen" horiz-adv-x="376" d="M60 234V271H316V234H60Z" />
<glyph unicode="." glyph-name="period" horiz-adv-x="138" d="M69 -7Q54 -7 45 3T36 27Q36 41 45 50T69 60Q84 60 93 51T102 27Q102 13 93 3T69 -7Z" />
<glyph unicode="/" glyph-name="slash" horiz-adv-x="285" d="M0 -200L250 740H292L42 -200H0Z" />
<glyph unicode="0" glyph-name="zero" horiz-adv-x="600" d="M295 -7Q186 -7 125 79T63 342Q63 456 94 541T181 673T312 720Q380 720 430 679T509 558T537 369Q537 248 506 164T421 36T295 -7ZM295 33Q384 33 440 117T496 373Q496 521 446 601T312 681Q251 681
204 641T131 525T105 340Q105 184 156 109T295 33Z" />
<glyph unicode="1" glyph-name="one" horiz-adv-x="600" d="M139 0V35H298V653L138 546L119 576L316 710H339V35H495V0H139Z" />
<glyph unicode="2" glyph-name="two" horiz-adv-x="600" d="M113 0V27Q221 120 289 193T395 325T447 433T461 528Q461 598 420 640T308 682Q236 682 191 644T119 528L85 541Q107 619 162 669T306 720Q395 720 449 669T504 529Q505 458 473 384T367 225T172 35H523V0H113Z" />
<glyph unicode="3" glyph-name="three" horiz-adv-x="600" d="M281 -7Q155 -7 81 48L99 85Q133 60 178 46T285 32Q371 32 422 74T474 191Q474 269 424 306T299 343H260V382H278Q362 382 412 422T462 544Q462 605 420 643T309 682Q237 682 191 644T119 528L85 541Q107
619 163 669T310 720Q372 720 415 695T482 630T505 543Q505 478 471 432T378 366Q444 348 480 304T516 190Q516 96 452 45T281 -7Z" />
<glyph unicode="4" glyph-name="four" horiz-adv-x="600" d="M403 0V226H60V253L417 712H443V262H543V226H443V0H403ZM110 262H403V638L110 262Z" />
<glyph unicode="5" glyph-name="five" horiz-adv-x="600" d="M281 -7Q158 -7 81 46L100 83Q134 59 182 46T285 32Q337 32 380 50T448 106T474 205Q474 286 411 328T218 375L128 378L150 710H484V675H187L170 416L223 414Q371 408 443 354T516 204Q516 102 451 48T281 -7Z" />
<glyph unicode="6" glyph-name="six" horiz-adv-x="600" d="M324 -7Q205 -7 147 77T88 320Q88 436 116 526T203 668T351 720Q423 720 474 680T550 560L512 545Q491 619 449 650T349 682Q285 682 236 643T158 524T130 320V292Q152 360 208 401T341 443Q403 443
449 415T520 340T546 232Q546 159 517 106T437 23T324 -7ZM321 30Q401 30 452 82T504 229Q504 309 459 357T338 406Q285 406 242 383T173 316T147 213Q147 131 193 81T321 30Z" />
<glyph unicode="7" glyph-name="seven" horiz-adv-x="600" d="M189 0H146L473 675H91V710H521V686L189 0Z" />
<glyph unicode="8" glyph-name="eight" horiz-adv-x="600" d="M300 -7Q193 -7 131 43T68 179Q68 242 106 291T208 360Q151 379 118 423T84 525Q84 580 110 624T185 694T300 720Q366 720 414 695T489 625T516 525Q516 468 483 423T392 360Q452 341 492 292T532
179Q532 94 470 44T300 -7ZM300 377Q380 377 427 417T474 525Q474 597 425 640T300 683Q224 683 175 641T126 525Q126 457 173 417T300 377ZM300 30Q388 30 438 70T489 180Q489 227 465 263T399 321T300 342Q244 342 201 322T135 265T111 180Q111 111 161 71T300
30Z" />
<glyph unicode="9" glyph-name="nine" horiz-adv-x="600" d="M276 719Q395 719 453 635T512 392Q512 276 484 186T397 44T249 -8Q177 -8 126 32T50 152L88 167Q109 93 151 62T251 30Q315 30 364 69T442 188T470 392V420Q448 352 392 311T259 269Q197 269 151 297T80
372T54 480Q54 553 83 606T163 689T276 719ZM279 682Q199 682 148 630T96 483Q96 403 141 355T262 306Q315 306 358 329T427 396T453 499Q453 581 407 631T279 682Z" />
<glyph unicode=":" glyph-name="colon" horiz-adv-x="138" d="M69 -7Q54 -7 45 3T36 27Q36 41 45 50T69 60Q84 60 93 51T102 27Q102 13 93 3T69 -7ZM69 432Q54 432 45 442T36 466Q36 480 45 489T69 499Q84 499 93 490T102 466Q102 452 93 442T69 432Z" />
<glyph unicode=";" glyph-name="semicolon" horiz-adv-x="138" d="M40 -89Q50 -60 50 -34Q50 -13 45 1T40 29Q40 45 49 53T70 61Q100 61 100 25Q100 0 90 -32T62 -89H40ZM69 432Q54 432 45 442T36 466Q36 480 45 489T69 499Q84 499 93 490T102 466Q102 452 93
442T69 432Z" />
<glyph unicode="&lt;" glyph-name="less" horiz-adv-x="600" d="M75 230V264L525 489V445L124 247L525 48V4L75 230Z" />
<glyph unicode="=" glyph-name="equal" horiz-adv-x="600" d="M540 358V320H60V358H540ZM540 173V135H60V173H540Z" />
<glyph unicode="&gt;" glyph-name="greater" horiz-adv-x="600" d="M525 230L75 4V48L476 247L75 445V489L525 264V230Z" />
<glyph unicode="?" glyph-name="question" horiz-adv-x="511" d="M206 141L176 142Q176 210 200 261T286 364Q332 403 355 431T387 487T395 547Q395 613 353 647T245 682Q175 682 128 645T56 528L22 541Q45 625 103 672T245 720Q300 720 343 700T411 640T436 548Q436
507 424 473T383 405T303 329Q255 287 232 243T206 141ZM187 -7Q173 -7 164 2T154 26Q154 40 163 49T187 59Q202 59 210 50T219 26Q219 12 211 3T187 -7Z" />
<glyph unicode="@" glyph-name="at" horiz-adv-x="954" d="M493 -212Q289 -212 179 -92T68 249Q68 354 98 441T184 592T317 690T488 725Q608 725 697 678T836 546T886 348Q886 255 861 185T794 74T697 34Q645 34 620 69T602 164Q582 127 550 98T481 52T406 34Q336
34 298 75T260 191Q260 256 281 312T340 411T426 478T527 502Q555 502 582 495T629 477T657 453L671 493L700 492L643 186Q632 131 646 100T697 69Q740 69 775 105T830 205T851 348Q851 450 806 526T678 645T488 688Q374 688 288 633T154 479T106 249Q106 45 206
-65T496 -175Q550 -175 601 -162T694 -126T765 -70L793 -93Q761 -129 713 -156T608 -197T493 -212ZM402 73Q453 73 499 100T577 172T621 270L650 416Q626 443 595 454T517 465Q459 465 409 428T329 329T299 190Q299 73 402 73Z" />
<glyph unicode="A" glyph-name="A" horiz-adv-x="664" d="M27 0L317 710H355L633 0H590L509 208H154L70 0H27ZM169 244H496L336 659L169 244Z" />
<glyph unicode="B" glyph-name="B" horiz-adv-x="596" d="M88 0V710H238Q344 710 407 689T499 626T528 527Q528 465 493 421T391 360Q458 343 496 296T535 187Q535 92 476 46T314 0H88ZM237 674H129V376H270Q377 376 431 413T486 527Q486 606 427 640T237 674ZM129
36H311Q395 36 444 71T493 186Q493 262 442 301T297 340H129V36Z" />
<glyph unicode="C" glyph-name="C" horiz-adv-x="635" d="M627 134Q590 66 525 30T374 -7Q280 -7 211 35T105 155T68 343Q68 454 109 539T223 672T392 720Q470 720 531 687T628 590L595 563Q562 621 513 650T389 679Q308 679 245 637T147 518T111 341Q111 196
180 115T373 33Q452 33 506 65T593 159L627 134Z" />
<glyph unicode="D" glyph-name="D" horiz-adv-x="723" d="M88 0V710H247Q655 710 655 358Q655 187 556 94T269 0H88ZM130 37H265Q612 37 612 357Q612 516 524 594T254 673H130V37Z" />
<glyph unicode="E" glyph-name="E" horiz-adv-x="526" d="M469 674H129V379H464V344H129V36H485L480 0H88V710H469V674Z" />
<glyph unicode="F" glyph-name="F" horiz-adv-x="464" d="M450 674H129V368H446V333H129V0H88V710H450V674Z" />
<glyph unicode="G" glyph-name="G" horiz-adv-x="711" d="M417 327H641V0H611L603 113Q569 53 514 23T376 -7Q281 -7 212 34T106 154T68 343Q68 454 109 539T225 672T400 720Q478 720 539 687T635 589L602 563Q571 620 521 649T394 679Q310 679 247 637T147 518T111
341Q111 192 180 113T378 33Q488 33 545 90T602 244V292H417V327Z" />
<glyph unicode="H" glyph-name="H" horiz-adv-x="701" d="M88 0V710H130V380H571V710H613V0H571V343H130V0H88Z" />
<glyph unicode="I" glyph-name="I" horiz-adv-x="218" d="M88 0V710H130V0H88Z" />
<glyph unicode="J" glyph-name="J" horiz-adv-x="426" d="M168 -7Q93 -7 47 28T-13 120L23 135Q39 80 75 56T170 32Q237 32 267 71T298 202V710H340V204Q340 95 298 44T168 -7Z" />
<glyph unicode="K" glyph-name="K" horiz-adv-x="516" d="M88 0V710H130V371L479 710H533L171 360Q204 345 235 299L367 106Q398 60 420 46T471 31Q497 31 520 46L531 14Q505 -4 467 -4Q429 -4 400 14T339 77L192 292Q167 329 130 334V0H88Z" />
<glyph unicode="L" glyph-name="L" horiz-adv-x="464" d="M88 0V710H130V37H472L467 0H88Z" />
<glyph unicode="M" glyph-name="M" horiz-adv-x="901" d="M79 0L113 710H160L451 44L743 710H790L820 0H782L754 642L471 0H430L149 641L118 0H79Z" />
<glyph unicode="N" glyph-name="N" horiz-adv-x="703" d="M575 710H614V0H581L128 635V0H88V710H122L575 75V710Z" />
<glyph unicode="O" glyph-name="O" horiz-adv-x="764" d="M377 -7Q282 -7 213 34T106 153T68 342Q68 453 110 538T227 672T397 720Q487 720 554 676T659 554T696 369Q696 254 655 170T542 39T377 -7ZM377 33Q458 33 520 73T618 189T653 373Q653 467 622 536T533
642T398 679Q314 679 250 638T148 520T111 340Q111 192 182 113T377 33Z" />
<glyph unicode="P" glyph-name="P" horiz-adv-x="581" d="M130 0H88V710H303Q420 710 485 659T550 512Q550 303 277 303H130V0ZM294 674H130V340H279Q399 340 453 381T508 511Q508 595 455 634T294 674Z" />
<glyph unicode="Q" glyph-name="Q" horiz-adv-x="764" d="M654 -87Q645 -141 607 -174T508 -207Q426 -207 384 -159T341 -19V-6Q214 6 141 96T68 342Q68 453 110 538T227 672T397 720Q487 720 554 676T659 554T696 369Q696 254 655 170T543 39T382 -7V-17Q382
-96 411 -133T509 -171Q555 -171 583 -146T617 -81L654 -87ZM377 33Q458 33 520 73T618 189T653 373Q653 467 622 536T533 642T398 679Q314 679 250 638T148 520T111 340Q111 192 182 113T377 33Z" />
<glyph unicode="R" glyph-name="R" horiz-adv-x="552" d="M567 46L577 14Q564 4 548 0T514 -4Q477 -4 448 12T385 77L234 298Q223 314 203 328T154 343H129V0H88V710H274Q384 710 442 662T501 530Q501 443 440 393T277 343H232Q247 336 261 322T293 282L410 110Q432
77 447 60T479 37T519 31Q533 31 545 35T567 46ZM270 674H129V377H264Q358 377 408 415T459 527Q459 594 415 634T270 674Z" />
<glyph unicode="S" glyph-name="S" horiz-adv-x="552" d="M288 -7Q178 -7 114 45T38 209L78 214Q95 115 144 74T291 32Q373 32 420 71T467 178Q467 226 448 253T389 297T284 326Q226 338 180 357T108 415T81 523Q81 579 108 623T183 694T292 720Q380 720 435 673T502
534L465 528Q451 608 409 644T292 681Q215 681 169 638T123 523Q123 471 143 440T202 392T297 364Q371 349 418 328T487 272T509 179Q509 122 481 81T404 16T288 -7Z" />
<glyph unicode="T" glyph-name="T" horiz-adv-x="527" d="M518 710L515 674H285V0H242V674H7V710H518Z" />
<glyph unicode="U" glyph-name="U" horiz-adv-x="706" d="M578 710H620L621 346Q622 169 555 81T345 -7Q211 -7 148 68T85 305V710H129V306Q129 161 180 97T345 33Q472 33 526 109T579 345L578 710Z" />
<glyph unicode="V" glyph-name="V" horiz-adv-x="557" d="M523 710H565L292 0H242L18 710H61L269 39L523 710Z" />
<glyph unicode="W" glyph-name="W" horiz-adv-x="902" d="M835 710H876L669 0H619L459 641L269 0H218L43 710H85L245 44L442 710H479L646 43L835 710Z" />
<glyph unicode="X" glyph-name="X" horiz-adv-x="556" d="M51 0H4L256 365L21 710H68L281 399L498 710H543L303 365L553 0H505L280 331L51 0Z" />
<glyph unicode="Y" glyph-name="Y" horiz-adv-x="522" d="M543 710L282 324V0H240V325L-21 710H27L263 361L498 710H543Z" />
<glyph unicode="Z" glyph-name="Z" horiz-adv-x="580" d="M42 0V30L493 674H55V710H544V680L93 36H556L551 0H42Z" />
<glyph unicode="[" glyph-name="bracketleft" horiz-adv-x="233" d="M212 -200H88V740H212V708H127V-168H212V-200Z" />
<glyph unicode="\" glyph-name="backslash" horiz-adv-x="285" d="M285 -200H243L-7 740H35L285 -200Z" />
<glyph unicode="]" glyph-name="bracketright" horiz-adv-x="232" d="M21 -200V-168H105V708H21V740H144V-200H21Z" />
<glyph unicode="^" glyph-name="asciicircum" horiz-adv-x="600" d="M316 577L542 127H500L300 532L100 127H58L282 577H316Z" />
<glyph unicode="_" glyph-name="underscore" horiz-adv-x="431" d="M33 -35V0H398V-35H33Z" />
<glyph unicode="`" glyph-name="grave" horiz-adv-x="641" d="M312 573L197 735L238 750L351 573H312Z" />
<glyph unicode="a" glyph-name="a" horiz-adv-x="559" d="M477 493V0H437L441 149Q417 79 365 36T247 -7Q159 -7 110 57T61 223Q61 306 89 368T168 466T288 502Q340 502 380 477T436 412L445 493H477ZM289 464Q233 464 192 435T127 353T104 228Q104 136 143 84T251
31Q306 31 348 64T414 156T438 289Q438 371 398 417T289 464Z" />
<glyph unicode="b" glyph-name="b" horiz-adv-x="559" d="M82 0V740H122V493L119 348Q144 417 195 459T312 502Q401 502 449 438T498 272Q498 189 470 127T392 29T271 -7Q219 -7 179 18T123 84L114 0H82ZM271 31Q326 31 367 60T432 142T455 267Q455 359 416 411T308
464Q254 464 212 431T145 339T121 207Q121 125 161 78T271 31Z" />
<glyph unicode="c" glyph-name="c" horiz-adv-x="483" d="M281 -7Q178 -7 120 58T61 238Q61 314 89 374T169 468T290 502Q353 502 395 475T459 408L428 384Q406 423 372 443T289 464Q233 464 192 435T127 355T104 238Q104 137 150 84T283 31Q329 31 366 49T429
110L459 87Q434 42 389 18T281 -7Z" />
<glyph unicode="d" glyph-name="d" horiz-adv-x="559" d="M477 740V0H437L441 149Q417 79 365 36T247 -7Q159 -7 110 57T61 223Q61 306 89 368T168 466T288 502Q335 502 376 479T438 408L437 492V740H477ZM289 464Q233 464 192 435T127 353T104 228Q104 136 143
84T251 31Q306 31 348 64T414 156T438 289Q438 371 398 417T289 464Z" />
<glyph unicode="e" glyph-name="e" horiz-adv-x="530" d="M293 -7Q184 -7 123 58T61 240Q61 316 90 375T171 468T288 502Q350 502 396 474T464 385T477 231H104Q105 132 154 82T295 31Q343 31 383 49T450 110L479 87Q451 42 405 18T293 -7ZM289 467Q237 467 197
441T132 369T104 267H442Q445 338 426 382T371 446T289 467Z" />
<glyph unicode="f" glyph-name="f" horiz-adv-x="319" d="M99 0V457H-2V492H99V553Q99 645 143 697T265 750Q328 750 365 718T407 630L374 626Q363 714 265 714Q205 714 172 673T138 556V492H322V457H139V0H99Z" />
<glyph unicode="g" glyph-name="g" horiz-adv-x="563" d="M255 -210Q213 -210 172 -201T100 -174L114 -136Q145 -155 183 -163T256 -172Q355 -172 398 -121T442 46L443 147Q417 80 366 39T249 -2Q159 -2 110 61T61 226Q61 307 89 369T169 467T290 502Q343 502
383 477T440 412L449 493H481V51Q481 -85 427 -147T255 -210ZM291 464Q235 464 193 435T127 354T104 231Q104 140 143 88T253 36Q308 36 350 69T417 161T442 291Q442 372 402 418T291 464Z" />
<glyph unicode="h" glyph-name="h" horiz-adv-x="550" d="M82 0V740H122V492L117 277Q141 393 195 447T324 502Q396 502 435 453T473 309L471 0H431L433 301Q433 383 405 423T316 464Q260 464 216 420T146 275T121 0H82Z" />
<glyph unicode="i" glyph-name="i" horiz-adv-x="204" d="M122 492V0H82V492H122ZM102 628Q88 628 80 638T71 660Q71 672 80 682T102 692Q117 692 125 682T134 660Q134 648 126 638T102 628Z" />
<glyph unicode="j" glyph-name="j" horiz-adv-x="220" d="M-31 -216Q-82 -216 -117 -194L-106 -158Q-86 -168 -68 -173T-31 -178Q39 -178 68 -133T97 -17V492H138V-21Q138 -112 94 -164T-31 -216ZM117 628Q103 628 95 638T86 660Q86 672 95 682T117 692Q132 692
140 682T149 660Q149 648 141 638T117 628Z" />
<glyph unicode="k" glyph-name="k" horiz-adv-x="418" d="M82 0V740H122V277L347 491H402L155 257Q175 245 194 218L291 82Q312 53 331 42T379 30Q403 30 422 43L433 13Q409 -5 372 -5Q305 -5 264 53L167 189Q153 208 142 219T122 237V0H82Z" />
<glyph unicode="l" glyph-name="l" horiz-adv-x="247" d="M187 -7Q132 -7 107 23T82 101V740H122V109Q122 72 137 51T190 29Q207 29 221 34T244 45L258 14Q245 4 225 -1T187 -7Z" />
<glyph unicode="m" glyph-name="m" horiz-adv-x="886" d="M82 0V492H122L117 277Q141 394 194 448T319 502Q389 502 427 456T466 308Q492 408 543 455T663 502Q734 502 772 453T809 309L807 0H767L769 301Q770 464 655 464Q614 464 580 440T519 362T479 219T465
0H426V301Q426 386 399 425T312 464Q271 464 236 440T175 362T135 219T121 0H82Z" />
<glyph unicode="n" glyph-name="n" horiz-adv-x="550" d="M82 0V492H122L117 277Q141 393 195 447T324 502Q396 502 435 453T473 309L471 0H431L433 301Q433 383 405 423T316 464Q260 464 216 420T146 275T121 0H82Z" />
<glyph unicode="o" glyph-name="o" horiz-adv-x="556" d="M286 502Q382 502 438 436T494 256Q494 181 466 122T389 28T275 -7Q175 -7 118 59T61 239Q61 314 89 373T167 467T286 502ZM275 31Q328 31 367 59T429 139T452 256Q452 356 408 410T287 464Q232 464 191
435T127 356T104 239Q104 139 149 85T275 31Z" />
<glyph unicode="p" glyph-name="p" horiz-adv-x="559" d="M82 -200V492H123L121 353Q146 420 197 461T312 502Q401 502 449 438T498 272Q498 189 470 127T392 29T271 -7Q221 -7 180 18T121 88L122 0V-200H82ZM271 31Q326 31 367 60T432 142T455 267Q455 359 416
411T308 464Q254 464 212 431T145 339T121 207Q121 125 161 78T271 31Z" />
<glyph unicode="q" glyph-name="q" horiz-adv-x="559" d="M477 493V-200H438V0L442 151Q418 80 366 37T247 -7Q159 -7 110 57T61 223Q61 306 89 368T168 466T288 502Q340 502 380 477T436 412L445 493H477ZM289 464Q233 464 192 435T127 353T104 228Q104 136 143
84T251 31Q306 31 348 64T414 156T438 289Q438 371 398 417T289 464Z" />
<glyph unicode="r" glyph-name="r" horiz-adv-x="359" d="M335 455Q325 458 316 459T294 460Q207 460 165 349T122 0H83V315L82 492H123L120 284Q142 404 189 453T296 502Q307 502 319 501T341 495L335 455Z" />
<glyph unicode="s" glyph-name="s" horiz-adv-x="438" d="M230 -7Q54 -7 41 139L79 147Q87 85 123 57T230 28Q292 28 325 56T358 127Q358 169 327 186T230 218Q153 234 112 263T71 360Q71 399 91 431T148 481T234 500Q297 500 337 469T388 377L351 369Q336 466
233 466Q180 466 146 437T111 360Q111 312 142 290T240 254Q321 236 359 211T398 127Q399 71 353 32T230 -7Z" />
<glyph unicode="t" glyph-name="t" horiz-adv-x="344" d="M248 -7Q171 -7 134 35T98 149L101 457H11V492H101L102 596H142L141 492H320V457H141L138 151Q137 96 164 64T249 31Q273 31 293 37T334 59L350 27Q331 9 304 1T248 -7Z" />
<glyph unicode="u" glyph-name="u" horiz-adv-x="541" d="M224 -7Q154 -7 116 40T77 176L81 492H121L118 184Q117 108 144 70T231 31Q287 31 330 75T397 220T421 492H459V0H419L424 209Q398 94 346 44T224 -7Z" />
<glyph unicode="v" glyph-name="v" horiz-adv-x="468" d="M419 492H460L261 0H210L47 492H89L237 36L419 492Z" />
<glyph unicode="w" glyph-name="w" horiz-adv-x="817" d="M761 492H803L613 0H570L423 440L250 0H208L52 492H94L231 49L404 492H444L592 47L761 492Z" />
<glyph unicode="x" glyph-name="x" horiz-adv-x="461" d="M70 0H24L206 249L31 492H80L231 282L384 492H430L253 251L433 0H385L228 218L70 0Z" />
<glyph unicode="y" glyph-name="y" horiz-adv-x="547" d="M239 -210Q198 -210 157 -202T88 -177L102 -139Q129 -154 167 -163T242 -172Q340 -172 383 -121T427 46L429 214Q404 99 351 49T223 -2Q154 -2 116 45T77 181L81 492H121L118 189Q117 114 144 75T231 36Q290
36 334 80T402 224T427 492H465V53Q465 -86 410 -148T239 -210Z" />
<glyph unicode="z" glyph-name="z" horiz-adv-x="450" d="M45 0V27L348 457H59V492H400V466L97 35H397V0H45Z" />
<glyph unicode="{" glyph-name="braceleft" horiz-adv-x="298" d="M143 -74Q143 -123 174 -149T256 -178L250 -206Q214 -204 180 -190T124 -146T101 -63Q101 -36 109 -6T129 55T149 113T158 162Q158 200 128 225T44 251V291Q97 291 127 316T158 380Q158 401 150
428T130 487T110 548T101 605Q101 657 123 687T180 732T250 748L256 720Q205 718 174 692T143 616Q143 574 157 536T186 461T200 391Q200 354 185 330T147 291T99 271Q123 265 146 251T185 213T200 151Q200 117 186 81T158 7T143 -74Z" />
<glyph unicode="|" glyph-name="bar" horiz-adv-x="234" d="M98 -200V740H136V-200H98Z" />
<glyph unicode="}" glyph-name="braceright" horiz-adv-x="298" d="M155 -74Q155 -32 141 6T112 81T98 151Q98 188 113 212T151 251T198 271Q175 277 152 291T113 329T98 391Q98 425 112 461T140 535T155 616Q155 665 124 691T42 720L48 748Q84 746 118 732T174
688T197 605Q197 578 189 548T169 487T149 429T140 380Q140 342 170 317T254 291V251Q201 251 171 226T140 162Q140 141 148 114T168 55T188 -6T197 -63Q197 -115 175 -145T118 -190T48 -206L42 -178Q92 -176 123 -150T155 -74Z" />
<glyph unicode="~" glyph-name="asciitilde" horiz-adv-x="600" d="M409 202Q393 202 364 209T302 227T237 245T184 253Q155 253 134 237T98 193L72 215Q91 247 120 269T191 292Q207 292 236 284T298 266T363 249T416 241Q445 241 466 256T502 300L528 279Q509
246 480 224T409 202Z" />
<glyph unicode="&#xa0;" glyph-name="uni00A0" horiz-adv-x="219" />
<glyph unicode="&#xa1;" glyph-name="exclamdown" horiz-adv-x="155" d="M77 433Q64 433 55 442T45 466Q45 480 54 489T78 499Q93 499 101 490T110 466Q110 453 101 443T77 433ZM49 -200L65 349H92L93 -200H49Z" />
<glyph unicode="&#xa2;" glyph-name="cent" horiz-adv-x="600" d="M294 -120V-6Q201 1 149 65T97 238Q97 308 121 364T190 456T294 500V612H329V502Q390 502 431 475T495 408L464 384Q442 423 408 443T325 464Q269 464 228 435T163 355T140 238Q140 137 186 84T319
31Q364 31 402 49T465 110L495 87Q471 44 429 20T329 -7V-120H294Z" />
<glyph unicode="&#xa3;" glyph-name="sterling" horiz-adv-x="600" d="M90 -10L72 15Q116 40 141 62T177 111T188 173Q188 211 177 253T153 340H26V370H144Q135 403 129 435T122 500Q122 603 180 661T337 720Q422 720 477 673T544 541L510 531Q485 684 338 684Q253
684 207 637T161 502Q161 469 167 436T183 370H405V340H191Q203 296 214 255T225 174Q225 139 212 109T175 60Q193 66 211 66Q250 66 296 56T384 36T454 26Q510 26 539 86L565 67Q549 30 519 11T448 -9Q429 -9 400 -3T336 10T266 24T199 30Q166 30 141 21T90 -10Z"
/>
<glyph unicode="&#xa4;" glyph-name="currency" horiz-adv-x="600" d="M91 110L72 131L120 183Q91 216 75 259T58 350Q58 399 75 443T122 520L72 575L91 596L142 540Q174 568 214 584T300 601Q345 601 385 585T458 540L508 591L528 570L480 518Q509 485 525 442T542
350Q542 302 526 260T482 185L534 130L512 111L462 164Q430 134 389 117T300 100Q254 100 213 116T140 162L91 110ZM302 131Q359 131 406 160T482 239T510 350Q510 412 482 461T407 540T302 569Q243 569 195 540T119 462T90 350Q90 289 118 240T195 161T302 131Z"
/>
<glyph unicode="&#xa5;" glyph-name="yen" horiz-adv-x="600" d="M96 184V215H278V327H96V357H259L20 710H67L301 364L534 710H579L341 357H504V327H320V327V215H504V184H320V0H278V184H96Z" />
<glyph unicode="&#xa6;" glyph-name="brokenbar" horiz-adv-x="234" d="M98 380V740H136V380H98ZM136 160V-200H98V160H136Z" />
<glyph unicode="&#xa7;" glyph-name="section" horiz-adv-x="489" d="M403 132Q403 92 382 60T324 9T235 -10Q170 -10 129 21T77 113L115 121Q130 26 236 26Q292 26 327 54T362 132Q362 170 341 191T285 222T213 240T142 260T87 295T65 362Q65 401 88 428T148
469Q121 484 104 509T86 578Q86 618 106 650T165 700T253 719Q318 719 359 688T411 596L374 588Q359 684 253 684Q196 684 161 655T126 578Q126 539 147 519T203 488T275 469T347 449T402 414T424 347Q424 308 401 281T341 240Q368 225 385 200T403 132ZM106 364Q106
334 123 317T167 291T228 275T293 259Q332 263 357 286T383 345Q383 375 366 392T321 418T260 434T196 450Q156 446 131 424T106 364Z" />
<glyph unicode="&#xa8;" glyph-name="dieresis" horiz-adv-x="669" d="M259 570Q245 570 237 577T228 599Q228 612 236 620T259 629Q272 629 280 621T288 599Q288 585 280 578T259 570ZM413 570Q399 570 391 577T382 599Q382 612 390 620T413 629Q426 629 434
621T442 599Q442 570 413 570Z" />
<glyph unicode="&#xa9;" glyph-name="copyright" horiz-adv-x="801" d="M400 -5Q325 -5 261 22T148 97T72 209T45 349Q45 425 72 489T147 601T260 676T400 703Q476 703 540 676T653 601T729 489T756 349Q756 274 729 210T654 97T541 22T400 -5ZM400 23Q469 23
528 47T631 116T700 220T725 350Q725 420 701 479T632 582T528 650T400 675Q331 675 272 651T168 582T100 479T75 350Q75 281 100 222T169 118T272 48T400 23ZM545 228Q525 190 488 170T402 149Q321 149 275 201T228 342Q228 403 251 450T315 523T412 549Q502 549
546 476L518 455Q486 515 411 515Q347 515 306 467T265 342Q265 267 301 225T402 183Q483 183 519 250L545 228Z" />
<glyph unicode="&#xaa;" glyph-name="ordfeminine" horiz-adv-x="326" d="M277 473H242L243 539Q228 507 202 488T142 468Q91 468 64 503T37 597Q37 664 72 707T164 750Q194 750 216 737T245 703L250 746H277V473ZM166 718Q123 718 97 686T71 600Q71 552 91 526T145
500Q187 500 215 536T244 629Q244 671 223 694T166 718Z" />
<glyph unicode="&#xab;" glyph-name="guillemotleft" horiz-adv-x="373" d="M163 70L33 244V262L163 436H209L74 253L209 70H163ZM312 70L182 244V262L312 436H358L223 253L358 70H312Z" />
<glyph unicode="&#xac;" glyph-name="logicalnot" horiz-adv-x="600" d="M75 265H525V0H488V227H75V265Z" />
<glyph unicode="&#xad;" glyph-name="uni00AD" horiz-adv-x="376" d="M60 234V271H316V234H60Z" />
<glyph unicode="&#xae;" glyph-name="registered" horiz-adv-x="801" d="M400 -5Q325 -5 260 22T147 97T72 210T45 349Q45 424 72 488T147 601T260 676T400 703Q476 703 540 676T653 601T729 489T756 349Q756 274 729 210T654 97T540 22T400 -5ZM400 23Q470 23
529 47T632 116T700 220T725 350Q725 419 701 478T632 582T529 650T400 675Q331 675 272 651T168 582T100 479T75 350Q75 281 100 222T169 118T272 48T400 23ZM531 153Q500 153 478 171T438 217T404 271T367 316T318 335V335V155H283V546H398Q451 546 483 518T515
441Q515 397 482 367T396 336H379Q402 327 420 303T455 251T491 204T536 184Q549 184 567 192L574 164Q557 153 531 153ZM395 517H318V361H373Q479 361 479 440Q479 475 456 496T395 517Z" />
<glyph unicode="&#xaf;" glyph-name="overscore" horiz-adv-x="627" d="M173 634H460V603H173V634Z" />
<glyph unicode="&#xb0;" glyph-name="degree" horiz-adv-x="353" d="M177 444Q140 444 110 462T61 511T43 581Q43 620 61 650T109 699T177 717Q214 717 244 699T292 651T310 581Q310 542 292 511T244 462T177 444ZM177 473Q223 473 251 503T279 580Q279 627 251
657T177 688Q131 688 103 658T74 580Q74 533 102 503T177 473Z" />
<glyph unicode="&#xb1;" glyph-name="plusminus" horiz-adv-x="600" d="M282 492H318V322H493V283H318V111H282V283H107V322H282V492ZM75 0V39H525V0H75Z" />
<glyph unicode="&#xb2;" glyph-name="uni00B2" horiz-adv-x="330" d="M58 343Q135 407 175 455T229 539T243 607Q243 641 223 662T165 683Q130 683 108 664T73 608L44 620Q55 661 88 688T168 715Q215 715 247 687T279 606Q280 553 242 492T105 349H290V319H58V343Z" />
<glyph unicode="&#xb3;" glyph-name="uni00B3" horiz-adv-x="330" d="M152 315Q121 315 90 323T42 342L54 374Q73 362 101 355T153 347Q198 347 224 369T251 427Q251 467 224 487T147 507H118V536H150Q194 536 219 557T245 617Q245 648 225 666T171 684Q105 684
78 616L50 630Q65 672 97 693T174 715Q222 715 251 688T280 619Q280 587 262 561T213 524Q287 504 287 427Q287 379 250 347T152 315Z" />
<glyph unicode="&#xb4;" glyph-name="acute" horiz-adv-x="643" d="M314 573L427 750L468 735L353 573H314Z" />
<glyph unicode="&#xb5;" glyph-name="uni00B5" horiz-adv-x="541" d="M421 492H459V0H419L424 214Q399 97 347 45T227 -7Q190 -7 162 6T115 52V-200H77V492H119L117 184Q116 108 143 70T231 31Q287 31 330 75T397 220T421 492Z" />
<glyph unicode="&#xb6;" glyph-name="paragraph" horiz-adv-x="554" d="M31 508Q31 601 96 656T294 712H352V0H311V304H284Q158 304 95 359T31 508ZM425 710H466V0H425V710Z" />
<glyph unicode="&#xb7;" glyph-name="middot" horiz-adv-x="148" d="M74 236Q60 236 51 246T41 270Q41 284 50 294T74 305Q89 305 98 295T107 270Q107 256 98 246T74 236Z" />
<glyph unicode="&#xb8;" glyph-name="cedilla" horiz-adv-x="618" d="M272 -223Q243 -223 224 -217T185 -200L200 -172Q218 -182 234 -187T271 -192Q298 -192 316 -179T335 -139Q335 -94 268 -94H236L294 18H332L289 -65Q326 -69 348 -87T370 -138Q370 -176 341
-199T272 -223Z" />
<glyph unicode="&#xb9;" glyph-name="uni00B9" horiz-adv-x="330" d="M71 349H159V661L81 609L65 634L174 710H194V349H279V319H71V349Z" />
<glyph unicode="&#xba;" glyph-name="ordmasculine" horiz-adv-x="321" d="M164 750Q223 750 253 711T284 614Q284 550 249 509T157 468Q99 468 68 506T37 603Q37 668 72 709T164 750ZM157 499Q199 499 224 530T249 615Q249 664 227 691T165 718Q122 718 97 686T72
603Q72 554 94 527T157 499Z" />
<glyph unicode="&#xbb;" glyph-name="guillemotright" horiz-adv-x="373" d="M61 70H14L149 253L14 436H61L190 262V244L61 70ZM210 70H163L298 253L163 436H210L339 262V244L210 70Z" />
<glyph unicode="&#xbc;" glyph-name="onequarter" horiz-adv-x="785" d="M71 349H159V661L81 609L65 634L174 710H194V349H279V319H71V349ZM200 0L549 710H585L236 0H200ZM760 117H707V0H674V117H487V138L682 392H707V145H760V117ZM527 145H674V335L527 145Z" />
<glyph unicode="&#xbd;" glyph-name="onehalf" horiz-adv-x="785" d="M71 349H159V661L81 609L65 634L174 710H194V349H279V319H71V349ZM200 0L549 710H585L236 0H200ZM513 24Q590 88 630 136T684 220T698 288Q698 322 678 343T620 364Q585 364 563 345T528 289L499
301Q510 342 543 369T623 396Q670 396 702 368T734 287Q735 234 697 173T560 30H745V0H513V24Z" />
<glyph unicode="&#xbe;" glyph-name="threequarters" horiz-adv-x="785" d="M152 315Q121 315 90 323T42 342L54 374Q73 362 101 355T153 347Q198 347 224 369T251 427Q251 467 224 487T147 507H118V536H150Q194 536 219 557T245 617Q245 648 225 666T171 684Q105
684 78 616L50 630Q65 672 97 693T174 715Q222 715 251 688T280 619Q280 587 262 561T213 524Q287 504 287 427Q287 379 250 347T152 315ZM200 0L549 710H585L236 0H200ZM760 117H707V0H674V117H487V138L682 392H707V145H760V117ZM527 145H674V335L527 145Z" />
<glyph unicode="&#xbf;" glyph-name="questiondown" horiz-adv-x="511" d="M324 433Q309 433 301 442T292 466Q292 479 300 489T324 499Q338 499 347 489T357 466Q357 452 348 443T324 433ZM266 -213Q211 -213 168 -193T100 -134T75 -44Q75 -5 87 28T129 95T208
171Q256 213 279 253T305 351L335 350Q335 305 325 270T290 204T225 137Q179 98 156 69T124 14T116 -43Q116 -107 158 -140T266 -174Q406 -174 455 -24L489 -38Q466 -119 408 -166T266 -213Z" />
<glyph unicode="&#xc0;" glyph-name="Agrave" horiz-adv-x="664" d="M27 0L317 710H355L633 0H590L509 208H154L70 0H27ZM169 244H496L336 659L169 244ZM313 791L198 952L239 968L352 791H313Z" />
<glyph unicode="&#xc1;" glyph-name="Aacute" horiz-adv-x="664" d="M27 0L317 710H355L633 0H590L509 208H154L70 0H27ZM169 244H496L336 659L169 244ZM567 791L680 968L721 952L606 791H567Z" />
<glyph unicode="&#xc2;" glyph-name="Acircumflex" horiz-adv-x="664" d="M27 0L317 710H355L633 0H590L509 208H154L70 0H27ZM169 244H496L336 659L169 244ZM473 791H433L332 927L231 791H191L315 958H349L473 791Z" />
<glyph unicode="&#xc3;" glyph-name="Atilde" horiz-adv-x="664" d="M27 0L317 710H355L633 0H590L509 208H154L70 0H27ZM169 244H496L336 659L169 244ZM672 788Q653 788 631 798T586 820T541 843T503 853Q481 853 467 835T447 788L423 800Q430 840 451 863T504
886Q523 886 545 876T590 853T634 830T673 820Q695 820 709 838T729 886L753 873Q746 833 725 811T672 788Z" />
<glyph unicode="&#xc4;" glyph-name="Adieresis" horiz-adv-x="664" d="M27 0L317 710H355L633 0H590L509 208H154L70 0H27ZM169 244H496L336 659L169 244ZM512 787Q498 787 490 795T481 817Q481 830 489 838T512 846Q525 846 533 838T541 817Q541 803 533 795T512
787ZM666 787Q652 787 644 795T635 817Q635 830 643 838T666 846Q679 846 687 838T695 817Q695 787 666 787Z" />
<glyph unicode="&#xc5;" glyph-name="Aring" horiz-adv-x="664" d="M27 0L317 710H355L633 0H590L509 208H154L70 0H27ZM169 244H496L336 659L169 244ZM587 786Q546 786 519 812T492 879Q492 920 520 948T591 976Q632 976 658 950T684 883Q684 841 657 814T587
786ZM588 814Q618 814 636 833T654 883Q654 913 637 930T590 947Q559 947 541 928T522 879Q522 850 540 832T588 814Z" />
<glyph unicode="&#xc6;" glyph-name="AE" horiz-adv-x="874" d="M27 0L317 710H817V674H488V379H812V344H488V36H833L828 0H447V209H154L70 0H27ZM168 244H447V674H342L168 244Z" />
<glyph unicode="&#xc7;" glyph-name="Ccedilla" horiz-adv-x="635" d="M627 134Q590 66 525 30T374 -7Q280 -7 211 35T105 155T68 343Q68 454 109 539T223 672T392 720Q470 720 531 687T628 590L595 563Q562 621 513 650T389 679Q308 679 245 637T147 518T111
341Q111 196 180 115T373 33Q452 33 506 65T593 159L627 134ZM358 -223Q329 -223 310 -217T271 -200L286 -172Q304 -182 320 -187T357 -192Q384 -192 402 -179T421 -139Q421 -94 354 -94H322L380 18H418L375 -65Q412 -69 434 -87T456 -138Q456 -176 427 -199T358
-223Z" />
<glyph unicode="&#xc8;" glyph-name="Egrave" horiz-adv-x="526" d="M469 674H129V379H464V344H129V36H485L480 0H88V710H469V674ZM515 791L400 952L441 968L554 791H515Z" />
<glyph unicode="&#xc9;" glyph-name="Eacute" horiz-adv-x="526" d="M469 674H129V379H464V344H129V36H485L480 0H88V710H469V674ZM513 791L626 968L667 952L552 791H513Z" />
<glyph unicode="&#xca;" glyph-name="Ecircumflex" horiz-adv-x="526" d="M469 674H129V379H464V344H129V36H485L480 0H88V710H469V674ZM675 791H635L534 927L433 791H393L517 958H551L675 791Z" />
<glyph unicode="&#xcb;" glyph-name="Edieresis" horiz-adv-x="526" d="M469 674H129V379H464V344H129V36H485L480 0H88V710H469V674ZM458 787Q444 787 436 795T427 817Q427 830 435 838T458 846Q471 846 479 838T487 817Q487 803 479 795T458 787ZM612 787Q598
787 590 795T581 817Q581 830 589 838T612 846Q625 846 633 838T641 817Q641 787 612 787Z" />
<glyph unicode="&#xcc;" glyph-name="Igrave" horiz-adv-x="218" d="M88 0V710H130V0H88ZM91 791L-24 952L17 968L130 791H91Z" />
<glyph unicode="&#xcd;" glyph-name="Iacute" horiz-adv-x="218" d="M88 0V710H130V0H88ZM89 791L202 968L243 952L128 791H89Z" />
<glyph unicode="&#xce;" glyph-name="Icircumflex" horiz-adv-x="218" d="M88 0V710H130V0H88ZM251 791H211L110 927L9 791H-31L93 958H127L251 791Z" />
<glyph unicode="&#xcf;" glyph-name="Idieresis" horiz-adv-x="218" d="M88 0V710H130V0H88ZM34 787Q20 787 12 795T3 817Q3 830 11 838T34 846Q47 846 55 838T63 817Q63 803 55 795T34 787ZM188 787Q174 787 166 795T157 817Q157 830 165 838T188 846Q201 846
209 838T217 817Q217 787 188 787Z" />
<glyph unicode="&#xd0;" glyph-name="Eth" horiz-adv-x="723" d="M88 0V710H247Q655 710 655 358Q655 187 556 94T269 0H88ZM130 37H265Q612 37 612 357Q612 516 524 594T254 673H130V37ZM3 343V377H357V343H3Z" />
<glyph unicode="&#xd1;" glyph-name="Ntilde" horiz-adv-x="702" d="M575 710H614V0H581L128 635V0H88V710H122L575 75V710ZM436 1043Q417 1043 395 1053T350 1075T305 1098T267 1108Q245 1108 231 1090T211 1043L187 1055Q194 1095 215 1118T268 1141Q287 1141
309 1131T354 1108T398 1085T437 1075Q459 1075 473 1093T493 1141L517 1128Q510 1088 489 1066T436 1043Z" />
<glyph unicode="&#xd2;" glyph-name="Ograve" horiz-adv-x="764" d="M377 -7Q282 -7 213 34T106 153T68 342Q68 453 110 538T227 672T397 720Q487 720 554 676T659 554T696 369Q696 254 655 170T542 39T377 -7ZM377 33Q458 33 520 73T618 189T653 373Q653 467
622 536T533 642T398 679Q314 679 250 638T148 520T111 340Q111 192 182 113T377 33ZM363 791L248 952L289 968L402 791H363Z" />
<glyph unicode="&#xd3;" glyph-name="Oacute" horiz-adv-x="764" d="M377 -7Q282 -7 213 34T106 153T68 342Q68 453 110 538T227 672T397 720Q487 720 554 676T659 554T696 369Q696 254 655 170T542 39T377 -7ZM377 33Q458 33 520 73T618 189T653 373Q653 467
622 536T533 642T398 679Q314 679 250 638T148 520T111 340Q111 192 182 113T377 33ZM361 791L474 968L515 952L400 791H361Z" />
<glyph unicode="&#xd4;" glyph-name="Ocircumflex" horiz-adv-x="764" d="M377 -7Q282 -7 213 34T106 153T68 342Q68 453 110 538T227 672T397 720Q487 720 554 676T659 554T696 369Q696 254 655 170T542 39T377 -7ZM377 33Q458 33 520 73T618 189T653 373Q653
467 622 536T533 642T398 679Q314 679 250 638T148 520T111 340Q111 192 182 113T377 33ZM523 791H483L382 927L281 791H241L365 958H399L523 791Z" />
<glyph unicode="&#xd5;" glyph-name="Otilde" horiz-adv-x="764" d="M377 -7Q282 -7 213 34T106 153T68 342Q68 453 110 538T227 672T397 720Q487 720 554 676T659 554T696 369Q696 254 655 170T542 39T377 -7ZM377 33Q458 33 520 73T618 189T653 373Q653 467
622 536T533 642T398 679Q314 679 250 638T148 520T111 340Q111 192 182 113T377 33ZM466 788Q447 788 425 798T380 820T335 843T297 853Q275 853 261 835T241 788L217 800Q224 840 245 863T298 886Q317 886 339 876T384 853T428 830T467 820Q489 820 503 838T523
886L547 873Q540 833 519 811T466 788Z" />
<glyph unicode="&#xd6;" glyph-name="Odieresis" horiz-adv-x="764" d="M377 -7Q282 -7 213 34T106 153T68 342Q68 453 110 538T227 672T397 720Q487 720 554 676T659 554T696 369Q696 254 655 170T542 39T377 -7ZM377 33Q458 33 520 73T618 189T653 373Q653 467
622 536T533 642T398 679Q314 679 250 638T148 520T111 340Q111 192 182 113T377 33ZM306 787Q292 787 284 795T275 817Q275 830 283 838T306 846Q319 846 327 838T335 817Q335 803 327 795T306 787ZM460 787Q446 787 438 795T429 817Q429 830 437 838T460 846Q473
846 481 838T489 817Q489 787 460 787Z" />
<glyph unicode="&#xd7;" glyph-name="multiply" horiz-adv-x="600" d="M473 100L446 74L300 219L154 74L127 100L273 246L127 392L154 419L300 273L446 419L473 392L327 246L473 100Z" />
<glyph unicode="&#xd8;" glyph-name="Oslash" horiz-adv-x="764" d="M377 -7Q282 -7 213 34T106 153T68 342Q68 453 110 538T227 672T397 720Q487 720 554 676T659 554T696 369Q696 254 655 170T542 39T377 -7ZM377 33Q458 33 520 73T618 189T653 373Q653 467
622 536T533 642T398 679Q314 679 250 638T148 520T111 340Q111 192 182 113T377 33ZM153 -19L123 1L612 729L641 709L153 -19Z" />
<glyph unicode="&#xd9;" glyph-name="Ugrave" horiz-adv-x="706" d="M578 710H620L621 346Q622 169 555 81T345 -7Q211 -7 148 68T85 305V710H129V306Q129 161 180 97T345 33Q472 33 526 109T579 345L578 710ZM335 791L220 952L261 968L374 791H335Z" />
<glyph unicode="&#xda;" glyph-name="Uacute" horiz-adv-x="706" d="M578 710H620L621 346Q622 169 555 81T345 -7Q211 -7 148 68T85 305V710H129V306Q129 161 180 97T345 33Q472 33 526 109T579 345L578 710ZM333 791L446 968L487 952L372 791H333Z" />
<glyph unicode="&#xdb;" glyph-name="Ucircumflex" horiz-adv-x="706" d="M578 710H620L621 346Q622 169 555 81T345 -7Q211 -7 148 68T85 305V710H129V306Q129 161 180 97T345 33Q472 33 526 109T579 345L578 710ZM495 791H455L354 927L253 791H213L337 958H371L495
791Z" />
<glyph unicode="&#xdc;" glyph-name="Udieresis" horiz-adv-x="706" d="M578 710H620L621 346Q622 169 555 81T345 -7Q211 -7 148 68T85 305V710H129V306Q129 161 180 97T345 33Q472 33 526 109T579 345L578 710ZM278 787Q264 787 256 795T247 817Q247 830 255
838T278 846Q291 846 299 838T307 817Q307 803 299 795T278 787ZM432 787Q418 787 410 795T401 817Q401 830 409 838T432 846Q445 846 453 838T461 817Q461 787 432 787Z" />
<glyph unicode="&#xdd;" glyph-name="Yacute" horiz-adv-x="522" d="M543 710L282 324V0H240V325L-21 710H27L263 361L498 710H543ZM497 791L610 968L651 952L536 791H497Z" />
<glyph unicode="&#xde;" glyph-name="Thorn" horiz-adv-x="590" d="M130 710V584H303Q420 584 485 532T550 385Q550 176 277 176H130V0H88V712L130 710ZM294 549H130V212H279Q399 212 453 253T508 384Q508 549 294 549Z" />
<glyph unicode="&#xdf;" glyph-name="germandbls" horiz-adv-x="611" d="M416 -7Q339 -7 289 32T234 144L270 151Q276 91 314 60T416 28Q476 28 509 53T543 121Q543 156 523 176T471 208T404 231T336 256T284 296T264 365Q264 403 281 430T323 480T374 523T417
569T434 628Q434 668 403 691T316 715Q231 715 185 658T138 496V0H98V458H-2V492H98Q99 613 157 681T316 750Q385 750 427 717T469 628Q469 589 452 561T411 511T361 469T319 425T302 369Q302 334 322 314T375 281T443 258T511 232T563 192T583 125Q583 65 537
29T416 -7Z" />
<glyph unicode="&#xe0;" glyph-name="agrave" horiz-adv-x="559" d="M477 493V0H437L441 149Q417 79 365 36T247 -7Q159 -7 110 57T61 223Q61 306 89 368T168 466T288 502Q340 502 380 477T436 412L445 493H477ZM289 464Q233 464 192 435T127 353T104 228Q104
136 143 84T251 31Q306 31 348 64T414 156T438 289Q438 371 398 417T289 464ZM541 573L426 735L467 750L580 573H541Z" />
<glyph unicode="&#xe1;" glyph-name="aacute" horiz-adv-x="559" d="M477 493V0H437L441 149Q417 79 365 36T247 -7Q159 -7 110 57T61 223Q61 306 89 368T168 466T288 502Q340 502 380 477T436 412L445 493H477ZM289 464Q233 464 192 435T127 353T104 228Q104
136 143 84T251 31Q306 31 348 64T414 156T438 289Q438 371 398 417T289 464ZM539 573L652 750L693 735L578 573H539Z" />
<glyph unicode="&#xe2;" glyph-name="acircumflex" horiz-adv-x="559" d="M477 493V0H437L441 149Q417 79 365 36T247 -7Q159 -7 110 57T61 223Q61 306 89 368T168 466T288 502Q340 502 380 477T436 412L445 493H477ZM289 464Q233 464 192 435T127 353T104 228Q104
136 143 84T251 31Q306 31 348 64T414 156T438 289Q438 371 398 417T289 464ZM701 573H661L560 709L459 573H419L543 740H577L701 573Z" />
<glyph unicode="&#xe3;" glyph-name="atilde" horiz-adv-x="559" d="M477 493V0H437L441 149Q417 79 365 36T247 -7Q159 -7 110 57T61 223Q61 306 89 368T168 466T288 502Q340 502 380 477T436 412L445 493H477ZM289 464Q233 464 192 435T127 353T104 228Q104
136 143 84T251 31Q306 31 348 64T414 156T438 289Q438 371 398 417T289 464ZM644 570Q625 570 603 580T558 603T513 626T475 636Q453 636 439 618T419 570L395 583Q402 622 423 645T476 668Q495 668 517 658T562 635T606 612T645 602Q667 602 681 620T701 668L725
655Q718 615 697 593T644 570Z" />
<glyph unicode="&#xe4;" glyph-name="adieresis" horiz-adv-x="559" d="M477 493V0H437L441 149Q417 79 365 36T247 -7Q159 -7 110 57T61 223Q61 306 89 368T168 466T288 502Q340 502 380 477T436 412L445 493H477ZM289 464Q233 464 192 435T127 353T104 228Q104
136 143 84T251 31Q306 31 348 64T414 156T438 289Q438 371 398 417T289 464ZM484 570Q470 570 462 577T453 599Q453 612 461 620T484 629Q497 629 505 621T513 599Q513 585 505 578T484 570ZM638 570Q624 570 616 577T607 599Q607 612 615 620T638 629Q651 629
659 621T667 599Q667 570 638 570Z" />
<glyph unicode="&#xe5;" glyph-name="aring" horiz-adv-x="559" d="M477 493V0H437L441 149Q417 79 365 36T247 -7Q159 -7 110 57T61 223Q61 306 89 368T168 466T288 502Q340 502 380 477T436 412L445 493H477ZM289 464Q233 464 192 435T127 353T104 228Q104 136
143 84T251 31Q306 31 348 64T414 156T438 289Q438 371 398 417T289 464ZM559 568Q518 568 491 594T464 662Q464 703 492 730T563 758Q604 758 630 732T656 666Q656 624 629 596T559 568ZM560 597Q590 597 608 616T626 666Q626 695 609 712T562 730Q531 730 513
711T494 662Q494 633 512 615T560 597Z" />
<glyph unicode="&#xe6;" glyph-name="ae" horiz-adv-x="868" d="M220 -7Q143 -7 97 31T51 128Q51 193 98 230T232 267H402V306Q402 383 368 424T261 465Q197 465 157 431T105 333L67 340Q78 412 129 457T261 502Q336 502 378 468T434 373Q461 433 512 467T627
502Q688 502 734 474T802 385T814 231H445Q446 132 495 82T634 31Q680 31 720 49T787 110L816 87Q789 42 743 18T632 -7Q553 -7 499 29T422 133Q400 71 346 32T220 -7ZM627 467Q577 467 537 441T473 369T446 267H779Q783 337 764 381T709 446T627 467ZM224 29Q277
29 317 54T379 122T402 216V230H232Q164 230 129 204T94 130Q94 83 128 56T224 29Z" />
<glyph unicode="&#xe7;" glyph-name="ccedilla" horiz-adv-x="483" d="M281 -7Q178 -7 120 58T61 238Q61 314 89 374T169 468T290 502Q353 502 395 475T459 408L428 384Q406 423 372 443T289 464Q233 464 192 435T127 355T104 238Q104 137 150 84T283 31Q329 31
366 49T429 110L459 87Q434 42 389 18T281 -7ZM509 -223Q480 -223 461 -217T422 -200L437 -172Q455 -182 471 -187T508 -192Q535 -192 553 -179T572 -139Q572 -94 505 -94H473L531 18H569L526 -65Q563 -69 585 -87T607 -138Q607 -176 578 -199T509 -223Z" />
<glyph unicode="&#xe8;" glyph-name="egrave" horiz-adv-x="530" d="M293 -7Q184 -7 123 58T61 240Q61 316 90 375T171 468T288 502Q350 502 396 474T464 385T477 231H104Q105 132 154 82T295 31Q343 31 383 49T450 110L479 87Q451 42 405 18T293 -7ZM289 467Q237
467 197 441T132 369T104 267H442Q445 338 426 382T371 446T289 467ZM525 573L410 735L451 750L564 573H525Z" />
<glyph unicode="&#xe9;" glyph-name="eacute" horiz-adv-x="530" d="M293 -7Q184 -7 123 58T61 240Q61 316 90 375T171 468T288 502Q350 502 396 474T464 385T477 231H104Q105 132 154 82T295 31Q343 31 383 49T450 110L479 87Q451 42 405 18T293 -7ZM289 467Q237
467 197 441T132 369T104 267H442Q445 338 426 382T371 446T289 467ZM523 573L636 750L677 735L562 573H523Z" />
<glyph unicode="&#xea;" glyph-name="ecircumflex" horiz-adv-x="530" d="M293 -7Q184 -7 123 58T61 240Q61 316 90 375T171 468T288 502Q350 502 396 474T464 385T477 231H104Q105 132 154 82T295 31Q343 31 383 49T450 110L479 87Q451 42 405 18T293 -7ZM289
467Q237 467 197 441T132 369T104 267H442Q445 338 426 382T371 446T289 467ZM685 573H645L544 709L443 573H403L527 740H561L685 573Z" />
<glyph unicode="&#xeb;" glyph-name="edieresis" horiz-adv-x="530" d="M293 -7Q184 -7 123 58T61 240Q61 316 90 375T171 468T288 502Q350 502 396 474T464 385T477 231H104Q105 132 154 82T295 31Q343 31 383 49T450 110L479 87Q451 42 405 18T293 -7ZM289 467Q237
467 197 441T132 369T104 267H442Q445 338 426 382T371 446T289 467ZM468 570Q454 570 446 577T437 599Q437 612 445 620T468 629Q481 629 489 621T497 599Q497 585 489 578T468 570ZM622 570Q608 570 600 577T591 599Q591 612 599 620T622 629Q635 629 643 621T651
599Q651 570 622 570Z" />
<glyph unicode="&#xec;" glyph-name="igrave" horiz-adv-x="204" d="M122 492V0H82V492H122ZM83 573L-32 735L9 750L122 573H83Z" />
<glyph unicode="&#xed;" glyph-name="iacute" horiz-adv-x="204" d="M122 492V0H82V492H122ZM81 573L194 750L235 735L120 573H81Z" />
<glyph unicode="&#xee;" glyph-name="icircumflex" horiz-adv-x="204" d="M122 492V0H82V492H122ZM243 573H203L102 709L1 573H-39L85 740H119L243 573Z" />
<glyph unicode="&#xef;" glyph-name="idieresis" horiz-adv-x="204" d="M122 492V0H82V492H122ZM26 570Q12 570 4 577T-5 599Q-5 612 3 620T26 629Q39 629 47 621T55 599Q55 585 47 578T26 570ZM180 570Q166 570 158 577T149 599Q149 612 157 620T180 629Q193
629 201 621T209 599Q209 570 180 570Z" />
<glyph unicode="&#xf0;" glyph-name="eth" horiz-adv-x="530" d="M259 -7Q169 -7 115 52T60 215Q60 289 88 345T165 434T275 467Q326 467 366 442T427 374Q420 452 393 514T316 624L152 543L137 572L290 648Q237 690 163 718L177 750Q265 715 325 665L433 719L447
689L350 641Q414 578 443 487T473 270Q473 185 446 123T371 27T259 -7ZM263 31Q311 31 349 57T409 131T431 242Q431 332 390 380T277 429Q228 429 189 403T126 329T102 215Q102 131 141 81T263 31Z" />
<glyph unicode="&#xf1;" glyph-name="ntilde" horiz-adv-x="550" d="M82 0V492H122L117 277Q141 393 195 447T324 502Q396 502 435 453T473 309L471 0H431L433 301Q433 383 405 423T316 464Q260 464 216 420T146 275T121 0H82ZM615 570Q596 570 574 580T529 603T484
626T446 636Q424 636 410 618T390 570L366 583Q373 622 394 645T447 668Q466 668 488 658T533 635T577 612T616 602Q638 602 652 620T672 668L696 655Q689 615 668 593T615 570Z" />
<glyph unicode="&#xf2;" glyph-name="ograve" horiz-adv-x="556" d="M286 502Q382 502 438 436T494 256Q494 181 466 122T389 28T275 -7Q175 -7 118 59T61 239Q61 314 89 373T167 467T286 502ZM275 31Q328 31 367 59T429 139T452 256Q452 356 408 410T287 464Q232
464 191 435T127 356T104 239Q104 139 149 85T275 31ZM515 573L400 735L441 750L554 573H515Z" />
<glyph unicode="&#xf3;" glyph-name="oacute" horiz-adv-x="556" d="M286 502Q382 502 438 436T494 256Q494 181 466 122T389 28T275 -7Q175 -7 118 59T61 239Q61 314 89 373T167 467T286 502ZM275 31Q328 31 367 59T429 139T452 256Q452 356 408 410T287 464Q232
464 191 435T127 356T104 239Q104 139 149 85T275 31ZM513 573L626 750L667 735L552 573H513Z" />
<glyph unicode="&#xf4;" glyph-name="ocircumflex" horiz-adv-x="556" d="M286 502Q382 502 438 436T494 256Q494 181 466 122T389 28T275 -7Q175 -7 118 59T61 239Q61 314 89 373T167 467T286 502ZM275 31Q328 31 367 59T429 139T452 256Q452 356 408 410T287
464Q232 464 191 435T127 356T104 239Q104 139 149 85T275 31ZM675 573H635L534 709L433 573H393L517 740H551L675 573Z" />
<glyph unicode="&#xf5;" glyph-name="otilde" horiz-adv-x="556" d="M286 502Q382 502 438 436T494 256Q494 181 466 122T389 28T275 -7Q175 -7 118 59T61 239Q61 314 89 373T167 467T286 502ZM275 31Q328 31 367 59T429 139T452 256Q452 356 408 410T287 464Q232
464 191 435T127 356T104 239Q104 139 149 85T275 31ZM618 570Q599 570 577 580T532 603T487 626T449 636Q427 636 413 618T393 570L369 583Q376 622 397 645T450 668Q469 668 491 658T536 635T580 612T619 602Q641 602 655 620T675 668L699 655Q692 615 671 593T618
570Z" />
<glyph unicode="&#xf6;" glyph-name="odieresis" horiz-adv-x="556" d="M286 502Q382 502 438 436T494 256Q494 181 466 122T389 28T275 -7Q175 -7 118 59T61 239Q61 314 89 373T167 467T286 502ZM275 31Q328 31 367 59T429 139T452 256Q452 356 408 410T287 464Q232
464 191 435T127 356T104 239Q104 139 149 85T275 31ZM458 570Q444 570 436 577T427 599Q427 612 435 620T458 629Q471 629 479 621T487 599Q487 585 479 578T458 570ZM612 570Q598 570 590 577T581 599Q581 612 589 620T612 629Q625 629 633 621T641 599Q641 570
612 570Z" />
<glyph unicode="&#xf7;" glyph-name="divide" horiz-adv-x="600" d="M300 452Q286 452 280 459T274 478Q274 487 280 494T300 502Q315 502 321 495T327 478Q327 467 321 460T300 452ZM540 266V228H60V266H540ZM300 -7Q286 -7 280 0T274 18Q274 28 280 35T300 43Q315
43 321 36T327 18Q327 8 321 1T300 -7Z" />
<glyph unicode="&#xf8;" glyph-name="oslash" horiz-adv-x="556" d="M286 502Q382 502 438 436T494 256Q494 181 466 122T389 28T275 -7Q175 -7 118 59T61 239Q61 314 89 373T167 467T286 502ZM275 31Q328 31 367 59T429 139T452 256Q452 356 408 410T287 464Q232
464 191 435T127 356T104 239Q104 139 149 85T275 31ZM369 -30L340 -12L386 56L398 73L642 435L654 455L700 523L729 504L683 436L671 420L427 58L415 38L369 -30Z" />
<glyph unicode="&#xf9;" glyph-name="ugrave" horiz-adv-x="541" d="M224 -7Q154 -7 116 40T77 176L81 492H121L118 184Q117 108 144 70T231 31Q287 31 330 75T397 220T421 492H459V0H419L424 209Q398 94 346 44T224 -7ZM508 573L393 735L434 750L547 573H508Z" />
<glyph unicode="&#xfa;" glyph-name="uacute" horiz-adv-x="541" d="M224 -7Q154 -7 116 40T77 176L81 492H121L118 184Q117 108 144 70T231 31Q287 31 330 75T397 220T421 492H459V0H419L424 209Q398 94 346 44T224 -7ZM506 573L619 750L660 735L545 573H506Z" />
<glyph unicode="&#xfb;" glyph-name="ucircumflex" horiz-adv-x="541" d="M224 -7Q154 -7 116 40T77 176L81 492H121L118 184Q117 108 144 70T231 31Q287 31 330 75T397 220T421 492H459V0H419L424 209Q398 94 346 44T224 -7ZM668 573H628L527 709L426 573H386L510
740H544L668 573Z" />
<glyph unicode="&#xfc;" glyph-name="udieresis" horiz-adv-x="541" d="M224 -7Q154 -7 116 40T77 176L81 492H121L118 184Q117 108 144 70T231 31Q287 31 330 75T397 220T421 492H459V0H419L424 209Q398 94 346 44T224 -7ZM451 570Q437 570 429 577T420 599Q420
612 428 620T451 629Q464 629 472 621T480 599Q480 585 472 578T451 570ZM605 570Q591 570 583 577T574 599Q574 612 582 620T605 629Q618 629 626 621T634 599Q634 570 605 570Z" />
<glyph unicode="&#xfd;" glyph-name="yacute" horiz-adv-x="547" d="M239 -210Q198 -210 157 -202T88 -177L102 -139Q129 -154 167 -163T242 -172Q340 -172 383 -121T427 46L429 214Q404 99 351 49T223 -2Q154 -2 116 45T77 181L81 492H121L118 189Q117 114 144
75T231 36Q290 36 334 80T402 224T427 492H465V53Q465 -86 410 -148T239 -210ZM510 573L623 750L664 735L549 573H510Z" />
<glyph unicode="&#xfe;" glyph-name="thorn" horiz-adv-x="559" d="M82 -200V740H122V493L121 352Q146 420 196 461T312 502Q401 502 449 438T498 272Q498 189 470 127T392 29T271 -7Q221 -7 180 18T121 88L122 0V-200H82ZM271 31Q326 31 367 60T432 142T455 267Q455
359 416 411T308 464Q254 464 212 431T145 339T121 207Q121 125 161 78T271 31Z" />
<glyph unicode="&#xff;" glyph-name="ydieresis" horiz-adv-x="547" d="M239 -210Q198 -210 157 -202T88 -177L102 -139Q129 -154 167 -163T242 -172Q340 -172 383 -121T427 46L429 214Q404 99 351 49T223 -2Q154 -2 116 45T77 181L81 492H121L118 189Q117 114
144 75T231 36Q290 36 334 80T402 224T427 492H465V53Q465 -86 410 -148T239 -210ZM455 570Q441 570 433 577T424 599Q424 612 432 620T455 629Q468 629 476 621T484 599Q484 585 476 578T455 570ZM609 570Q595 570 587 577T578 599Q578 612 586 620T609 629Q622
629 630 621T638 599Q638 570 609 570Z" />
<glyph unicode="&#x2013;" glyph-name="endash" horiz-adv-x="500" d="M20 238V273H480V238H20Z" />
<glyph unicode="&#x2014;" glyph-name="emdash" horiz-adv-x="1000" d="M20 238V273H980V238H20Z" />
<glyph unicode="&#x2018;" glyph-name="quoteleft" horiz-adv-x="148" d="M100 750Q90 721 90 695Q90 675 95 661T100 632Q100 616 92 607T71 598Q43 598 43 636Q43 661 53 693T79 750H100Z" />
<glyph unicode="&#x2019;" glyph-name="quoteright" horiz-adv-x="148" d="M45 598Q55 627 55 653Q55 673 50 687T45 716Q45 733 53 741T73 750Q102 750 102 712Q102 687 92 655T66 598H45Z" />
<glyph unicode="&#x201a;" glyph-name="quotesinglbase" horiz-adv-x="148" d="M45 -89Q55 -60 55 -34Q55 -13 50 1T45 29Q45 45 54 53T75 61Q105 61 105 25Q105 0 95 -32T67 -89H45Z" />
<glyph unicode="&#x201c;" glyph-name="quotedblleft" horiz-adv-x="245" d="M199 750Q189 721 189 695Q189 675 194 661T199 632Q199 616 191 607T170 598Q142 598 142 636Q142 661 152 693T178 750H199ZM102 750Q92 721 92 695Q92 675 97 661T102 632Q102 616
94 607T73 598Q45 598 45 636Q45 661 55 693T81 750H102Z" />
<glyph unicode="&#x201d;" glyph-name="quotedblright" horiz-adv-x="245" d="M142 598Q152 627 152 653Q152 673 147 687T142 716Q142 733 150 741T170 750Q199 750 199 712Q199 687 189 655T163 598H142ZM45 598Q55 627 55 653Q55 673 50 687T45 716Q45 733
53 741T73 750Q102 750 102 712Q102 687 92 655T66 598H45Z" />
<glyph unicode="&#x201e;" glyph-name="quotedblbase" horiz-adv-x="237" d="M135 -89Q145 -60 145 -34Q145 -13 140 1T135 29Q135 45 144 53T165 61Q195 61 195 25Q195 0 185 -32T157 -89H135ZM45 -89Q55 -60 55 -34Q55 -13 50 1T45 29Q45 45 54 53T75 61Q105
61 105 25Q105 0 95 -32T67 -89H45Z" />
<glyph unicode="&#x2022;" glyph-name="bullet" horiz-adv-x="457" d="M228 80Q180 80 142 102T81 163T58 251Q58 300 80 339T141 400T228 422Q276 422 315 400T376 339T399 251Q399 202 377 164T315 103T228 80Z" />
<glyph unicode="&#x2039;" glyph-name="guilsinglleft" horiz-adv-x="223" d="M163 70L33 244V262L163 436H209L74 253L209 70H163Z" />
<glyph unicode="&#x203a;" glyph-name="guilsinglright" horiz-adv-x="223" d="M61 70H14L149 253L14 436H61L190 262V244L61 70Z" />
</font>
</defs>
</svg>
